<?xml version="1.0" encoding="utf-8"?>
<!-- Generator: Adobe Illustrator 24.3.0, SVG Export Plug-In . SVG Version: 6.00 Build 0)  -->
<svg version="1.1" id="Layer_1" xmlns="http://www.w3.org/2000/svg" xmlns:xlink="http://www.w3.org/1999/xlink" x="0px" y="0px"
	 viewBox="0 0 94.8 94.8" style="enable-background:new 0 0 94.8 94.8;" xml:space="preserve">
<style type="text/css">
	.st0{fill:url(#SVGID_1_);}
	.st1{fill-rule:evenodd;clip-rule:evenodd;fill:#C7E1DB;}
</style>
<radialGradient id="SVGID_1_" cx="-883.0099" cy="572.2146" r="0.671" gradientTransform="matrix(31.848 0 0 -31.848 28164.873 18266.1211)" gradientUnits="userSpaceOnUse">
	<stop  offset="0" style="stop-color:#85DEDA"/>
	<stop  offset="1" style="stop-color:#599CDA"/>
</radialGradient>
<circle class="st0" cx="47.4" cy="47.4" r="15.9"/>
<g transform="translate(29.657 35.601)">
	<path class="st1" d="M25.3,0.6c0.1-0.1,0.2-0.1,0.4-0.3c0,0.1,0,0.1,0.1,0.1c0,0.2-0.2,0-0.1,0.2C25.5,0.6,25.5,0.7,25.3,0.6z"/>
	<path class="st1" d="M5.2,11.9v-0.2c0.1,0,0.2-0.1,0.2,0.1C5.5,12,5.3,11.8,5.2,11.9z"/>
	<path class="st1" d="M5.5,12.5c0-0.1,0.1-0.3,0.2-0.3c0,0.2,0.2,0.2,0,0.4C5.6,12.6,5.6,12.4,5.5,12.5z"/>
	<path class="st1" d="M6.8,6.1C6.9,6.1,7.1,6,7.1,6.3C7,6.3,6.9,6.1,6.8,6.1z"/>
	<path class="st1" d="M7.5,9c0.4-0.4,1,0.1,1.2,0.7C8.4,9.6,8,8.9,7.5,9z"/>
	<path class="st1" d="M9.2,11.7c0-0.3,0.2,0,0.3-0.1c0-0.2,0-0.2-0.1-0.2c0.1-0.2,0.2,0.2,0.3,0.3c0,0.2-0.1,0.1-0.1,0.4
		C9.4,12,9.3,11.8,9.2,11.7z"/>
	<path class="st1" d="M10,12.6c0-0.1,0.1-0.1,0.2-0.2c0,0.1,0.1,0.2,0,0.3h-0.1C10.2,12.6,10.1,12.5,10,12.6z"/>
	<path class="st1" d="M11.8,19.8c0-0.2,0.2-0.3,0.2,0L11.8,19.8z"/>
	<path class="st1" d="M12.1,16.7c0-0.2,0.3-0.1,0.3,0C12.3,16.9,12.2,16.6,12.1,16.7z"/>
	<path class="st1" d="M12.6,19.7c0.1-0.1,0.2-0.2,0.3-0.2C12.9,19.8,12.7,19.7,12.6,19.7z"/>
	<path class="st1" d="M13.2,18.8c-0.2-0.1,0.3-0.3,0.2,0C13.3,18.9,13.2,18.6,13.2,18.8z"/>
	<path class="st1" d="M13.4,18.8c0-0.2,0.4-0.3,0.3,0C13.7,18.7,13.6,18.8,13.4,18.8z"/>
	<path class="st1" d="M15.3,18.5c0-0.1,0.1-0.1,0.1-0.1c0.1,0.2,0.1,0.2,0.2,0.2C15.5,18.7,15.4,18.6,15.3,18.5z"/>
	<path class="st1" d="M15.5,12.5c0-0.3,0.2-0.1,0.3-0.2C15.8,12.5,15.6,12.5,15.5,12.5z"/>
	<path class="st1" d="M8.8,12.4c0,0,0,0.1,0,0.2c-0.3,0-0.5-0.5-0.7-0.2c0,0.2,0.2,0,0.3,0.1c-0.1,0.1-0.2-0.1-0.3,0.1
		c0-0.3,0-0.2,0-0.4c0.3-0.1,0.3,0,0.8,0C8.6,12.5,8.9,12.3,8.8,12.4c0.1-0.3,0.2-0.2,0.3,0c0.1-0.1-0.1-0.2,0-0.3
		c0.1,0.2,0.5-0.1,0.4,0.2c0,0,0.1,0,0.1,0.1c0.1-0.1-0.1-0.3,0.1-0.3c-0.1,0.2,0.1,0.2,0.2,0.3c-0.2,0.4-0.8,0.1-1,0.3
		C8.9,12.6,8.8,12.5,8.8,12.4z"/>
	<path class="st1" d="M14.1,18.8c0-0.2,0.3-0.2,0.4-0.2C14.4,18.8,14.2,18.7,14.1,18.8z"/>
	<path class="st1" d="M15.3,16.8c0.1-0.1,0.3,0,0.3-0.3C15.7,16.7,15.4,17,15.3,16.8z"/>
	<path class="st1" d="M0.5,30.1C0.5,30,0.6,30,0.6,30c0,0.1,0.1,0.2,0,0.3H0.6C0.6,30.1,0.6,30.1,0.5,30.1z"/>
	<path class="st1" d="M5.9,30.1c0-0.3,0.2-0.1,0.3-0.2C6.2,30.1,6.1,30,5.9,30.1z"/>
	<path class="st1" d="M10.9,7c0.2-0.1,0.6,0.2,0.8,0.4C11.5,7.6,11.2,7.1,10.9,7z"/>
	<path class="st1" d="M10.9,3.5c0-0.4,0.2,0.3,0.2-0.2c0.1,0,0,0.2,0,0.3C11.1,3.6,11,3.6,10.9,3.5z"/>
	<path class="st1" d="M11.1,6.2c0-0.2,0.1,0,0.2-0.1c0,0.1,0,0.2,0,0.4C11.2,6.4,11.2,6.2,11.1,6.2z"/>
	<path class="st1" d="M11.4,5.6c0-0.2,0.2-0.4,0.2-0.2C11.5,5.6,11.5,5.7,11.4,5.6z"/>
	<path class="st1" d="M11.8,6.1C11.9,6,12.2,5.8,12.3,6c-0.1,0.2-0.2,0-0.1,0.3C12.1,6.1,12,6.1,11.8,6.1z"/>
	<path class="st1" d="M12.9,6.3c-0.1-0.4,0.8-0.4,0.6,0.1c0,0,0-0.1,0-0.2C13.4,6.3,13.1,6,12.9,6.3z"/>
	<path class="st1" d="M15.2,5.6c0-0.2,0.2,0,0.3-0.1C15.4,5.7,15.3,5.7,15.2,5.6z"/>
	<path class="st1" d="M18.2,5.2c0-0.2,0.1-0.3,0.2-0.2C18.4,5.2,18.3,5.2,18.2,5.2z"/>
	<path class="st1" d="M20.7,5c0.1-0.3,0.4,0,0.5,0c0,0.2-0.2-0.1-0.2,0.2C21,4.9,20.9,5,20.7,5z"/>
	<path class="st1" d="M11.3,3.5c0-0.1,0-0.2,0-0.3c0.1,0,0.1,0.5,0.3,0.3c0.1,0.1-0.1,0.1-0.1,0.2C11.4,3.7,11.4,3.5,11.3,3.5z"/>
	<path class="st1" d="M11.4,6.3c0.1-0.3,0.3,0,0.4,0.1c0,0.1,0,0.1,0,0.2c0.2-0.2,0.1,0.2,0.3,0.2c0,0,0-0.1,0.1-0.1
		c0.1,0,0.2,0.1,0.2,0.3c-0.2-0.1-0.2-0.1-0.4,0V6.7c-0.1,0-0.2,0-0.2-0.1c0,0.2,0.1,0.3,0,0.4c0,0.2,0.2,0,0.1,0.2
		c-0.1-0.1-0.2-0.1-0.3-0.2c0.2-0.1,0.1-0.2,0-0.5c0.1,0.1,0.1,0,0.2,0C11.7,6.2,11.5,6.3,11.4,6.3z"/>
	<path class="st1" d="M11.5,3.2c0.1,0.1,0.1,0.2,0.2,0.1c0,0.1,0,0.2,0.1,0.2C11.9,3.5,11.5,3.5,11.5,3.2z"/>
	<path class="st1" d="M12.2,6.6c0.1-0.3,0.2,0.1,0.3,0.3c0,0,0-0.2,0.1-0.1C12.5,7.2,12.3,6.6,12.2,6.6z"/>
	<path class="st1" d="M16.6,1.7c0-0.1,0.1-0.1,0.2-0.2c0,0.1,0.1,0.2,0,0.3c0,0-0.1,0-0.1,0C16.7,1.7,16.7,1.7,16.6,1.7z"/>
	<path class="st1" d="M18.4,9c0-0.2,0.2-0.3,0.2,0L18.4,9z"/>
	<path class="st1" d="M18.7,5.8c0-0.2,0.3-0.1,0.3,0C18.9,6,18.8,5.7,18.7,5.8z"/>
	<path class="st1" d="M19.2,8.9c0.1-0.1,0.2-0.2,0.3-0.2C19.5,9,19.3,8.8,19.2,8.9z"/>
	<path class="st1" d="M19.7,8c-0.2-0.1,0.3-0.3,0.2,0C19.8,8.1,19.8,7.7,19.7,8z"/>
	<path class="st1" d="M20,8c0-0.2,0.4-0.3,0.3,0C20.2,7.8,20.2,8,20,8z"/>
	<path class="st1" d="M21.8,11.6c0-0.1,0.1-0.2,0.2-0.2C22.1,11.7,21.9,11.8,21.8,11.6z"/>
	<path class="st1" d="M21.9,7.6c0-0.1,0.1-0.1,0.1-0.1c0.1,0.2,0.1,0.2,0.2,0.2C22.1,7.9,21.9,7.7,21.9,7.6z"/>
	<path class="st1" d="M22.1,1.6c0-0.3,0.2-0.1,0.3-0.2C22.3,1.7,22.2,1.6,22.1,1.6z"/>
	<path class="st1" d="M27.1,4.7c0,0,0,0.1,0,0.2c-0.3,0-0.5-0.5-0.7-0.2c0,0.2,0.2,0,0.3,0.1C26.5,5,26.4,4.8,26.3,5
		c0-0.3,0-0.2,0-0.4c0.3-0.1,0.3,0,0.8,0C26.9,4.8,27.2,4.6,27.1,4.7c0.1-0.3,0.2-0.2,0.3,0c0.1-0.1-0.1-0.2,0-0.3
		c0.1,0.2,0.5-0.1,0.4,0.2c0,0,0.1,0,0.1,0.1c0.1-0.1-0.1-0.3,0.1-0.3c-0.1,0.2,0.1,0.2,0.2,0.3c-0.2,0.4-0.8,0.1-1,0.3
		C27.2,4.9,27.1,4.8,27.1,4.7z"/>
	<path class="st1" d="M20.6,7.9c0-0.2,0.3-0.2,0.4-0.2C20.9,7.9,20.8,7.9,20.6,7.9z"/>
	<path class="st1" d="M21.9,5.9c0.1-0.1,0.3,0,0.3-0.3C22.3,5.8,22,6.1,21.9,5.9z"/>
	<path class="st1" d="M16.9,3.1c0.1-0.1,0.3,0.1,0.4,0.2C17.1,3.5,17,3.2,16.9,3.1z"/>
	<path class="st1" d="M16.9,1.3c0-0.2,0.1,0.1,0.1-0.1c0,0,0,0.1,0,0.1C17,1.4,16.9,1.3,16.9,1.3z"/>
	<path class="st1" d="M17,2.7c0-0.1,0.1,0,0.1,0c0,0.1,0,0.1,0,0.2C17,2.8,17,2.7,17,2.7z"/>
	<path class="st1" d="M17.1,2.4c0-0.1,0.1-0.2,0.1-0.1C17.2,2.4,17.1,2.4,17.1,2.4z"/>
	<path class="st1" d="M17.3,2.7c0.1-0.1,0.2-0.2,0.3-0.1c0,0.1-0.1,0,0,0.2C17.5,2.7,17.4,2.7,17.3,2.7z"/>
	<path class="st1" d="M17.9,2.7c0-0.2,0.4-0.2,0.3,0.1c0,0,0-0.1,0-0.1C18.1,2.8,18,2.6,17.9,2.7z"/>
	<path class="st1" d="M17,1.3c0-0.1,0-0.1,0-0.2c0.1,0,0,0.3,0.1,0.1c0.1,0,0,0.1,0,0.1C17.1,1.4,17.1,1.3,17,1.3z"/>
	<path class="st1" d="M17.1,2.8c0-0.2,0.1,0,0.2,0c0,0,0,0.1,0,0.1C17.4,2.8,17.3,3,17.4,3c0,0,0-0.1,0-0.1c0.1,0,0.1,0,0.1,0.1
		c-0.1-0.1-0.1,0-0.2,0V3c0,0-0.1,0-0.1,0c0,0.1,0,0.1,0,0.2c0,0.1,0.1,0,0.1,0.1c0,0-0.1-0.1-0.1-0.1c0.1-0.1,0-0.1,0-0.3
		c0,0.1,0.1,0,0.1,0C17.3,2.7,17.2,2.8,17.1,2.8z"/>
	<path class="st1" d="M17.2,1.2c0.1,0,0.1,0.1,0.1,0c0,0.1,0,0.1,0,0.1C17.3,1.3,17.2,1.3,17.2,1.2z"/>
	<path class="st1" d="M17.5,2.9c0.1-0.1,0.1,0.1,0.1,0.1c0,0,0-0.1,0.1-0.1C17.7,3.2,17.6,2.9,17.5,2.9z"/>
	<path class="st1" d="M14.4,6.9c0.2-0.1,0.6,0.2,0.8,0.4C15,7.5,14.7,7,14.4,6.9z"/>
	<path class="st1" d="M26.2,6.5c0-0.4,0.2,0.3,0.2-0.2c0.1,0,0,0.2,0,0.3C26.4,6.6,26.3,6.6,26.2,6.5z"/>
	<path class="st1" d="M14.6,6c0-0.2,0.1,0,0.2-0.1c0,0.1,0,0.2,0,0.4C14.7,6.3,14.7,6.1,14.6,6z"/>
	<path class="st1" d="M14.9,5.5c0-0.2,0.2-0.4,0.2-0.2C15.1,5.4,15,5.5,14.9,5.5z"/>
	<path class="st1" d="M15.3,6c0.1-0.2,0.4-0.4,0.5-0.2c-0.1,0.2-0.2,0-0.1,0.3C15.6,6,15.5,6,15.3,6z"/>
	<path class="st1" d="M16.5,6.1c-0.1-0.4,0.8-0.4,0.6,0.1c0,0,0-0.1,0-0.2C16.9,6.2,16.6,5.9,16.5,6.1z"/>
	<path class="st1" d="M12.9,4.6c0-0.2,0.2,0,0.3-0.1C13.1,4.7,13,4.6,12.9,4.6z"/>
	<path class="st1" d="M15.9,4.2C15.9,4,16,3.9,16.1,4C16.1,4.1,16,4.1,15.9,4.2z"/>
	<path class="st1" d="M18.4,3.9c0.1-0.3,0.4,0,0.5,0c0,0.2-0.2-0.1-0.2,0.2C18.7,3.8,18.6,4,18.4,3.9z"/>
	<path class="st1" d="M26.5,6.5c0-0.1,0-0.2,0-0.3c0.1,0,0.1,0.5,0.3,0.3c0.1,0.1-0.1,0.1-0.1,0.2C26.7,6.7,26.7,6.5,26.5,6.5z"/>
	<path class="st1" d="M14.9,6.2c0.1-0.3,0.3,0,0.4,0.1c0,0.1,0,0.1,0,0.2c0.2-0.2,0.1,0.2,0.3,0.2c0,0,0-0.1,0.1-0.1
		c0.1,0,0.2,0.1,0.2,0.3c-0.2-0.1-0.2-0.1-0.4,0V6.6c-0.1,0-0.2,0-0.2-0.1c0,0.2,0.1,0.3,0,0.4c0,0.2,0.2,0,0.1,0.2
		C15.1,7,15,7,15,6.9c0.2-0.1,0.1-0.2,0-0.5c0.1,0.1,0.1,0,0.2,0C15.2,6.1,15,6.2,14.9,6.2z"/>
	<path class="st1" d="M26.8,6.2c0.1,0.1,0.1,0.2,0.2,0.1c0,0.1,0,0.2,0.1,0.2C27.1,6.5,26.8,6.5,26.8,6.2z"/>
	<path class="st1" d="M15.7,6.4c0.1-0.3,0.2,0.1,0.3,0.3c0,0,0-0.2,0.1-0.1C16,7.1,15.9,6.5,15.7,6.4z"/>
	<path class="st1" d="M26.6,10.4c0.1-0.4,0.4-0.2,0.6-0.2C27.1,10.6,26.8,10.3,26.6,10.4z"/>
	<path class="st1" d="M30.2,10.8c0-0.1,0.3-0.3,0.3,0C30.4,10.7,30.4,10.7,30.2,10.8z"/>
	<path class="st1" d="M30.7,10.7c0.3-0.3,0.3-0.2,0.8-0.2C31.3,10.7,31,10.7,30.7,10.7z"/>
	<path class="st1" d="M31.9,10.3c0.2,0.3,0.4,0.1,0.7,0.1C32.5,10.6,32,10.8,31.9,10.3z"/>
	<path class="st1" d="M33.1,7.7c0-0.1,0.1-0.3,0.2-0.3c0.1,0,0.1,0,0.2,0.1C33.5,7.7,33.3,7.4,33.1,7.7z"/>
	<path class="st1" d="M33.3,9.5c0-0.1,0.1-0.1,0-0.1c0-0.2,0.2,0.1,0.2,0.2c0,0.1-0.1,0.1-0.2,0.1C33.3,9.6,33.3,9.5,33.3,9.5z"/>
	<path class="st1" d="M34,6.8c-0.1-0.1,0.2-0.1,0.3,0c0,0.1,0,0.1,0,0.1c0,0,0,0,0,0.1C34.1,6.9,34.1,6.7,34,6.8z"/>
	<path class="st1" d="M35,2.7l0.2,0C35.2,2.9,35,2.9,35,2.7z"/>
	<path class="st1" d="M35.8,2.5c0.1-0.4,0.3,0.1,0.5,0C36.2,2.6,35.9,2.6,35.8,2.5z"/>
	<path class="st1" d="M20.7,2.9c0-0.3,0.2-0.1,0.2,0C20.9,3.1,20.8,2.8,20.7,2.9z"/>
	<path class="st1" d="M21.7,8.8c0-0.3,0.3-0.2,0.2,0.1C21.8,8.8,21.7,8.7,21.7,8.8z"/>
	<path class="st1" d="M22.5,5.4c0.1-0.1,0.2-0.2,0.3-0.1C22.7,5.5,22.6,5.3,22.5,5.4z"/>
	<path class="st1" d="M25,12.5c0.6-0.2,1.1,0,1.8,0C26.2,13.3,25.6,12.3,25,12.5z"/>
	<path class="st1" d="M26.2,10.1c0,0.2-0.3,0.2-0.3,0.1c0-0.1,0.1-0.1,0.1-0.2C26,10.1,26,10.2,26.2,10.1z"/>
	<path class="st1" d="M31.5,10.6c0.1-0.1,0.4-0.3,0.4,0C31.7,10.5,31.7,10.6,31.5,10.6z"/>
	<path class="st1" d="M23.8,13.6c0-0.1,0.5,0.1,0.6-0.1C24.5,13.7,23.9,13.7,23.8,13.6z"/>
	<path class="st1" d="M34.9,6.9C35,6.8,35,6.7,35.2,6.7c0,0.2,0.1,0.2,0.1,0.4C35.2,6.9,35.1,6.8,34.9,6.9z"/>
	<path class="st1" d="M16.5,12.1c-0.1,0-0.1-0.3-0.3-0.2C16.3,11.7,16.5,11.8,16.5,12.1c0-0.1,0-0.2,0-0.3
		C16.7,11.9,16.6,12.1,16.5,12.1z"/>
	<path class="st1" d="M21,7.6c0-0.1,0.1-0.3,0.2-0.4C21.8,7.4,21.1,7.2,21,7.6z"/>
	<path class="st1" d="M21.2,5.5c-0.1,0,0-0.1,0-0.2c0.1,0.1,0.3,0.1,0.4,0.2C21.5,5.7,21.3,5.2,21.2,5.5z"/>
	<path class="st1" d="M21.2,1c0-0.2,0.3,0.1,0.5,0.1C21.5,1.2,21.3,1,21.2,1z"/>
	<path class="st1" d="M21.8,6.1c0.1-0.1,0.2,0.1,0.4,0.1c0,0.2-0.2,0-0.2,0.2C21.9,6.2,21.9,6.1,21.8,6.1z"/>
	<path class="st1" d="M25.3,9.1c0.1-0.1,0.3-0.1,0.5,0C25.7,9.2,25.5,9.2,25.3,9.1z"/>
	<path class="st1" d="M23.8,4.4c0.2-0.1,0.6,0.2,0.8,0.4C24.4,5,24.1,4.5,23.8,4.4z"/>
	<path class="st1" d="M23.8,0.9c0-0.4,0.2,0.3,0.2-0.2c0.1,0,0,0.2,0,0.3C24,1,23.9,0.9,23.8,0.9z"/>
	<path class="st1" d="M24,3.5c0-0.2,0.1,0,0.2-0.1c0,0.1,0,0.2,0,0.4C24.2,3.8,24.1,3.6,24,3.5z"/>
	<path class="st1" d="M24.3,3c0-0.2,0.2-0.4,0.2-0.2C24.5,3,24.4,3,24.3,3z"/>
	<path class="st1" d="M24.7,3.5c0.1-0.2,0.4-0.4,0.5-0.2c-0.1,0.2-0.2,0-0.1,0.3C25.1,3.5,24.9,3.5,24.7,3.5z"/>
	<path class="st1" d="M25.9,3.6c-0.1-0.4,0.8-0.4,0.6,0.1c0,0,0-0.1,0-0.2C26.3,3.7,26,3.4,25.9,3.6z"/>
	<path class="st1" d="M24.2,0.9c0-0.1,0-0.2,0-0.3c0.1,0,0.1,0.5,0.3,0.3C24.6,1,24.4,1,24.4,1.1C24.4,1,24.3,0.9,24.2,0.9z"/>
	<path class="st1" d="M24.3,3.7c0.1-0.3,0.3,0,0.4,0.1c0,0.1,0,0.1,0,0.2c0.2-0.2,0.1,0.2,0.3,0.2c0,0,0-0.1,0.1-0.1
		c0.1,0,0.2,0.1,0.2,0.3c-0.2-0.1-0.2-0.1-0.4,0V4.1c-0.1,0-0.2,0-0.2-0.1c0,0.2,0.1,0.3,0,0.4c0,0.2,0.2,0,0.1,0.2
		c-0.1-0.1-0.2-0.1-0.3-0.2c0.2-0.1,0.1-0.2,0-0.5c0.1,0.1,0.1,0,0.2,0C24.7,3.6,24.5,3.7,24.3,3.7z"/>
	<path class="st1" d="M24.5,0.6c0.1,0.1,0.1,0.2,0.2,0.1c0,0.1,0,0.2,0.1,0.2C24.8,0.9,24.5,0.8,24.5,0.6z"/>
	<path class="st1" d="M25.1,3.9c0.1-0.3,0.2,0.1,0.3,0.3c0,0,0-0.2,0.1-0.1C25.4,4.6,25.3,4,25.1,3.9z"/>
	<path class="st1" d="M31.4,2.8c0.1,0.3-0.2,0.6-0.5,0.8C30.9,3.4,31.3,3.1,31.4,2.8z"/>
	<path class="st1" d="M34.5,3.2c0.4,0.1-0.3,0.2,0.1,0.3c0,0.1-0.2,0-0.3,0C34.4,3.5,34.4,3.3,34.5,3.2z"/>
	<path class="st1" d="M32.2,3.1c0.1,0,0,0.2,0,0.2c-0.1,0-0.2-0.1-0.3,0C32,3.2,32.1,3.2,32.2,3.1z"/>
	<path class="st1" d="M32.6,3.5c0.2,0.1,0.3,0.2,0.1,0.3C32.6,3.7,32.6,3.6,32.6,3.5z"/>
	<path class="st1" d="M32.1,3.9c0.1,0.2,0.3,0.5,0.1,0.6c-0.1-0.1,0-0.2-0.2-0.1C32.1,4.3,32.1,4.1,32.1,3.9z"/>
	<path class="st1" d="M31.9,5.2c0.3,0,0.2,0.9-0.2,0.7c0-0.1,0.1,0,0.2,0C31.8,5.7,32,5.4,31.9,5.2z"/>
	<path class="st1" d="M34.4,3.7c0.1,0,0.2,0.1,0.2,0.1c0,0.1-0.4,0-0.3,0.3c-0.1,0.1-0.1-0.1-0.2-0.1C34.3,3.8,34.4,3.8,34.4,3.7z"
		/>
	<path class="st1" d="M32,3.4c0.3,0.1,0,0.3-0.1,0.4c-0.1,0-0.1-0.1-0.2-0.1c0.1,0.2-0.2,0.1-0.2,0.3c0,0.1,0.1,0,0.1,0.1
		c0,0.2-0.1,0.2-0.3,0.2c0.1-0.2,0.1-0.2,0-0.5l0.2,0c0-0.1,0-0.2,0.1-0.2c-0.2,0-0.2,0-0.3-0.1c-0.2,0,0,0.2-0.2,0.1
		c0.1-0.1,0.1-0.2,0.2-0.3c0.1,0.2,0.2,0.1,0.4,0.1c-0.1,0.1,0,0.1,0,0.2C32,3.8,32,3.6,32,3.4z"/>
	<path class="st1" d="M34.7,4c-0.1,0.1-0.2,0.1-0.1,0.3c-0.1,0-0.2,0-0.2,0.1C34.4,4.3,34.4,4,34.7,4z"/>
	<path class="st1" d="M31.7,4.3c0.2,0.2-0.1,0.2-0.3,0.3c0,0.1,0.1,0.1,0.1,0.2C31.1,4.6,31.6,4.5,31.7,4.3z"/>
	<path class="st1" d="M25.3,0.5c-0.2,0.1-0.4,0.1-0.6,0.2c0-0.1,0.1-0.2,0.1-0.2c0-0.1,0-0.1,0-0.2c0.2,0.2,0.4,0.1,0.6-0.1
		C25.3,0.3,25,0.6,25.3,0.5z"/>
	<path class="st1" d="M25.8,0.4C25.8,0.2,26,0.5,26,0.7c0-0.1-0.1-0.1-0.2-0.1C25.8,0.5,26,0.4,25.8,0.4z"/>
	<path class="st1" d="M0,7.6c0.1-0.2,0.2-0.2,0.2,0.1C0.1,7.8,0.1,7.5,0,7.6z"/>
	<path class="st1" d="M25.5,4.2c0.2-0.1,0.6,0.2,0.8,0.4C26.1,4.8,25.8,4.3,25.5,4.2z"/>
	<path class="st1" d="M25.5,0.7c0-0.4,0.2,0.3,0.2-0.2c0.1,0,0,0.2,0,0.3C25.7,0.8,25.6,0.7,25.5,0.7z"/>
	<path class="st1" d="M25.7,3.3c0-0.2,0.1,0,0.2-0.1c0,0.1,0,0.2,0,0.4C25.8,3.6,25.8,3.4,25.7,3.3z"/>
	<path class="st1" d="M25.9,2.8c0-0.2,0.2-0.4,0.2-0.2C26.1,2.7,26,2.8,25.9,2.8z"/>
	<path class="st1" d="M26.4,3.3c0.1-0.2,0.4-0.4,0.5-0.2c-0.1,0.2-0.2,0-0.1,0.3C26.7,3.3,26.5,3.3,26.4,3.3z"/>
	<path class="st1" d="M15.8,0.3c-0.1-0.4,0.8-0.4,0.6,0.1c0,0,0-0.1,0-0.2C16.2,0.3,16,0,15.8,0.3z"/>
	<path class="st1" d="M25.9,0.7c0-0.1,0-0.2,0-0.3c0.1,0,0.1,0.5,0.3,0.3c0.1,0.1-0.1,0.1-0.1,0.2C26,0.8,26,0.7,25.9,0.7z"/>
	<path class="st1" d="M26,3.5c0.1-0.3,0.3,0,0.4,0.1c0,0.1,0,0.1,0,0.2c0.2-0.2,0.1,0.2,0.3,0.2c0,0,0-0.1,0.1-0.1
		c0.1,0,0.2,0.1,0.2,0.3c-0.2-0.1-0.2-0.1-0.4,0V3.9c-0.1,0-0.2,0-0.2-0.1c0,0.2,0.1,0.3,0,0.4c0,0.2,0.2,0,0.1,0.2
		c-0.1-0.1-0.2-0.1-0.3-0.2c0.2-0.1,0.1-0.2,0-0.5c0.1,0.1,0.1,0,0.2,0C26.3,3.4,26.1,3.5,26,3.5z"/>
	<path class="st1" d="M26.1,0.4c0.1,0.1,0.1,0.2,0.3,0.1c0,0.1,0,0.2,0.1,0.2C26.5,0.7,26.1,0.6,26.1,0.4z"/>
	<path class="st1" d="M26.8,3.7C26.9,3.5,27,3.9,27,4c0,0,0-0.2,0.1-0.2C27.1,4.4,26.9,3.8,26.8,3.7z"/>
	<path class="st1" d="M11.2,5.7c0.1-0.1,0.2-0.1,0.4-0.3c0,0.1,0,0.1,0.1,0.1c0,0.2-0.2,0-0.1,0.2C11.4,5.6,11.4,5.7,11.2,5.7z"/>
	<path class="st1" d="M11.2,5.6c-0.2,0.1-0.4,0.1-0.6,0.2c0-0.1,0.1-0.2,0.1-0.1c0-0.1,0-0.1,0-0.2c0.2,0.2,0.4,0.1,0.6-0.1
		C11.2,5.4,10.9,5.6,11.2,5.6z"/>
	<path class="st1" d="M11.7,5.4c-0.1-0.2,0.2,0.1,0.1,0.3c0-0.1-0.1-0.1-0.2-0.1C11.7,5.5,11.9,5.5,11.7,5.4z"/>
	<path class="st1" d="M2.1,14.4c0.2,0,0.1,0.3,0.3,0.4C2.5,14.8,2.1,14.7,2.1,14.4z"/>
	<path class="st1" d="M6.4,22.7c0-0.2,0.1,0.1,0.2,0.1c0,0.1-0.1,0.2-0.2,0.2C6.5,22.8,6.6,22.7,6.4,22.7z"/>
	<path class="st1" d="M32.3,15c0.3,0-0.2,0.2,0.1,0.2c0,0-0.1,0-0.2,0C32.2,15.2,32.2,15.1,32.3,15z"/>
	<path class="st1" d="M32.3,15.3c0.1,0,0.1,0,0.2,0c0,0.1-0.4,0.1-0.2,0.2c0,0.1-0.1-0.1-0.2,0C32.2,15.4,32.3,15.4,32.3,15.3z"/>
	<path class="st1" d="M32.5,15.4c-0.1,0.1-0.1,0.1,0,0.2c-0.1,0-0.1,0-0.2,0.1C32.3,15.7,32.3,15.5,32.5,15.4z"/>
	<path class="st1" d="M3.2,4.1c0.1,0,0.2,0.1,0.2,0.2C3.2,4.3,3.2,4.2,3.2,4.1z"/>
</g>
</svg>
