<?xml version="1.0" encoding="utf-8"?>
<!-- Generator: Adobe Illustrator 24.3.0, SVG Export Plug-In . SVG Version: 6.00 Build 0)  -->
<svg version="1.1" id="Layer_1" xmlns="http://www.w3.org/2000/svg" xmlns:xlink="http://www.w3.org/1999/xlink" x="0px" y="0px"
	 viewBox="0 0 138.7 121.8" style="enable-background:new 0 0 138.7 121.8;" xml:space="preserve">
<style type="text/css">
	.st0{fill:#1341C4;}
	.st1{fill:#072B88;}
	.st2{fill:#001863;}
	.st3{fill-rule:evenodd;clip-rule:evenodd;fill:#5789DB;}
</style>
<g transform="translate(50.558 26.992)">
	<path class="st0" d="M48.2,61.5l-12.8-0.8L14,47L4.9,30.7l9-27.4L40.3,0l32.2,27.6l2.4,3.3l-20.5,23L48.2,61.5z"/>
	<path class="st1" d="M14,47l21.7,10.5l11.8-21.4l-20.8-7.3L13.9,3.4L40.3,0l34.6,30.9l0,0L48.2,61.5l-12.8-0.8L14,47z"/>
	<path class="st2" d="M74.9,30.9l-27.3,5.2L35.7,57.5l12.5,4L74.9,30.9z"/>
	<g transform="translate(33.846 8.489)">
		<path class="st3" d="M54.2,59.2c-0.1,0-0.3,0-0.3-0.1c0.2-0.1,0.2-0.2,0.4-0.3c0,0.1,0.1,0.1,0.1,0.2C54.1,59,54.1,59.1,54.2,59.2
			z"/>
		<path class="st3" d="M50,51.5c-0.4,0.3-0.3-0.2-0.4-0.3C49.9,51,49.9,51.3,50,51.5z"/>
		<path class="st3" d="M4.4,30.9c-0.2,0.1-0.7-0.2-0.2-0.4C4.2,30.8,4.3,30.7,4.4,30.9z"/>
		<path class="st3" d="M4,30.3c-0.7-0.3-0.5-0.3-0.9-1C3.6,29.4,3.7,29.9,4,30.3z"/>
		<path class="st3" d="M2.5,28.8c0.3-0.4-0.1-0.7-0.3-1.1C2.6,27.8,3.2,28.2,2.5,28.8z"/>
		<path class="st3" d="M0.4,27.4c-0.1,0-0.2-0.1-0.2,0.1c-0.3,0.1-0.1-0.3,0.2-0.4c0.1,0,0.2,0.1,0.2,0.2
			C0.4,27.3,0.4,27.4,0.4,27.4z"/>
		<path class="st3" d="M3.2,29.2c-0.1,0-0.7-0.3-0.3-0.5C3,29,3.1,29,3.2,29.2z"/>
		<path class="st3" d="M9.1,16.5c-0.1-0.1,0-0.3,0.1-0.3C9.4,16.4,9.2,16.4,9.1,16.5z"/>
		<path class="st3" d="M12.9,14.1C12.8,14.1,12.9,14,12.9,14.1c0-0.3,0.2-0.3,0.4-0.3C13.1,13.9,13,14,12.9,14.1z"/>
		<path class="st3" d="M13.2,14.7c0-0.1,0-0.2,0-0.4C13.4,14.5,13.3,14.6,13.2,14.7z"/>
		<path class="st3" d="M13.5,14.1c0,0-0.1,0-0.1,0c0-0.1,0.1-0.2,0-0.3c0.1,0,0.1,0.1,0,0.1c0.1,0.1,0.1,0.1,0.2,0.2
			c-0.1,0.1-0.1,0.2-0.1,0.3c-0.1,0-0.1-0.1-0.2-0.2C13.3,14,13.5,14.2,13.5,14.1z"/>
		<path class="st3" d="M13.3,13.6c-0.1-0.2,0.1-0.1,0.1-0.2c0.1-0.1-0.2-0.2,0.1-0.1C13.5,13.5,13.4,13.5,13.3,13.6z"/>
		<path class="st3" d="M14.1,13.2c-0.1,0,0.1-0.2,0.2-0.3C14.3,13,14.2,13.1,14.1,13.2z"/>
		<path class="st3" d="M14.8,13.2c0.1,0.1,0.1,0,0.1-0.1C15,13.3,14.8,13.4,14.8,13.2z"/>
		<path class="st3" d="M15.4,13.8c0-0.1,0.1,0,0.1-0.1C15.7,13.8,15.5,13.8,15.4,13.8z"/>
		<path class="st3" d="M11.7,16.3L11.7,16.3c-0.1-0.2,0-0.2,0.1-0.2C11.8,16.2,11.8,16.3,11.7,16.3z"/>
		<path class="st3" d="M11.7,14.7c0-0.1,0-0.1,0-0.1C11.8,14.6,11.8,14.6,11.7,14.7C11.9,14.7,11.8,14.7,11.7,14.7z"/>
		<path class="st3" d="M11.7,14.5c0-0.1,0.1,0,0.1-0.1C11.9,14.5,11.8,14.5,11.7,14.5C11.7,14.5,11.7,14.5,11.7,14.5z"/>
		<path class="st3" d="M21.4,13.7c0.1-0.2,0.1-0.3,0.2-0.5c0.1,0.1,0.1,0.1,0.2,0.1c0.1,0.2-0.2,0.1,0,0.3
			C21.6,13.5,21.6,13.6,21.4,13.7z"/>
		<path class="st3" d="M14.1,16.6c-0.1-0.2,0.1-0.1,0.1-0.2c-0.1-0.2-0.1,0-0.2,0c-0.1-0.3,0.3,0,0.1-0.3c0.1,0,0.1,0,0.2-0.1
			c0.1,0.1,0,0.1-0.1,0.1c0.1,0.1,0,0.2,0.2,0.3C14.3,16.4,14.2,16.5,14.1,16.6z"/>
		<path class="st3" d="M14.9,13.9c0-0.1,0-0.1-0.1-0.2c0,0,0-0.1,0.1-0.1C14.9,13.7,15,13.9,14.9,13.9z"/>
		<path class="st3" d="M7.5,16.5c0-0.2,0.1-0.4,0.3,0C7.7,16.7,7.6,16.4,7.5,16.5z"/>
		<path class="st3" d="M7.8,14.2C7.6,14,8,13.8,8.1,13.9c0.1-0.1-0.1-0.3-0.1-0.5c0.2,0.1,0.4,0.3,0.6,0.5c0,0.2-0.4,0.3-0.4,0.1
			C8,14.1,8,14.2,7.8,14.2z"/>
		<path class="st3" d="M16.5,14.3c0-0.1,0.1-0.1,0.2-0.1C16.7,14.3,16.6,14.3,16.5,14.3z"/>
		<path class="st3" d="M17.6,14.8c0-0.1,0-0.2,0.1-0.2C17.8,14.8,17.7,14.8,17.6,14.8z"/>
		<path class="st3" d="M18.6,10.7c-0.1-0.2-0.2-0.5-0.1-0.6c0.1,0.2,0.2,0.3,0.3,0.5C18.8,10.6,18.7,10.6,18.6,10.7z"/>
		<path class="st3" d="M9,24.8c-0.2-0.4,0.4,0.1,0.2-0.3c0.1,0,0.1,0.2,0.2,0.3C9.3,24.8,9.1,24.8,9,24.8z"/>
		<path class="st3" d="M17.1,22.4c-0.1-0.2-0.1-0.3,0.1-0.4C17.3,22.2,17.2,22.3,17.1,22.4z"/>
		<path class="st3" d="M19.5,20.6c-0.1-0.3,0.4-0.2,0.5-0.3c0.1,0.2-0.3,0.1,0,0.3C19.7,20.4,19.7,20.6,19.5,20.6z"/>
		<path class="st3" d="M9.4,24.6c-0.1-0.1-0.1-0.2-0.1-0.3c0.1,0,0.4,0.5,0.4,0.1c0.2,0,0,0.2,0.1,0.3C9.6,24.7,9.5,24.5,9.4,24.6z"
			/>
		<path class="st3" d="M9.5,24.2c0.2,0,0.2,0.1,0.3-0.1c0.1,0.1,0.1,0.2,0.2,0.2C9.9,24.3,9.6,24.4,9.5,24.2z"/>
		<path class="st3" d="M13.5,19.7c0-0.1,0-0.2,0.1-0.2c0.1,0.1,0.1,0.1,0.2,0.3c0,0-0.1,0-0.1,0.1C13.6,19.7,13.6,19.6,13.5,19.7z"
			/>
		<path class="st3" d="M18.8,16.5c-0.2-0.3,0.1-0.2,0.2-0.3C19.1,16.4,18.9,16.4,18.8,16.5z"/>
		<path class="st3" d="M25.6,16.7c0,0,0,0.2,0.1,0.2c-0.2,0.2-0.7-0.2-0.8,0.2c0.1,0.2,0.2-0.1,0.3,0c0,0.2-0.2,0-0.3,0.3
			c-0.2-0.2-0.1-0.2-0.3-0.4c0.3-0.3,0.3-0.1,0.7-0.5C25.4,16.9,25.6,16.6,25.6,16.7c-0.1-0.3,0.1-0.4,0.3-0.2
			c0.1-0.1-0.2-0.2-0.1-0.3c0.2,0.1,0.4-0.4,0.5,0c0,0,0.1,0,0.1,0c0.1-0.1-0.3-0.3-0.1-0.4c0,0.3,0.2,0.1,0.3,0.2
			c0,0.6-0.7,0.6-0.8,0.9C25.8,16.9,25.7,16.8,25.6,16.7z"/>
		<path class="st3" d="M11.2,13.7c0.2-0.3,0.7-0.2,1,0C12.1,14,11.5,13.6,11.2,13.7z"/>
		<path class="st3" d="M9.1,10.1c-0.2-0.4,0.4,0.1,0.2-0.3c0.1,0,0.1,0.2,0.2,0.3C9.4,10.1,9.2,10.1,9.1,10.1z"/>
		<path class="st3" d="M10.8,12.7c-0.1-0.2,0.1-0.1,0.2-0.2c0,0.1,0.1,0.3,0.2,0.4C11.1,12.9,11,12.7,10.8,12.7z"/>
		<path class="st3" d="M10.8,12c-0.1-0.2-0.1-0.5,0.1-0.3C10.9,11.9,10.9,12,10.8,12z"/>
		<path class="st3" d="M11.5,12.3c0-0.2,0.2-0.6,0.4-0.4c0,0.2-0.1,0.1,0.1,0.3C11.8,12,11.6,12.2,11.5,12.3z"/>
		<path class="st3" d="M12.7,11.7c-0.3-0.3,0.5-0.8,0.7-0.2c-0.1,0-0.1-0.1-0.2-0.2C13.1,11.5,12.7,11.4,12.7,11.7z"/>
		<path class="st3" d="M14.5,9.8c-0.1-0.2,0.2-0.2,0.2-0.2C14.8,9.7,14.7,9.8,14.5,9.8z"/>
		<path class="st3" d="M17.2,7.7c-0.1-0.2-0.1-0.3,0.1-0.4C17.4,7.5,17.3,7.6,17.2,7.7z"/>
		<path class="st3" d="M19.6,6c-0.1-0.3,0.4-0.2,0.5-0.3c0.1,0.2-0.3,0.1,0,0.3C19.8,5.7,19.8,5.9,19.6,6z"/>
		<path class="st3" d="M9.5,9.9C9.4,9.8,9.4,9.7,9.3,9.6c0.1,0,0.4,0.5,0.4,0.1c0.2,0,0,0.2,0.1,0.3C9.7,10,9.6,9.8,9.5,9.9z"/>
		<path class="st3" d="M11.2,12.6c-0.1-0.3,0.3-0.1,0.4-0.2c0,0.1,0,0.2,0.1,0.2c0.1-0.3,0.2,0.1,0.4,0.1c0,0-0.1-0.2,0-0.2
			c0.1-0.1,0.2,0,0.3,0.2c-0.3,0-0.2,0-0.4,0.2l-0.1-0.2c-0.1,0.1-0.2,0.1-0.2,0.1c0.1,0.2,0.2,0.2,0.2,0.4c0.1,0.2,0.2-0.2,0.3,0.1
			c-0.1,0-0.2-0.1-0.4-0.1c0.1-0.2-0.1-0.3-0.3-0.5c0.2,0.1,0.1-0.1,0.2-0.1C11.5,12.4,11.3,12.6,11.2,12.6z"/>
		<path class="st3" d="M9.5,9.5c0.2,0,0.2,0.1,0.3-0.1C9.9,9.5,10,9.6,10,9.6C10,9.6,9.7,9.7,9.5,9.5z"/>
		<path class="st3" d="M12.1,12.5c0-0.3,0.3,0,0.4,0.1c0-0.1-0.1-0.2,0-0.2C12.8,12.9,12.3,12.4,12.1,12.5z"/>
		<path class="st3" d="M14.6,21c0.1-0.1,0.4-0.1,0.5,0C15.1,21.2,14.8,21,14.6,21z"/>
		<path class="st3" d="M13.6,19.2c-0.1-0.2,0.2,0.1,0.1-0.2c0,0,0.1,0.1,0.1,0.1C13.7,19.2,13.6,19.2,13.6,19.2z"/>
		<path class="st3" d="M14.4,20.5C14.4,20.4,14.5,20.5,14.4,20.5c0.1,0,0.1,0,0.2,0.1C14.6,20.6,14.5,20.5,14.4,20.5z"/>
		<path class="st3" d="M14.4,20.2c0-0.1,0-0.2,0.1-0.1C14.5,20.1,14.5,20.2,14.4,20.2z"/>
		<path class="st3" d="M14.8,20.3c0-0.1,0.1-0.3,0.2-0.2c0,0.1-0.1,0.1,0,0.2C14.9,20.2,14.9,20.3,14.8,20.3z"/>
		<path class="st3" d="M15.4,20c-0.2-0.2,0.3-0.4,0.4-0.1c0,0-0.1-0.1-0.1-0.1C15.6,19.9,15.4,19.9,15.4,20z"/>
		<path class="st3" d="M13.7,19.1c0,0-0.1-0.1-0.1-0.2c0.1,0,0.2,0.2,0.2,0.1c0.1,0,0,0.1,0,0.1C13.9,19.1,13.8,19.1,13.7,19.1z"/>
		<path class="st3" d="M14.6,20.5c-0.1-0.2,0.1-0.1,0.2-0.1c0,0,0,0.1,0,0.1c0-0.1,0.1,0,0.2,0c0,0,0-0.1,0-0.1
			c0.1-0.1,0.1,0,0.2,0.1c-0.1,0-0.1,0-0.2,0.1L15,20.6c0,0-0.1,0-0.1,0c0.1,0.1,0.1,0.1,0.1,0.2c0,0.1,0.1-0.1,0.1,0.1
			c-0.1,0-0.1,0-0.2,0c0.1-0.1,0-0.2-0.1-0.3c0.1,0,0.1,0,0.1-0.1C14.8,20.4,14.7,20.5,14.6,20.5z"/>
		<path class="st3" d="M13.8,18.9c0.1,0,0.1,0,0.1,0c0,0.1,0.1,0.1,0.1,0.1C14,18.9,13.8,19,13.8,18.9z"/>
		<path class="st3" d="M15.1,20.4c0-0.2,0.2,0,0.2,0.1c0,0,0-0.1,0-0.1C15.5,20.7,15.2,20.4,15.1,20.4z"/>
		<path class="st3" d="M11.5,24.7c-0.1-0.2,0.2-0.2,0.2-0.2C11.8,24.7,11.7,24.7,11.5,24.7z"/>
		<path class="st3" d="M14.2,22.6c-0.1-0.2-0.1-0.3,0.1-0.4C14.4,22.5,14.3,22.5,14.2,22.6z"/>
		<path class="st3" d="M16.6,20.9c-0.1-0.3,0.4-0.2,0.5-0.3c0.1,0.2-0.3,0.1,0,0.3C16.8,20.7,16.8,20.9,16.6,20.9z"/>
		<path class="st3" d="M22.6,11.2c0-0.1-0.1-0.3,0-0.3c0.2,0.1,0.2,0.3,0.3,0.5C22.8,11.5,22.8,11.1,22.6,11.2z"/>
		<path class="st3" d="M25.3,9.6c-0.1-0.2,0.2-0.2,0.2-0.2C25.7,9.7,25.4,9.5,25.3,9.6z"/>
		<path class="st3" d="M23.3,5.8c-0.2-0.2,0.3-0.3,0.4,0C23.5,5.9,23.4,5.7,23.3,5.8z"/>
		<path class="st3" d="M15.7,2.7c0-0.2,0-0.3,0.2-0.4c0,0,0,0,0.1,0C16,2.5,15.8,2.6,15.7,2.7z"/>
		<path class="st3" d="M16.3,2.3c-0.1-0.3,0.4-0.2,0.4-0.5C16.8,2.1,16.4,2.3,16.3,2.3z"/>
		<path class="st3" d="M17.7,2.3C17.5,2,17.8,2,17.9,1.8C18.1,2,17.7,2.1,18,2.2C18,2.4,17.7,2.2,17.7,2.3z"/>
		<path class="st3" d="M18.2,1.6c0.2,0.1,0.1,0.2,0.1,0.3c-0.1,0-0.2,0.1-0.3-0.1c0.1,0,0.1,0,0.2,0C18.2,1.7,18.1,1.6,18.2,1.6z"/>
		<path class="st3" d="M18.1,1.5c0-0.3,0.4,0.1,0.4-0.3C18.7,1.6,18.3,1.7,18.1,1.5z"/>
		<path class="st3" d="M18.3,18.5c-0.2-0.3,0.1-0.2,0.2-0.1C18.5,18.6,18.3,18.4,18.3,18.5z"/>
		<path class="st3" d="M20.7,13.3c-0.2-0.2,0-0.5,0.2-0.1L20.7,13.3z"/>
		<path class="st3" d="M21.4,12.8c0-0.1,0.1-0.3,0.2-0.3C21.8,12.7,21.5,12.7,21.4,12.8z"/>
		<path class="st3" d="M21.4,11.6c-0.3,0,0.1-0.5,0.2-0.1C21.6,11.6,21.3,11.3,21.4,11.6z"/>
		<path class="st3" d="M17.6,16.4c-0.1-0.2,0.4-0.1,0.5-0.2C18.1,16.5,17.7,16.3,17.6,16.4z"/>
		<path class="st3" d="M22.2,18.3c0.2-0.3,0.7-0.2,1,0C23.1,18.6,22.5,18.2,22.2,18.3z"/>
		<path class="st3" d="M20.2,14.8c-0.2-0.4,0.4,0.1,0.2-0.3c0.1,0,0.1,0.2,0.2,0.3C20.4,14.8,20.3,14.8,20.2,14.8z"/>
		<path class="st3" d="M21.9,17.3c-0.1-0.2,0.1-0.1,0.2-0.2c0,0.1,0.1,0.3,0.2,0.4C22.1,17.5,22,17.3,21.9,17.3z"/>
		<path class="st3" d="M21.8,16.7c-0.1-0.2-0.1-0.5,0.1-0.3C22,16.5,21.9,16.6,21.8,16.7z"/>
		<path class="st3" d="M22.5,16.9c0-0.2,0.2-0.6,0.4-0.4c0,0.2-0.1,0.1,0.1,0.3C22.8,16.7,22.7,16.8,22.5,16.9z"/>
		<path class="st3" d="M23.7,16.4c-0.3-0.3,0.5-0.8,0.7-0.2c-0.1,0-0.1-0.1-0.2-0.2C24.2,16.2,23.8,16,23.7,16.4z"/>
		<path class="st3" d="M20.5,14.6c-0.1-0.1-0.1-0.2-0.1-0.3c0.1,0,0.4,0.5,0.4,0.1c0.2,0,0,0.2,0,0.3C20.7,14.6,20.6,14.5,20.5,14.6
			z"/>
		<path class="st3" d="M22.2,17.3c-0.1-0.3,0.3-0.1,0.4-0.2c0,0.1,0,0.2,0.1,0.2c0.1-0.3,0.2,0.1,0.4,0.1c0,0-0.1-0.2,0-0.2
			c0.1-0.1,0.2,0,0.3,0.2c-0.3,0-0.2,0-0.4,0.2l-0.1-0.2c-0.1,0.1-0.2,0.1-0.2,0.1c0.1,0.2,0.2,0.2,0.2,0.4c0.1,0.2,0.2-0.2,0.3,0.1
			c-0.1,0-0.2,0-0.4-0.1c0.1-0.2-0.1-0.3-0.3-0.5c0.2,0.1,0.1-0.1,0.2-0.1C22.5,17,22.4,17.2,22.2,17.3z"/>
		<path class="st3" d="M20.6,14.1c0.2,0,0.2,0.1,0.3-0.1c0.1,0.1,0.1,0.2,0.2,0.2C21.1,14.2,20.7,14.4,20.6,14.1z"/>
		<path class="st3" d="M23.2,17.1c0-0.3,0.3,0,0.4,0.1c0-0.1-0.1-0.2,0-0.2C23.8,17.6,23.4,17.1,23.2,17.1z"/>
		<path class="st3" d="M17.2,8.7c0.2-0.3,0.7-0.2,1,0C18.1,8.9,17.5,8.6,17.2,8.7z"/>
		<path class="st3" d="M15.2,5.1c-0.2-0.4,0.4,0.1,0.2-0.3c0.1,0,0.1,0.2,0.2,0.3C15.4,5.1,15.3,5.1,15.2,5.1z"/>
		<path class="st3" d="M16.9,7.7C16.8,7.5,17,7.5,17,7.5c0,0.1,0.1,0.3,0.2,0.4C17.1,7.8,17,7.6,16.9,7.7z"/>
		<path class="st3" d="M16.8,7c-0.1-0.2-0.1-0.5,0.1-0.3C17,6.8,16.9,6.9,16.8,7z"/>
		<path class="st3" d="M17.5,7.3c0-0.2,0.2-0.6,0.4-0.4c0,0.2-0.1,0.1,0.1,0.3C17.9,7,17.7,7.1,17.5,7.3z"/>
		<path class="st3" d="M18.7,6.7c-0.3-0.3,0.5-0.8,0.7-0.2c-0.1,0-0.1-0.1-0.2-0.2C19.2,6.5,18.8,6.4,18.7,6.7z"/>
		<path class="st3" d="M20.6,4.8c-0.1-0.2,0.2-0.2,0.2-0.2C20.9,4.7,20.7,4.8,20.6,4.8z"/>
		<path class="st3" d="M15.5,4.9c-0.1-0.1-0.1-0.2-0.1-0.3c0.1,0,0.4,0.5,0.4,0.1c0.2,0,0,0.2,0.1,0.3C15.8,5,15.6,4.8,15.5,4.9z"/>
		<path class="st3" d="M17.3,7.6c-0.1-0.3,0.3-0.1,0.4-0.2c0,0.1,0,0.2,0.1,0.2c0.1-0.3,0.2,0.1,0.4,0.1c0,0-0.1-0.2,0-0.2
			c0.1-0.1,0.2,0,0.3,0.2c-0.3,0-0.2,0-0.4,0.3l-0.1-0.2c-0.1,0.1-0.2,0.1-0.2,0.1c0.1,0.2,0.2,0.2,0.2,0.4c0.1,0.2,0.2-0.2,0.2,0.1
			c-0.1,0-0.2-0.1-0.4-0.1c0.1-0.2-0.1-0.3-0.3-0.5c0.2,0.1,0.1-0.1,0.2-0.1C17.5,7.4,17.4,7.6,17.3,7.6z"/>
		<path class="st3" d="M15.6,4.5c0.2,0,0.2,0.1,0.3-0.1C16,4.5,16,4.6,16.1,4.5C16.1,4.6,15.7,4.7,15.6,4.5z"/>
		<path class="st3" d="M18.2,7.4c0-0.3,0.3,0,0.4,0.1c0-0.1-0.1-0.2,0-0.2C18.9,7.9,18.4,7.4,18.2,7.4z"/>
		<path class="st3" d="M13,8.8c0.1-0.1,0.3-0.1,0.5,0C13.4,8.9,13.1,8.8,13,8.8z"/>
		<path class="st3" d="M12.4,3.1C12.3,3,12.5,3,12.6,2.9c0,0.1,0.1,0.3,0.2,0.4C12.7,3.3,12.5,3.1,12.4,3.1z"/>
		<path class="st3" d="M12.3,2.5c-0.1-0.2-0.1-0.5,0.1-0.3C12.5,2.3,12.4,2.4,12.3,2.5z"/>
		<path class="st3" d="M13,2.7c0-0.2,0.2-0.6,0.4-0.4c0,0.2-0.1,0.1,0.1,0.3C13.4,2.5,13.2,2.6,13,2.7z"/>
		<path class="st3" d="M11.1,2.6c-0.3-0.3,0.5-0.8,0.7-0.2c-0.1,0-0.1-0.1-0.2-0.2C11.6,2.4,11.2,2.3,11.1,2.6z"/>
		<path class="st3" d="M16.1,0.2C16,0.1,16.3,0.1,16.3,0C16.4,0.2,16.3,0.3,16.1,0.2z"/>
		<path class="st3" d="M13,8.3c-0.1-0.2,0.1-0.1,0.2-0.1c0,0,0,0.1,0,0.1c0-0.1,0.1,0,0.2,0c0,0,0-0.1,0-0.1c0-0.1,0.1,0,0.2,0.1
			c-0.1,0-0.1,0-0.2,0.1l-0.1-0.1c0,0-0.1,0-0.1,0c0.1,0.1,0.1,0.1,0.1,0.2c0,0.1,0.1-0.1,0.1,0.1c-0.1,0-0.1,0-0.2,0
			c0.1-0.1,0-0.1-0.1-0.2c0.1,0,0,0,0.1-0.1C13.1,8.2,13,8.3,13,8.3z"/>
		<path class="st3" d="M13.4,8.3c0-0.2,0.1,0,0.2,0.1c0,0,0-0.1,0-0.1C13.7,8.5,13.5,8.2,13.4,8.3z"/>
		<path class="st3" d="M9.9,16.1c-0.1,0-0.2,0.2-0.3,0c0.3-0.1,0.1-0.5-0.1-0.6c0-0.1,0-0.1,0-0.3C9.7,15.4,9.7,15.8,9.9,16.1z"/>
		<path class="st3" d="M10.1,14.9c0.1,0.2,0.4,0.4,0.3,0.5C10.3,15.4,10.2,15.1,10.1,14.9c0,0,0,0-0.1-0.1c0.3,0,0.3-0.3,0.6-0.4
			c0,0.1,0,0.3-0.2,0.2c0.3,0.2,0,0.3,0,0.6l-0.2-0.4L10.1,14.9z"/>
		<path class="st3" d="M9.8,10.6c0.2,0.4,0.3,0.2,0.4,0.2C10.2,11.1,9.5,10.8,9.8,10.6z"/>
		<path class="st3" d="M13.9,14.3c0,0.1-0.4,0.2-0.1,0C13.8,14.3,13.8,14.3,13.9,14.3z"/>
		<path class="st3" d="M14,13.9c-0.1,0.1-0.1,0.2-0.2,0.3c0-0.1-0.1-0.1-0.2-0.2c0.1-0.1,0.2-0.1,0.2,0c0,0,0,0,0,0
			c0-0.1,0-0.1-0.1-0.2c0,0,0.1,0,0.1,0c0,0,0,0,0,0C14,13.7,13.9,13.8,14,13.9z"/>
		<path class="st3" d="M14.2,14.3c0-0.4,0.2-0.7,0.5-0.9c0,0,0-0.1-0.1-0.1c0.1,0,0.1,0,0.2,0.2c0.1-0.1,0.1-0.1,0.2-0.1
			c0,0,0-0.1,0-0.2c0.5-0.2,0.9-0.5,1.2-0.9c0,0.2,0.1,0,0.2,0.2c0,0,0-0.1,0-0.1c-0.1-0.1-0.1,0-0.2-0.1c0.2,0,0.2-0.1,0.4,0.1
			c0,0.2-0.3-0.1-0.1,0.2c-0.7,0.4-1.2,0.7-2,1.1c-0.1,0,0,0.1,0,0.2c-0.1-0.1-0.1,0.1-0.2,0c0,0.1,0,0.2,0,0.2
			C14.4,14.2,14.2,14.2,14.2,14.3z"/>
		<path class="st3" d="M11.4,15.3c-0.1-0.1,0.1-0.1,0.1-0.2c0,0-0.1,0-0.1,0c0-0.3,0.3-0.2,0.4-0.4c0.1,0.2,0.5,0,0.4-0.2
			c0-0.1,0.1,0.1,0.1,0.1c0-0.1,0-0.2,0-0.2c0,0.1,0,0.1,0.1,0.1c0-0.1,0.2,0.1,0.3,0.1c0-0.1,0-0.1,0.1-0.1c0,0.1,0.1,0.1,0.2,0
			c-0.1,0.2,0,0.3-0.1,0.4c0,0,0-0.1,0-0.1c-0.1-0.1-0.2,0-0.3,0c-0.1,0-0.1-0.1-0.1-0.2c0,0.1-0.2,0.1-0.2,0.3c-0.1,0-0.1,0-0.2,0
			c-0.1-0.1,0.1,0,0.1-0.1c0,0,0-0.1,0-0.1C12,14.9,11.7,15.1,11.4,15.3z"/>
		<path class="st3" d="M12.4,16.4c-0.1-0.1-0.2,0-0.3-0.1c0.1,0,0.2,0,0.3-0.1C12.4,16.3,12.4,16.4,12.4,16.4z"/>
		<path class="st3" d="M21.3,13.6c-0.2,0.3-0.3,0.3-0.5,0.5c0-0.1,0-0.2,0-0.2c-0.1-0.1-0.1-0.1-0.2-0.2c0.4,0.1,0.5-0.2,0.6-0.4
			C21.2,13.4,21.1,13.8,21.3,13.6z"/>
		<path class="st3" d="M21.8,13.1c-0.2-0.1,0.2,0,0.3,0.2c-0.1,0-0.1,0-0.2,0C21.8,13.3,21.9,13.1,21.8,13.1z"/>
		<path class="st3" d="M17.3,8.2c0.1-0.2,0.1-0.3,0.2-0.5c0.1,0.1,0.1,0.1,0.2,0.1c0.1,0.2-0.2,0.1,0,0.3C17.5,8,17.6,8.1,17.3,8.2z
			"/>
		<path class="st3" d="M9.7,8.6c0-0.2,0.1-0.4,0.3,0C9.9,8.7,9.8,8.5,9.7,8.6z"/>
		<path class="st3" d="M23.7,17.1c0.2-0.3,0.7-0.2,1,0C24.6,17.4,24,17,23.7,17.1z"/>
		<path class="st3" d="M21.7,13.6c-0.2-0.4,0.4,0.1,0.2-0.3c0.1,0,0.1,0.2,0.2,0.3C21.9,13.6,21.8,13.6,21.7,13.6z"/>
		<path class="st3" d="M23.4,16.1c-0.1-0.2,0.1-0.1,0.2-0.2c0,0.1,0.1,0.3,0.2,0.4C23.6,16.3,23.5,16.1,23.4,16.1z"/>
		<path class="st3" d="M23.3,15.5c-0.1-0.2-0.1-0.5,0.1-0.3C23.5,15.3,23.4,15.4,23.3,15.5z"/>
		<path class="st3" d="M24,15.7c0-0.2,0.2-0.6,0.4-0.4c0,0.2-0.1,0.1,0.1,0.3C24.3,15.5,24.2,15.6,24,15.7z"/>
		<path class="st3" d="M11.9,18.7c-0.3-0.3,0.5-0.8,0.7-0.2c-0.1,0-0.1-0.1-0.2-0.2C12.3,18.6,11.9,18.4,11.9,18.7z"/>
		<path class="st3" d="M13.7,16.8c-0.1-0.2,0.2-0.2,0.2-0.2C14,16.8,13.9,16.8,13.7,16.8z"/>
		<path class="st3" d="M22,13.4c-0.1-0.1-0.1-0.2-0.1-0.3c0.1,0,0.4,0.5,0.4,0.1c0.2,0,0,0.2,0.1,0.3C22.2,13.4,22.1,13.3,22,13.4z"
			/>
		<path class="st3" d="M23.7,16.1C23.6,15.8,24,16,24.1,16c0,0.1,0,0.2,0.1,0.2c0.1-0.3,0.2,0.1,0.4,0.1c0,0-0.1-0.2,0-0.2
			c0.1-0.1,0.2,0,0.3,0.2c-0.3,0-0.2,0-0.4,0.3l-0.1-0.2c-0.1,0.1-0.2,0.1-0.2,0.1c0.1,0.2,0.2,0.2,0.2,0.4c0.1,0.2,0.2-0.2,0.3,0.1
			c-0.1,0-0.2,0-0.4-0.1c0.1-0.2-0.1-0.3-0.3-0.5c0.2,0.1,0.1-0.1,0.2-0.1C24,15.8,23.9,16,23.7,16.1z"/>
		<path class="st3" d="M22.1,12.9c0.2,0,0.2,0.1,0.3-0.1c0.1,0.1,0.1,0.2,0.2,0.2C22.6,13.1,22.2,13.2,22.1,12.9z"/>
		<path class="st3" d="M24.7,15.9c0-0.3,0.3,0,0.4,0.1c0-0.1-0.1-0.2,0-0.2C25.3,16.4,24.8,15.9,24.7,15.9z"/>
		<path class="st3" d="M17.3,8.1c-0.2,0.3-0.3,0.3-0.5,0.5c0-0.1,0-0.2,0-0.2c-0.1-0.1-0.1-0.1-0.2-0.2c0.4,0.1,0.5-0.2,0.6-0.4
			C17.2,7.9,17,8.3,17.3,8.1z"/>
		<path class="st3" d="M17.7,7.6c-0.2-0.1,0.2,0,0.3,0.2c-0.1,0-0.1,0-0.2,0C17.7,7.8,17.9,7.6,17.7,7.6z"/>
		<path class="st3" d="M21,11.3C21,11.3,21,11.2,21,11.3l-0.1-0.2c0.3,0.3,0.5-0.3,0.7,0.2c-0.1,0.1-0.1-0.1-0.2-0.2
			C21.2,11.2,21.1,11.3,21,11.3z"/>
		<path class="st3" d="M17,9c0.1-0.1,0.1,0.1,0.2,0c0,0.1,0,0.3-0.1,0.3c0,0.1,0.1,0.1,0.1,0.2c-0.1,0-0.1,0-0.2,0.1
			c0,0,0.1,0.1,0.1,0c0,0.1-0.1,0.1,0,0.3c-0.1,0-0.1-0.2-0.1-0.2c-0.1,0-0.1-0.1-0.2-0.1c0-0.1,0-0.1,0-0.2C17,9.3,17.1,9.3,17,9z"
			/>
		<path class="st3" d="M14.5,16.6C14.4,16.7,14.4,16.6,14.5,16.6c-0.1-0.1-0.1,0-0.1-0.1C14.4,16.5,14.5,16.6,14.5,16.6
			C14.7,16.7,14.4,16.6,14.5,16.6z"/>
		<path class="st3" d="M14.1,15.7c0-0.1,0-0.2,0-0.2c0,0.2,0.1-0.1,0.2-0.1c0,0,0-0.2-0.1-0.1c0.1,0,0.4-0.2,0.6-0.1
			c-0.1-0.2,0.2,0,0.1-0.2c0,0,0.1,0.1,0.1,0.1c0-0.2,0.2,0,0.3-0.1c0,0,0.1,0.3,0.1,0.1c0.1,0.1-0.1,0.1-0.2,0
			c-0.1,0.1-0.1,0.1-0.2,0.1c0,0,0,0.1,0,0.2c-0.1,0-0.2,0-0.2,0.1c-0.2-0.4-0.3,0.2-0.5-0.1C14.4,15.5,14.3,15.6,14.1,15.7z"/>
		<path class="st3" d="M13.1,13.1c0-0.1,0-0.1,0.1-0.1c0,0,0,0,0,0c0-0.1-0.1-0.1-0.1-0.2c0.1-0.1,0.1-0.2,0.1-0.3
			c0.1,0.2,0.5-0.1,0.6,0.2c0,0,0-0.1,0.1-0.1c0.1,0.1,0.2,0.1,0.3,0.1c0.2,0.2,0.5,0.1,0.6,0.3c-0.1,0-0.1,0.1-0.1,0.1
			c-0.3,0.3-1.1,0.2-1.1,0.8c0.1,0,0-0.2,0.2-0.3c0,0.2,0,0.3,0,0.5c0.1,0.1,0.1-0.1,0.2,0c0,0.1-0.1,0-0.1,0.1
			c-0.1-0.3-0.3-0.1-0.3,0c0-0.1,0-0.1,0-0.2c0.1-0.1,0.2,0,0.2-0.1c-0.2-0.2-0.3,0-0.4,0.1c0.1-0.1,0.1-0.5,0.1-0.7
			c0.1,0,0.2-0.1,0.1-0.2c0,0,0.1,0.1,0.2,0c0-0.1-0.1-0.2,0.1-0.2c0-0.1,0-0.1,0-0.2c-0.1-0.1-0.2,0.2-0.3,0c-0.1,0,0,0.1,0,0.1
			c0,0.1,0.1-0.1,0.1,0.1c0,0.1-0.1,0.1-0.1-0.1C13.1,12.9,13.2,13,13.1,13.1z"/>
		<path class="st3" d="M14.5,15.9C14.5,15.8,14.6,15.9,14.5,15.9c0.2,0,0.2,0,0.2,0.1C14.6,15.9,14.6,15.8,14.5,15.9z"/>
		<path class="st3" d="M15.3,15.3c0.1-0.1,0.2-0.1,0.3-0.1C15.5,15.2,15.4,15.4,15.3,15.3z"/>
		<path class="st3" d="M14.7,13.7c0.2,0.3-0.2,0.1-0.4,0.1C14.5,13.8,14.6,13.7,14.7,13.7z"/>
		<path class="st3" d="M16.7,10.9c0.1,0.1-0.1,0.1,0.1,0.3c-0.1-0.1-0.2,0-0.4-0.2c-0.1,0.2-0.1,0.4,0.1,0.7
			c-0.1,0.5-0.6,0.4-0.9,0.2c-0.4-0.5-0.5-1-0.4-1.1c0.2-0.3,0.9,0.1,1-0.2c0.1,0,0.4-0.1,0.6-0.1c0.1,0.2,0.1,0.1,0.2,0.3
			c-0.1,0.1-0.3,0.1-0.1,0.3C16.8,11,16.7,11,16.7,10.9z"/>
	</g>
	<g transform="translate(0 12.806)">
		<path class="st3" d="M54.2,59.2c-0.1,0-0.3,0-0.3-0.1c0.2-0.1,0.2-0.2,0.4-0.3l0.1,0.2C54.1,59,54.1,59.1,54.2,59.2z"/>
		<path class="st3" d="M50,51.5c-0.4,0.3-0.3-0.2-0.4-0.3C49.9,51,49.9,51.3,50,51.5z"/>
		<path class="st3" d="M4.5,30.9c-0.2,0.1-0.7-0.2-0.2-0.4C4.2,30.8,4.3,30.7,4.5,30.9z"/>
		<path class="st3" d="M4,30.3c-0.7-0.3-0.5-0.3-0.9-1C3.6,29.4,3.7,29.9,4,30.3z"/>
		<path class="st3" d="M2.5,28.8c0.3-0.4-0.1-0.7-0.3-1.1C2.6,27.8,3.2,28.2,2.5,28.8z"/>
		<path class="st3" d="M0.4,27.4c-0.1,0-0.2-0.1-0.2,0.1c-0.3,0.1-0.1-0.3,0.2-0.4c0.1,0,0.2,0.1,0.2,0.2
			C0.4,27.3,0.4,27.4,0.4,27.4z"/>
		<path class="st3" d="M3.2,29.2c-0.1,0-0.7-0.3-0.3-0.5C3,29,3.1,28.9,3.2,29.2z"/>
		<path class="st3" d="M9.1,16.5c-0.1-0.1,0-0.3,0.1-0.3C9.4,16.4,9.2,16.4,9.1,16.5z"/>
		<path class="st3" d="M12.9,14.1C12.8,14.1,12.9,14,12.9,14.1c0-0.3,0.2-0.3,0.4-0.3C13.1,13.9,13,14,12.9,14.1z"/>
		<path class="st3" d="M13.2,14.7c0-0.1,0-0.2,0-0.4C13.4,14.5,13.3,14.6,13.2,14.7z"/>
		<path class="st3" d="M13.5,14.1c0,0-0.1,0-0.1,0c0-0.1,0.1-0.2,0-0.3c0.1,0,0.1,0.1,0,0.1c0.1,0.1,0.1,0.1,0.2,0.2
			c-0.1,0.1-0.1,0.2-0.1,0.3c-0.1,0-0.1-0.1-0.2-0.2C13.3,14,13.5,14.2,13.5,14.1z"/>
		<path class="st3" d="M13.3,13.6c-0.1-0.2,0.1-0.1,0.1-0.2c0.1-0.1-0.2-0.2,0.1-0.1C13.5,13.5,13.4,13.5,13.3,13.6z"/>
		<path class="st3" d="M14.1,13.2c-0.1,0,0.1-0.2,0.2-0.3C14.3,13,14.2,13.1,14.1,13.2z"/>
		<path class="st3" d="M14.8,13.2c0.1,0.1,0.1,0,0.1-0.1C15,13.3,14.8,13.4,14.8,13.2z"/>
		<path class="st3" d="M15.4,13.8c0-0.1,0.1,0,0.1-0.1C15.7,13.8,15.5,13.8,15.4,13.8z"/>
		<path class="st3" d="M11.7,16.3L11.7,16.3c-0.1-0.2,0-0.2,0.1-0.2C11.8,16.2,11.8,16.3,11.7,16.3z"/>
		<path class="st3" d="M11.7,14.7c0-0.1,0-0.1,0-0.1C11.8,14.6,11.8,14.6,11.7,14.7C11.9,14.7,11.8,14.7,11.7,14.7z"/>
		<path class="st3" d="M11.7,14.5c0-0.1,0.1,0,0.1-0.1C11.9,14.5,11.8,14.5,11.7,14.5C11.7,14.5,11.7,14.5,11.7,14.5z"/>
		<path class="st3" d="M21.4,13.7c0.1-0.2,0.1-0.3,0.2-0.5c0.1,0.1,0.1,0.1,0.2,0.1c0.1,0.2-0.2,0.1,0,0.3
			C21.6,13.5,21.6,13.6,21.4,13.7z"/>
		<path class="st3" d="M14.1,16.6c-0.1-0.2,0.1-0.1,0.1-0.2c-0.1-0.2-0.1,0-0.2,0c-0.1-0.3,0.3,0,0.1-0.3c0.1,0,0.1,0,0.2-0.1
			c0.1,0.1,0,0.1-0.1,0.1c0.1,0.1,0,0.2,0.2,0.3C14.3,16.4,14.2,16.5,14.1,16.6z"/>
		<path class="st3" d="M14.9,13.9c0-0.1,0-0.1-0.1-0.2c0,0,0-0.1,0.1-0.1C14.9,13.7,15,13.9,14.9,13.9z"/>
		<path class="st3" d="M7.5,16.5c0-0.2,0.1-0.4,0.3,0C7.7,16.7,7.6,16.4,7.5,16.5z"/>
		<path class="st3" d="M7.8,14.2C7.6,14,8,13.8,8.1,13.9c0.1-0.1-0.1-0.3-0.1-0.5c0.2,0.1,0.4,0.3,0.6,0.5c0,0.2-0.4,0.3-0.4,0.1
			C8,14.1,8,14.2,7.8,14.2z"/>
		<path class="st3" d="M16.5,14.3c0-0.1,0.1-0.1,0.2-0.1C16.7,14.3,16.6,14.3,16.5,14.3z"/>
		<path class="st3" d="M17.6,14.8c0-0.1,0-0.2,0.1-0.2C17.8,14.8,17.7,14.8,17.6,14.8z"/>
		<path class="st3" d="M18.6,10.7c-0.1-0.2-0.2-0.5-0.1-0.6c0.1,0.2,0.2,0.3,0.3,0.5C18.8,10.6,18.7,10.6,18.6,10.7z"/>
		<path class="st3" d="M9,24.8c-0.2-0.4,0.4,0.1,0.2-0.3c0.1,0,0.1,0.2,0.2,0.3C9.3,24.8,9.1,24.8,9,24.8z"/>
		<path class="st3" d="M17.1,22.4c-0.1-0.2-0.1-0.3,0.1-0.4C17.3,22.2,17.2,22.3,17.1,22.4z"/>
		<path class="st3" d="M19.5,20.6c-0.1-0.3,0.4-0.2,0.5-0.3c0.1,0.2-0.3,0.1,0,0.3C19.7,20.4,19.7,20.6,19.5,20.6z"/>
		<path class="st3" d="M9.4,24.6c-0.1-0.1-0.1-0.2-0.1-0.3c0.1,0,0.4,0.5,0.4,0.1c0.2,0,0,0.2,0,0.3C9.6,24.7,9.5,24.5,9.4,24.6z"/>
		<path class="st3" d="M9.5,24.2c0.2,0,0.2,0.1,0.3-0.1c0.1,0.1,0.1,0.2,0.2,0.2C9.9,24.3,9.6,24.4,9.5,24.2z"/>
		<path class="st3" d="M13.5,19.7c0-0.1,0-0.2,0.1-0.2c0.1,0.1,0.1,0.1,0.2,0.3l-0.1,0.1C13.6,19.7,13.6,19.6,13.5,19.7z"/>
		<path class="st3" d="M18.8,16.5c-0.2-0.3,0.1-0.2,0.2-0.3C19.1,16.4,18.9,16.4,18.8,16.5z"/>
		<path class="st3" d="M25.6,16.7c0,0,0,0.2,0.1,0.2c-0.2,0.2-0.7-0.2-0.8,0.2c0.1,0.2,0.2-0.1,0.3,0c0,0.2-0.2,0-0.3,0.3
			c-0.2-0.2-0.1-0.2-0.3-0.4c0.3-0.3,0.3-0.1,0.7-0.5C25.4,16.9,25.6,16.6,25.6,16.7c-0.1-0.3,0.1-0.4,0.3-0.2
			c0.1-0.1-0.2-0.2-0.1-0.3c0.2,0.1,0.4-0.4,0.5,0c0,0,0.1,0,0.1,0c0.1-0.1-0.3-0.3-0.1-0.4c0,0.3,0.2,0.1,0.3,0.2
			c0,0.6-0.7,0.6-0.8,0.9C25.8,16.9,25.7,16.8,25.6,16.7z"/>
		<path class="st3" d="M11.2,13.7c0.2-0.3,0.7-0.2,1,0C12.1,13.9,11.5,13.6,11.2,13.7z"/>
		<path class="st3" d="M9.1,10.2c-0.2-0.4,0.4,0.1,0.2-0.3c0.1,0,0.1,0.2,0.2,0.3C9.4,10.1,9.2,10.1,9.1,10.2z"/>
		<path class="st3" d="M10.8,12.7c-0.1-0.2,0.1-0.1,0.2-0.2c0,0.1,0.1,0.3,0.2,0.4C11.1,12.9,11,12.7,10.8,12.7z"/>
		<path class="st3" d="M10.8,12c-0.1-0.2-0.1-0.5,0.1-0.3C10.9,11.9,10.9,12,10.8,12z"/>
		<path class="st3" d="M11.5,12.3c0-0.2,0.2-0.6,0.4-0.4c0,0.2-0.1,0.1,0.1,0.3C11.8,12,11.6,12.2,11.5,12.3z"/>
		<path class="st3" d="M12.7,11.7c-0.3-0.3,0.5-0.8,0.7-0.2c-0.1,0-0.1-0.1-0.2-0.2C13.1,11.6,12.7,11.4,12.7,11.7z"/>
		<path class="st3" d="M14.5,9.8c-0.1-0.2,0.2-0.2,0.2-0.2C14.8,9.8,14.7,9.8,14.5,9.8z"/>
		<path class="st3" d="M17.2,7.7c-0.1-0.2-0.1-0.3,0.1-0.4C17.4,7.5,17.3,7.6,17.2,7.7z"/>
		<path class="st3" d="M19.6,6c-0.1-0.3,0.4-0.2,0.5-0.3c0.1,0.2-0.3,0.1,0,0.3C19.8,5.7,19.8,5.9,19.6,6z"/>
		<path class="st3" d="M9.5,9.9C9.4,9.8,9.4,9.7,9.3,9.6c0.1,0,0.4,0.5,0.4,0.1c0.2,0,0,0.2,0,0.3C9.7,10,9.6,9.8,9.5,9.9z"/>
		<path class="st3" d="M11.2,12.6c-0.1-0.3,0.3-0.1,0.4-0.2c0,0.1,0,0.2,0.1,0.2c0.1-0.3,0.2,0.1,0.4,0.1c0,0-0.1-0.2,0-0.2
			c0.1-0.1,0.2,0,0.3,0.2c-0.3,0-0.2,0-0.4,0.3l-0.1-0.2c-0.1,0.1-0.2,0.1-0.2,0.1c0.1,0.2,0.2,0.2,0.2,0.4c0.1,0.2,0.2-0.2,0.3,0.1
			c-0.1,0-0.2-0.1-0.4-0.1c0.1-0.2-0.1-0.3-0.3-0.5c0.2,0.1,0.1-0.1,0.2-0.1C11.5,12.4,11.3,12.6,11.2,12.6z"/>
		<path class="st3" d="M9.5,9.5c0.2,0,0.2,0.1,0.3-0.1C9.9,9.5,10,9.6,10,9.6C10,9.6,9.7,9.7,9.5,9.5z"/>
		<path class="st3" d="M12.1,12.5c0-0.3,0.3,0,0.4,0.1c0-0.1-0.1-0.2,0-0.2C12.8,12.9,12.3,12.4,12.1,12.5z"/>
		<path class="st3" d="M14.6,21c0.1-0.1,0.3-0.1,0.5,0C15.1,21.2,14.8,21,14.6,21z"/>
		<path class="st3" d="M13.5,19.2c-0.1-0.2,0.2,0.1,0.1-0.2c0,0,0.1,0.1,0.1,0.1C13.7,19.2,13.6,19.2,13.5,19.2z"/>
		<path class="st3" d="M14.4,20.5C14.4,20.4,14.5,20.5,14.4,20.5c0.1,0,0.1,0,0.2,0.1C14.6,20.6,14.5,20.5,14.4,20.5z"/>
		<path class="st3" d="M14.4,20.2c0-0.1,0-0.2,0.1-0.1C14.5,20.1,14.5,20.2,14.4,20.2z"/>
		<path class="st3" d="M14.8,20.3c0-0.1,0.1-0.3,0.2-0.2c0,0.1-0.1,0.1,0,0.2C14.9,20.2,14.9,20.3,14.8,20.3z"/>
		<path class="st3" d="M15.4,20c-0.2-0.2,0.3-0.4,0.4-0.1c0,0-0.1-0.1-0.1-0.1C15.6,19.9,15.4,19.9,15.4,20z"/>
		<path class="st3" d="M13.7,19.1c0,0-0.1-0.1-0.1-0.2c0.1,0,0.2,0.2,0.2,0.1c0.1,0,0,0.1,0,0.1C13.9,19.1,13.8,19.1,13.7,19.1z"/>
		<path class="st3" d="M14.6,20.5c-0.1-0.2,0.1-0.1,0.2-0.1c0,0,0,0.1,0,0.1c0-0.1,0.1,0.1,0.2,0c0,0,0-0.1,0-0.1
			c0.1-0.1,0.1,0,0.2,0.1c-0.1,0-0.1,0-0.2,0.1L15,20.6c0,0-0.1,0-0.1,0c0.1,0.1,0.1,0.1,0.1,0.2c0,0.1,0.1-0.1,0.1,0.1
			c-0.1,0-0.1,0-0.2,0c0.1-0.1,0-0.2-0.1-0.3c0.1,0,0.1,0,0.1-0.1C14.8,20.4,14.7,20.5,14.6,20.5z"/>
		<path class="st3" d="M13.8,18.9c0.1,0,0.1,0,0.1,0c0,0.1,0.1,0.1,0.1,0.1C14,18.9,13.8,19,13.8,18.9z"/>
		<path class="st3" d="M15.1,20.4c0-0.2,0.2,0,0.2,0.1c0,0,0-0.1,0-0.1C15.5,20.7,15.2,20.4,15.1,20.4z"/>
		<path class="st3" d="M11.5,24.7c-0.1-0.2,0.2-0.2,0.2-0.2C11.8,24.7,11.7,24.7,11.5,24.7z"/>
		<path class="st3" d="M14.2,22.6c-0.1-0.2-0.1-0.3,0.1-0.4C14.4,22.5,14.3,22.5,14.2,22.6z"/>
		<path class="st3" d="M16.6,20.9c-0.1-0.3,0.4-0.2,0.5-0.3c0.1,0.2-0.3,0.1,0,0.3C16.8,20.7,16.8,20.9,16.6,20.9z"/>
		<path class="st3" d="M22.6,11.2c0-0.1-0.1-0.3,0-0.3c0.2,0.1,0.2,0.3,0.3,0.5C22.8,11.5,22.8,11.1,22.6,11.2z"/>
		<path class="st3" d="M25.3,9.6c-0.1-0.2,0.2-0.2,0.2-0.2C25.7,9.7,25.4,9.5,25.3,9.6z"/>
		<path class="st3" d="M23.3,5.8c-0.2-0.2,0.3-0.3,0.4,0C23.5,5.9,23.4,5.7,23.3,5.8z"/>
		<path class="st3" d="M15.7,2.7c0-0.2,0-0.3,0.2-0.4c0,0,0,0,0.1,0C16,2.5,15.8,2.6,15.7,2.7z"/>
		<path class="st3" d="M16.3,2.3c-0.1-0.3,0.4-0.2,0.4-0.5C16.8,2.1,16.4,2.3,16.3,2.3z"/>
		<path class="st3" d="M17.7,2.3C17.5,2,17.8,2,17.9,1.8C18.1,2,17.7,2.1,18,2.2C18,2.4,17.7,2.2,17.7,2.3z"/>
		<path class="st3" d="M18.2,1.6c0.2,0.1,0.1,0.2,0.1,0.3c-0.1,0-0.2,0.1-0.3-0.1c0.1,0,0.1,0,0.2,0C18.2,1.7,18.1,1.6,18.2,1.6z"/>
		<path class="st3" d="M18.1,1.5c0-0.3,0.4,0.1,0.4-0.3C18.7,1.6,18.3,1.7,18.1,1.5z"/>
		<path class="st3" d="M18.3,18.5c-0.2-0.3,0.1-0.2,0.2-0.1C18.5,18.6,18.3,18.4,18.3,18.5z"/>
		<path class="st3" d="M20.7,13.3c-0.2-0.2,0-0.5,0.2-0.1L20.7,13.3z"/>
		<path class="st3" d="M21.4,12.8c0-0.1,0.1-0.3,0.2-0.3C21.8,12.7,21.5,12.6,21.4,12.8z"/>
		<path class="st3" d="M21.4,11.6c-0.3,0,0.1-0.5,0.2-0.1C21.6,11.6,21.3,11.3,21.4,11.6z"/>
		<path class="st3" d="M17.6,16.4c-0.1-0.2,0.4-0.1,0.5-0.2C18.1,16.5,17.7,16.3,17.6,16.4z"/>
		<path class="st3" d="M22.2,18.3c0.2-0.3,0.7-0.2,1,0C23.1,18.6,22.5,18.2,22.2,18.3z"/>
		<path class="st3" d="M20.2,14.8c-0.2-0.4,0.4,0.1,0.2-0.3c0.1,0,0.1,0.2,0.2,0.3C20.4,14.8,20.3,14.8,20.2,14.8z"/>
		<path class="st3" d="M21.9,17.3c-0.1-0.2,0.1-0.1,0.2-0.2c0,0.1,0.1,0.3,0.2,0.4C22.1,17.5,22,17.3,21.9,17.3z"/>
		<path class="st3" d="M21.8,16.7c-0.1-0.2-0.1-0.5,0.1-0.3C22,16.5,21.9,16.6,21.8,16.7z"/>
		<path class="st3" d="M22.5,16.9c0-0.2,0.2-0.6,0.4-0.4c0,0.2-0.1,0.1,0.1,0.3C22.8,16.7,22.7,16.8,22.5,16.9z"/>
		<path class="st3" d="M23.7,16.4c-0.3-0.3,0.5-0.8,0.7-0.2c-0.1,0-0.1-0.1-0.2-0.2C24.2,16.2,23.8,16,23.7,16.4z"/>
		<path class="st3" d="M20.5,14.6c-0.1-0.1-0.1-0.2-0.1-0.3c0.1,0,0.4,0.5,0.4,0.1c0.2,0,0,0.2,0.1,0.3
			C20.7,14.6,20.6,14.5,20.5,14.6z"/>
		<path class="st3" d="M22.2,17.3c-0.1-0.3,0.3-0.1,0.4-0.2c0,0.1,0,0.2,0.1,0.2c0.1-0.3,0.2,0.1,0.4,0.1c0,0-0.1-0.2,0-0.2
			c0.1-0.1,0.2,0,0.3,0.2c-0.3,0-0.2,0-0.4,0.2l-0.1-0.2c-0.1,0.1-0.2,0.1-0.2,0.1c0.1,0.2,0.2,0.2,0.2,0.4c0.1,0.2,0.2-0.2,0.3,0.1
			c-0.1,0-0.2,0-0.4-0.1c0.1-0.2-0.1-0.3-0.3-0.5c0.2,0.1,0.1-0.1,0.2-0.1C22.5,17,22.4,17.2,22.2,17.3z"/>
		<path class="st3" d="M20.6,14.1c0.2,0,0.2,0.1,0.3-0.1c0.1,0.1,0.1,0.2,0.2,0.2C21.1,14.2,20.7,14.4,20.6,14.1z"/>
		<path class="st3" d="M23.2,17.1c0-0.3,0.3,0,0.4,0.1c0-0.1-0.1-0.2,0-0.2C23.8,17.6,23.4,17.1,23.2,17.1z"/>
		<path class="st3" d="M17.2,8.7c0.2-0.3,0.7-0.2,1,0C18.1,8.9,17.5,8.6,17.2,8.7z"/>
		<path class="st3" d="M15.2,5.1c-0.2-0.4,0.4,0.1,0.2-0.3c0.1,0,0.1,0.2,0.2,0.3C15.4,5.1,15.3,5.1,15.2,5.1z"/>
		<path class="st3" d="M16.9,7.7C16.8,7.5,17,7.5,17,7.5c0,0.1,0.1,0.3,0.2,0.4C17.1,7.8,17,7.6,16.9,7.7z"/>
		<path class="st3" d="M16.8,7c-0.1-0.2-0.1-0.5,0.1-0.3C17,6.8,16.9,6.9,16.8,7z"/>
		<path class="st3" d="M17.5,7.3c0-0.2,0.2-0.6,0.4-0.4c0,0.2-0.1,0.1,0.1,0.3C17.9,7,17.7,7.1,17.5,7.3z"/>
		<path class="st3" d="M18.7,6.7c-0.3-0.3,0.5-0.8,0.7-0.2c-0.1,0-0.1-0.1-0.2-0.2C19.2,6.5,18.8,6.4,18.7,6.7z"/>
		<path class="st3" d="M20.6,4.8c-0.1-0.2,0.2-0.2,0.2-0.2C20.9,4.7,20.7,4.8,20.6,4.8z"/>
		<path class="st3" d="M15.5,4.9c-0.1-0.1-0.1-0.2-0.1-0.3c0.1,0,0.4,0.5,0.4,0.1c0.2,0,0,0.2,0,0.3C15.8,5,15.6,4.8,15.5,4.9z"/>
		<path class="st3" d="M17.3,7.6c-0.1-0.3,0.3-0.1,0.4-0.2c0,0.1,0,0.2,0.1,0.2c0.1-0.3,0.2,0.1,0.4,0.1c0,0-0.1-0.2,0-0.2
			c0.1-0.1,0.2,0,0.3,0.2c-0.3,0-0.2,0-0.4,0.3l-0.1-0.2c-0.1,0.1-0.2,0.1-0.2,0.1c0.1,0.2,0.2,0.2,0.2,0.4c0.1,0.2,0.2-0.2,0.3,0.1
			c-0.1,0-0.2-0.1-0.4-0.1c0.1-0.2-0.1-0.3-0.3-0.5c0.2,0.1,0.1-0.1,0.2-0.1C17.5,7.4,17.4,7.6,17.3,7.6z"/>
		<path class="st3" d="M15.6,4.5c0.2,0,0.2,0.1,0.3-0.1C16,4.5,16,4.6,16.1,4.5C16.1,4.6,15.7,4.7,15.6,4.5z"/>
		<path class="st3" d="M18.2,7.4c0-0.3,0.3,0,0.4,0.1c0-0.1-0.1-0.2,0-0.2C18.9,7.9,18.4,7.4,18.2,7.4z"/>
		<path class="st3" d="M13,8.8c0.1-0.1,0.3-0.1,0.5,0C13.4,8.9,13.1,8.8,13,8.8z"/>
		<path class="st3" d="M12.4,3.1C12.3,3,12.5,3,12.6,2.9c0,0.1,0.1,0.3,0.2,0.4C12.7,3.3,12.5,3.1,12.4,3.1z"/>
		<path class="st3" d="M12.3,2.5c-0.1-0.2-0.1-0.5,0.1-0.3C12.5,2.3,12.4,2.4,12.3,2.5z"/>
		<path class="st3" d="M13.1,2.7c0-0.2,0.2-0.6,0.4-0.4c0,0.2-0.1,0.1,0.1,0.3C13.4,2.5,13.2,2.6,13.1,2.7z"/>
		<path class="st3" d="M11.1,2.6c-0.3-0.3,0.5-0.8,0.7-0.2c-0.1,0-0.1-0.1-0.2-0.2C11.6,2.4,11.2,2.3,11.1,2.6z"/>
		<path class="st3" d="M16.1,0.2C16,0.1,16.3,0.1,16.3,0C16.4,0.2,16.3,0.3,16.1,0.2z"/>
		<path class="st3" d="M13,8.3c-0.1-0.2,0.1-0.1,0.2-0.1c0,0,0,0.1,0,0.1c0-0.1,0.1,0,0.2,0c0,0,0-0.1,0-0.1c0-0.1,0.1,0,0.2,0.1
			c-0.1,0-0.1,0-0.2,0.1l-0.1-0.1c0,0-0.1,0-0.1,0c0.1,0.1,0.1,0.1,0.1,0.2c0,0.1,0.1-0.1,0.1,0.1c-0.1,0-0.1,0-0.2,0
			C13.3,8.6,13.2,8.5,13,8.3c0.2,0.1,0.1,0.1,0.2,0C13.1,8.2,13,8.3,13,8.3z"/>
		<path class="st3" d="M13.4,8.3c0-0.2,0.1,0,0.2,0.1c0,0,0-0.1,0-0.1C13.7,8.5,13.5,8.2,13.4,8.3z"/>
		<path class="st3" d="M9.9,16.1c-0.1,0-0.2,0.2-0.3,0c0.3-0.1,0.1-0.5-0.1-0.6c0-0.1,0-0.1,0-0.3C9.7,15.4,9.7,15.8,9.9,16.1z"/>
		<path class="st3" d="M10.1,14.9c0.1,0.2,0.4,0.4,0.3,0.5C10.3,15.4,10.2,15.1,10.1,14.9c0,0,0,0-0.1-0.1c0.3,0,0.3-0.3,0.6-0.4
			c0,0.2,0,0.3-0.2,0.2c0.3,0.2,0,0.3,0,0.6c-0.1-0.1-0.1-0.2-0.2-0.4L10.1,14.9z"/>
		<path class="st3" d="M9.8,10.6c0.1,0.4,0.3,0.2,0.4,0.2C10.2,11.1,9.5,10.8,9.8,10.6z"/>
		<path class="st3" d="M13.9,14.3c0,0.1-0.4,0.2-0.1,0C13.8,14.3,13.8,14.3,13.9,14.3z"/>
		<path class="st3" d="M14,13.9c-0.1,0.1-0.1,0.2-0.2,0.3c0-0.1-0.1-0.1-0.2-0.2c0.1-0.1,0.2-0.1,0.2,0c0,0,0,0,0,0
			c0-0.1,0-0.1-0.1-0.2c0,0,0.1,0,0.1,0c0,0,0,0,0,0C14,13.7,13.9,13.8,14,13.9z"/>
		<path class="st3" d="M14.2,14.3c0-0.4,0.2-0.7,0.5-0.9c0,0,0-0.1-0.1-0.1c0.1,0,0.1,0,0.2,0.2c0.1-0.1,0.1-0.1,0.2-0.1
			c0,0,0-0.1,0-0.2c0.5-0.2,0.9-0.5,1.2-0.9c0,0.2,0.1,0,0.2,0.2c0,0,0-0.1,0-0.1c-0.1-0.1-0.1,0-0.2-0.1c0.2,0,0.2-0.1,0.4,0.1
			c0,0.2-0.3-0.1-0.1,0.2c-0.7,0.4-1.2,0.7-2,1.1c-0.1,0,0,0.1,0,0.2c-0.1-0.1-0.1,0.1-0.2,0c0,0.1,0,0.2,0,0.2
			C14.4,14.2,14.2,14.2,14.2,14.3z"/>
		<path class="st3" d="M11.4,15.3c-0.1-0.1,0.1-0.1,0.1-0.2c0,0-0.1,0-0.1,0c0-0.3,0.3-0.2,0.4-0.4c0.1,0.2,0.5,0,0.4-0.2
			c0-0.1,0.1,0.1,0.1,0.1c0-0.1,0-0.2,0-0.2c0,0.1,0,0.1,0.1,0.1c0-0.1,0.2,0.1,0.3,0.1c0-0.1,0-0.1,0.1-0.1c0,0.1,0.1,0.1,0.2,0
			c-0.1,0.2,0,0.3-0.1,0.4c0,0,0-0.1,0-0.1c-0.1-0.1-0.2,0-0.3,0c-0.1,0-0.1-0.1-0.1-0.2c0,0.1-0.2,0.1-0.2,0.3c-0.1,0-0.1,0-0.2,0
			c-0.1-0.1,0.1,0,0.1-0.1c0,0,0-0.1,0-0.1C12,14.9,11.7,15.1,11.4,15.3z"/>
		<path class="st3" d="M12.4,16.4c-0.1-0.1-0.2,0-0.3-0.1c0.1,0,0.2,0,0.3-0.1C12.4,16.3,12.4,16.4,12.4,16.4z"/>
		<path class="st3" d="M21.3,13.6c-0.2,0.3-0.3,0.3-0.5,0.5c0-0.1,0-0.2,0-0.2c-0.1-0.1-0.1-0.1-0.2-0.2c0.4,0.1,0.5-0.2,0.6-0.4
			C21.2,13.4,21.1,13.8,21.3,13.6z"/>
		<path class="st3" d="M21.8,13.1c-0.2-0.1,0.2,0,0.3,0.2c-0.1,0-0.1,0-0.2,0C21.8,13.3,21.9,13.1,21.8,13.1z"/>
		<path class="st3" d="M17.3,8.2c0.1-0.2,0.1-0.3,0.2-0.5c0.1,0.1,0.1,0.1,0.2,0.1c0.1,0.2-0.2,0.1,0,0.3C17.5,8,17.6,8.1,17.3,8.2z
			"/>
		<path class="st3" d="M9.7,8.6c0-0.2,0.1-0.4,0.3,0C9.9,8.7,9.8,8.5,9.7,8.6z"/>
		<path class="st3" d="M23.7,17.1c0.2-0.3,0.7-0.2,1,0C24.6,17.4,24,17,23.7,17.1z"/>
		<path class="st3" d="M21.7,13.6c-0.2-0.4,0.4,0.1,0.2-0.3c0.1,0,0.1,0.2,0.2,0.3C21.9,13.6,21.8,13.6,21.7,13.6z"/>
		<path class="st3" d="M23.4,16.1c-0.1-0.2,0.1-0.1,0.2-0.2c0,0.1,0.1,0.3,0.2,0.4C23.6,16.3,23.5,16.1,23.4,16.1z"/>
		<path class="st3" d="M23.3,15.5c-0.1-0.2-0.1-0.5,0.1-0.3C23.5,15.3,23.4,15.4,23.3,15.5z"/>
		<path class="st3" d="M24,15.7c0-0.2,0.2-0.6,0.4-0.4c0,0.2-0.1,0.1,0.1,0.3C24.3,15.5,24.2,15.6,24,15.7z"/>
		<path class="st3" d="M11.9,18.7c-0.3-0.3,0.5-0.8,0.7-0.2c-0.1,0-0.1-0.1-0.2-0.2C12.3,18.6,11.9,18.4,11.9,18.7z"/>
		<path class="st3" d="M13.7,16.8c-0.1-0.2,0.2-0.2,0.2-0.2C14,16.8,13.9,16.8,13.7,16.8z"/>
		<path class="st3" d="M22,13.4c-0.1-0.1-0.1-0.2-0.1-0.3c0.1,0,0.4,0.5,0.4,0.1c0.2,0,0,0.2,0,0.3C22.2,13.4,22.1,13.3,22,13.4z"/>
		<path class="st3" d="M23.7,16.1C23.6,15.8,24,16,24.1,16c0,0.1,0,0.2,0.1,0.2c0.1-0.3,0.2,0.1,0.4,0.1c0,0-0.1-0.2,0-0.2
			c0.1-0.1,0.2,0,0.3,0.2c-0.3,0-0.2,0-0.4,0.2l-0.1-0.2c-0.1,0.1-0.2,0.1-0.2,0.1c0.1,0.2,0.2,0.2,0.2,0.4c0.1,0.2,0.2-0.2,0.3,0.1
			c-0.1,0-0.2,0-0.4-0.1c0.1-0.2-0.1-0.3-0.3-0.5c0.2,0.1,0.1-0.1,0.2-0.1C24,15.8,23.9,16,23.7,16.1z"/>
		<path class="st3" d="M22.1,12.9c0.2,0,0.2,0.1,0.3-0.1c0.1,0.1,0.1,0.2,0.2,0.2C22.6,13.1,22.2,13.2,22.1,12.9z"/>
		<path class="st3" d="M24.7,15.9c0-0.3,0.3,0,0.4,0.1c0-0.1-0.1-0.2,0-0.2C25.3,16.4,24.8,15.9,24.7,15.9z"/>
		<path class="st3" d="M17.3,8.1c-0.2,0.3-0.3,0.3-0.5,0.5c0-0.1,0-0.2,0-0.2c-0.1-0.1-0.1-0.1-0.2-0.2c0.4,0.1,0.5-0.2,0.6-0.4
			C17.2,7.9,17,8.3,17.3,8.1z"/>
		<path class="st3" d="M17.7,7.6c-0.2-0.1,0.2,0,0.3,0.2c-0.1,0-0.1,0-0.2,0C17.7,7.8,17.9,7.6,17.7,7.6z"/>
		<path class="st3" d="M21,11.3C21,11.3,21,11.2,21,11.3l-0.1-0.2c0.3,0.3,0.5-0.3,0.7,0.2c-0.1,0.1-0.1-0.1-0.2-0.2
			C21.2,11.2,21.1,11.3,21,11.3z"/>
		<path class="st3" d="M17,9c0.1-0.1,0.1,0.1,0.2,0c0,0.1,0,0.3-0.1,0.3c0,0.1,0.1,0.1,0.1,0.2c-0.1,0-0.1,0-0.2,0.1
			c0,0,0.1,0.1,0.1,0c0,0.1-0.1,0.1,0,0.3c-0.1,0-0.1-0.2-0.1-0.2c-0.1,0-0.1-0.1-0.2-0.1c0-0.1,0-0.1,0-0.2C17,9.3,17.1,9.3,17,9z"
			/>
		<path class="st3" d="M14.5,16.6C14.4,16.7,14.4,16.6,14.5,16.6c-0.1-0.1-0.1,0-0.1-0.1C14.4,16.5,14.5,16.6,14.5,16.6
			C14.7,16.7,14.4,16.6,14.5,16.6z"/>
		<path class="st3" d="M14.1,15.7c0-0.1,0-0.2,0-0.2c0,0.2,0.1-0.1,0.2-0.1c0,0,0-0.2-0.1-0.1c0.1,0,0.4-0.2,0.6-0.1
			c-0.1-0.2,0.2,0,0.1-0.2c0,0,0.1,0.1,0.1,0.1c0-0.2,0.2,0,0.3-0.1c0,0,0.1,0.3,0.1,0.1c0.1,0.1-0.1,0.1-0.2,0
			c-0.1,0.1-0.2,0.1-0.2,0.1c0,0,0,0.1,0,0.2c-0.1,0-0.2,0-0.2,0.1c-0.2-0.4-0.3,0.2-0.5-0.1C14.4,15.5,14.3,15.6,14.1,15.7z"/>
		<path class="st3" d="M13.1,13.1c0-0.1,0-0.1,0.1-0.1c0,0,0,0,0,0c0-0.1-0.1-0.1-0.1-0.2c0.1-0.1,0.1-0.2,0.1-0.3
			c0.1,0.2,0.5-0.1,0.6,0.2c0,0,0-0.1,0.1-0.1c0.1,0.1,0.2,0.1,0.3,0.1c0.2,0.2,0.5,0.1,0.7,0.3c-0.1,0-0.1,0.1-0.1,0.1
			c-0.3,0.3-1.1,0.2-1.1,0.8c0.1,0,0-0.2,0.2-0.3c0,0.2,0,0.3,0,0.5c0.1,0.1,0.1-0.1,0.2,0c0,0.1-0.1,0-0.1,0.1
			c-0.1-0.3-0.3-0.1-0.3,0c0-0.1,0-0.1,0-0.2c0.1-0.1,0.2,0,0.2-0.1c-0.2-0.2-0.3,0-0.4,0.1c0.1-0.1,0.1-0.5,0.1-0.7
			c0.1,0,0.2-0.1,0.1-0.2c0.1,0,0.1,0.1,0.2,0c0-0.1-0.1-0.2,0-0.2c0-0.1,0-0.1,0-0.2c-0.1-0.1-0.2,0.2-0.3,0c-0.1,0,0,0.1,0,0.1
			c0,0.1,0.1-0.1,0.1,0.1c0,0.1-0.1,0.1-0.1-0.1C13.1,12.8,13.2,13,13.1,13.1z"/>
		<path class="st3" d="M14.5,15.9C14.5,15.8,14.6,15.9,14.5,15.9c0.2,0,0.2,0,0.2,0.1C14.6,15.9,14.6,15.8,14.5,15.9z"/>
		<path class="st3" d="M15.3,15.3c0.1-0.1,0.2-0.1,0.3-0.1C15.5,15.2,15.4,15.4,15.3,15.3z"/>
		<path class="st3" d="M14.7,13.7c0.2,0.3-0.2,0.1-0.4,0.1C14.5,13.8,14.6,13.7,14.7,13.7z"/>
		<path class="st3" d="M16.7,10.9c0.1,0.1-0.1,0.1,0.1,0.3c-0.1-0.1-0.2,0-0.4-0.2c-0.1,0.2-0.1,0.4,0.1,0.7
			c-0.1,0.5-0.6,0.4-0.9,0.2c-0.4-0.5-0.5-1-0.4-1.1c0.2-0.3,0.9,0.1,1-0.2c0.1,0,0.4-0.1,0.6-0.1c0.1,0.2,0.1,0.1,0.2,0.3
			c-0.1,0.1-0.3,0.1-0.1,0.3C16.8,11,16.7,11,16.7,10.9z"/>
	</g>
</g>
<path class="st2" d="M77.3,55.8l30.8-14.6L90.8,27l-26.4,3.4L77.3,55.8z"/>
</svg>
