<?xml version="1.0" encoding="utf-8"?>
<!-- Generator: Adobe Illustrator 24.3.0, SVG Export Plug-In . SVG Version: 6.00 Build 0)  -->
<svg version="1.1" id="Layer_1" xmlns="http://www.w3.org/2000/svg" xmlns:xlink="http://www.w3.org/1999/xlink" x="0px" y="0px"
	 viewBox="0 0 121.2 103.7" style="enable-background:new 0 0 121.2 103.7;" xml:space="preserve">
<style type="text/css">
	.st0{fill:#1341C4;}
	.st1{fill:#072B88;}
	.st2{fill:#001863;}
	.st3{fill-rule:evenodd;clip-rule:evenodd;fill:#5789DB;}
</style>
<g transform="translate(0 32.896)">
	<path class="st0" d="M23.8,33.1l6.6-11l22-12.7L71,8.7l20.2,20.6L90,54.2L75.1,65.3l-36.3,5.5l-11-28.8L23.8,33.1z"/>
	<path class="st1" d="M52.4,9.3L33,23.8l13.6,20.3l30.8,4.2l13.8-19.1L90,54.2L75.1,65.3l-36.3,5.5l-15-37.8l6.6-11L52.4,9.3z"/>
	<path class="st2" d="M38.7,70.8l7.9-26.7L33,23.8l-9.3,9.2L38.7,70.8z"/>
	<g transform="translate(0 32.061)">
		<path class="st3" d="M0,33.6c0-0.1,0.1-0.2,0.3-0.2c0,0.2,0.1,0.2,0.1,0.5c-0.1,0-0.1,0-0.2,0C0.2,33.6,0.2,33.6,0,33.6z"/>
		<path class="st3" d="M8.8,33.5c-0.1-0.4,0.3-0.2,0.5-0.2C9.3,33.6,9,33.5,8.8,33.5z"/>
		<path class="st3" d="M48,2.4c0-0.2,0.5-0.5,0.5,0C48.2,2.2,48.2,2.3,48,2.4z"/>
		<path class="st3" d="M48.7,2.2C49.2,1.7,49.2,2,50,1.8C49.7,2.3,49.2,2.2,48.7,2.2z"/>
		<path class="st3" d="M50.8,1.6c0.2,0.5,0.7,0.2,1.1,0.2C51.6,2.1,50.9,2.5,50.8,1.6z"/>
		<path class="st3" d="M52.9,0.3c0-0.1,0.2-0.2,0.1-0.2c0.1-0.3,0.3,0.1,0.3,0.3c-0.1,0.1-0.2,0.1-0.3,0.1C53,0.4,53,0.4,52.9,0.3z"
			/>
		<path class="st3" d="M50,2.1c0.1-0.1,0.6-0.5,0.6,0C50.4,1.9,50.3,2,50,2.1z"/>
		<path class="st3" d="M58.6,13.1c0.1,0,0.2,0.1,0.3,0.2C58.6,13.4,58.6,13.2,58.6,13.1z"/>
		<path class="st3" d="M59,17.5c0,0,0.1,0.1,0.1,0c0.1,0.1,0.1,0.3,0,0.5C59.1,17.9,59.1,17.8,59,17.5z"/>
		<path class="st3" d="M58.4,17.6c0.1,0,0.2,0.2,0.3,0.2C58.4,17.8,58.4,17.8,58.4,17.6z"/>
		<path class="st3" d="M58.8,18.1C58.8,18.1,58.8,18,58.8,18.1c0.2-0.1,0.2,0.1,0.3,0.1c0,0.1-0.1,0-0.1,0c-0.2,0-0.1,0-0.3,0
			c0-0.1-0.1-0.2-0.2-0.2c0.1-0.1,0.2-0.1,0.3-0.1C58.9,18,58.7,18,58.8,18.1z"/>
		<path class="st3" d="M59.2,18.2c0.2,0,0.1,0.1,0.1,0.2c0.1,0.1,0.3,0,0,0.1C59.2,18.4,59.3,18.3,59.2,18.2z"/>
		<path class="st3" d="M59.3,19.1c0.1,0,0.1,0.2,0.1,0.3C59.3,19.3,59.3,19.2,59.3,19.1z"/>
		<path class="st3" d="M59,19.7c-0.1,0.1,0,0.1,0,0.1C58.8,19.8,58.8,19.6,59,19.7z"/>
		<path class="st3" d="M58.2,20c0.1,0,0,0.1,0.1,0.2C58,20.2,58.1,20,58.2,20z"/>
		<path class="st3" d="M57.6,15.5l0.1,0c0.1,0,0,0.1,0,0.2C57.7,15.7,57.6,15.6,57.6,15.5z"/>
		<path class="st3" d="M59.1,16.3C59.1,16.3,59.2,16.3,59.1,16.3c0,0.1,0,0.1,0,0.1C59,16.4,59,16.3,59.1,16.3z"/>
		<path class="st3" d="M59.3,16.4c0.1,0,0,0.1,0.1,0.1C59.2,16.5,59.2,16.4,59.3,16.4C59.2,16.4,59.3,16.4,59.3,16.4z"/>
		<path class="st3" d="M55.5,25.4c0.2,0.1,0.2,0.2,0.4,0.4c-0.1,0-0.1,0.1-0.2,0.1c-0.2,0,0-0.2-0.3-0.1
			C55.6,25.6,55.5,25.6,55.5,25.4z"/>
		<path class="st3" d="M56.3,17.6c0.2,0,0,0.1,0.1,0.2c0.2,0,0.1-0.1,0.1-0.2c0.3,0-0.1,0.2,0.2,0.2c0,0.1,0,0.1,0,0.2
			c-0.1,0-0.1-0.1-0.1-0.1c-0.1,0.1-0.1-0.1-0.3,0C56.3,17.8,56.3,17.7,56.3,17.6z"/>
		<path class="st3" d="M58.3,19.5c0.1,0.1,0.1,0,0.2,0c0,0,0.1,0,0,0.1C58.5,19.5,58.2,19.6,58.3,19.5z"/>
		<path class="st3" d="M59.4,11.7c0.2,0.1,0.3,0.3-0.2,0.2C59.1,11.8,59.4,11.8,59.4,11.7z"/>
		<path class="st3" d="M61.3,13c0.3,0,0.2,0.4,0.1,0.5c0.1,0.1,0.3,0.1,0.5,0.1c-0.2,0.1-0.5,0.2-0.7,0.3c-0.2-0.1-0.1-0.5,0.1-0.4
			C61.3,13.3,61.2,13.1,61.3,13z"/>
		<path class="st3" d="M57.2,20.7c0.1,0,0,0.2,0,0.2C57.1,20.9,57.2,20.8,57.2,20.7z"/>
		<path class="st3" d="M56.2,21.4c0,0.1,0.1,0.1,0.2,0.2C56.2,21.6,56.2,21.5,56.2,21.4z"/>
		<path class="st3" d="M59.4,24.3c0.3,0,0.5,0,0.5,0.2c-0.2,0-0.4,0-0.6,0C59.4,24.4,59.5,24.3,59.4,24.3z"/>
		<path class="st3" d="M51.3,9.2c0.5,0-0.3,0.3,0.2,0.3c0,0.1-0.2,0.1-0.3,0.1C51.2,9.5,51.2,9.3,51.3,9.2z"/>
		<path class="st3" d="M49.7,17.6c0.2,0,0.3,0.1,0.3,0.3C49.8,17.8,49.8,17.7,49.7,17.6z"/>
		<path class="st3" d="M50.2,20.4c0.3,0,0,0.4,0,0.6c-0.2,0,0.1-0.3-0.3-0.2C50.3,20.7,50.1,20.7,50.2,20.4z"/>
		<path class="st3" d="M51.3,9.7c0.1,0,0.2,0,0.3,0c0,0.1-0.6,0.1-0.3,0.3c-0.1,0.2-0.1-0.1-0.3-0.1C51.2,9.8,51.3,9.8,51.3,9.7z"/>
		<path class="st3" d="M51.7,9.9c-0.1,0.1-0.2,0.2-0.1,0.3c-0.1,0-0.2,0-0.2,0.1C51.4,10.3,51.4,9.9,51.7,9.9z"/>
		<path class="st3" d="M53.8,15.5c0.1,0,0.2,0.1,0.2,0.2c-0.2,0-0.2,0.1-0.3,0.1c0,0,0-0.1,0-0.1C53.8,15.7,53.8,15.7,53.8,15.5z"/>
		<path class="st3" d="M54.2,21.7c0.3-0.1,0.1,0.2,0.2,0.3C54.1,22.1,54.2,21.9,54.2,21.7z"/>
		<path class="st3" d="M50.9,27.7c0-0.1-0.2,0-0.3,0c-0.1-0.3,0.5-0.5,0.2-0.8c-0.2,0,0,0.2-0.1,0.3c-0.2-0.1,0.1-0.2-0.1-0.4
			c0.3-0.1,0.2,0,0.5-0.1c0.1,0.4,0,0.3,0.1,0.9C50.8,27.4,51,27.8,50.9,27.7c0.3,0.1,0.3,0.3,0,0.4c0.1,0.1,0.2-0.1,0.3,0
			c-0.2,0.2,0.2,0.5-0.2,0.5c0,0.1,0,0.1-0.1,0.1c0.1,0.1,0.4-0.1,0.4,0.1C51,28.6,51.1,28.9,51,29c-0.5-0.2-0.2-0.9-0.4-1.2
			C50.6,27.7,50.8,27.7,50.9,27.7z"/>
		<path class="st3" d="M60.2,16.2c0.2,0.3-0.2,0.7-0.4,0.9C59.5,16.9,60.1,16.6,60.2,16.2z"/>
		<path class="st3" d="M64.3,16c0.5,0-0.3,0.3,0.2,0.3c0,0.1-0.2,0.1-0.3,0.1C64.2,16.3,64.2,16.2,64.3,16z"/>
		<path class="st3" d="M61.2,16.4c0.2,0,0.1,0.2,0.1,0.2c-0.1,0-0.3,0-0.4,0C61,16.6,61.2,16.5,61.2,16.4z"/>
		<path class="st3" d="M61.9,16.7c0.2,0,0.4,0.2,0.2,0.2C61.9,16.9,61.9,16.8,61.9,16.7z"/>
		<path class="st3" d="M61.3,17.2c0.2,0.1,0.5,0.4,0.2,0.6c-0.2-0.1,0-0.2-0.3-0.1C61.4,17.6,61.3,17.4,61.3,17.2z"/>
		<path class="st3" d="M61.2,18.5c0.4-0.1,0.5,0.8-0.1,0.7c0-0.1,0.2-0.1,0.3-0.1C61.2,19,61.5,18.7,61.2,18.5z"/>
		<path class="st3" d="M62.1,21c0.2,0,0.1,0.2,0.1,0.3C62,21.3,62,21.1,62.1,21z"/>
		<path class="st3" d="M62.7,24.4c0.2,0,0.3,0.1,0.3,0.3C62.8,24.6,62.8,24.5,62.7,24.4z"/>
		<path class="st3" d="M63.2,27.2c0.3,0,0,0.4,0.1,0.6c-0.2,0,0.1-0.3-0.3-0.2C63.3,27.5,63.1,27.5,63.2,27.2z"/>
		<path class="st3" d="M64.3,16.5c0.1,0,0.2,0,0.3,0c0,0.1-0.6,0.1-0.3,0.3c-0.1,0.2-0.1-0.1-0.3-0.1C64.2,16.6,64.3,16.6,64.3,16.5
			z"/>
		<path class="st3" d="M61.1,16.8c0.4,0,0,0.3-0.1,0.4c-0.1,0-0.2,0-0.3,0c0.2,0.2-0.2,0.1-0.2,0.3c0,0.1,0.2,0,0.2,0.1
			c0.1,0.1-0.1,0.2-0.3,0.2c0.1-0.2,0.1-0.2,0-0.5l0.3,0c0-0.1,0-0.2,0.1-0.2c-0.2,0-0.3,0.1-0.4,0c-0.2,0,0.1,0.2-0.2,0.2
			c0.1-0.1,0.2-0.2,0.2-0.3c0.1,0.2,0.3,0.1,0.6,0c-0.2,0.1,0,0.1,0,0.2C61.2,17.1,61.1,16.9,61.1,16.8z"/>
		<path class="st3" d="M64.7,16.7c-0.1,0.1-0.2,0.2-0.1,0.3c-0.1,0-0.2,0-0.2,0.1C64.4,17.1,64.4,16.7,64.7,16.7z"/>
		<path class="st3" d="M60.8,17.7c0.3,0.1-0.1,0.3-0.3,0.3c0.1,0,0.2,0,0.2,0.1C60.1,18,60.8,17.8,60.8,17.7z"/>
		<path class="st3" d="M52.1,15.9c0.1,0.1-0.1,0.4-0.2,0.5C51.7,16.3,52,16.1,52.1,15.9z"/>
		<path class="st3" d="M54.2,15.8c0.3,0-0.1,0.1,0.1,0.1c0,0-0.1,0-0.2,0C54.1,15.9,54.2,15.9,54.2,15.8z"/>
		<path class="st3" d="M52.6,16c0.1,0,0,0.1,0.1,0.1c-0.1,0-0.1,0-0.2,0C52.5,16.1,52.6,16.1,52.6,16z"/>
		<path class="st3" d="M52.9,16.1c0.1,0,0.2,0.1,0.1,0.1C53,16.3,52.9,16.2,52.9,16.1z"/>
		<path class="st3" d="M52.6,16.4c0.1,0.1,0.2,0.2,0.1,0.3c-0.1,0,0-0.1-0.2,0C52.7,16.6,52.7,16.5,52.6,16.4z"/>
		<path class="st3" d="M52.6,17.1c0.2-0.1,0.2,0.4-0.1,0.4c0,0,0.1,0,0.1,0C52.6,17.3,52.8,17.2,52.6,17.1z"/>
		<path class="st3" d="M54.2,16c0.1,0,0.1,0,0.2,0c0,0.1-0.3,0.1-0.2,0.2c0,0.1-0.1,0-0.1,0C54.1,16.1,54.2,16.1,54.2,16z"/>
		<path class="st3" d="M52.5,16.2c0.2,0,0,0.2,0,0.2c0,0-0.1,0-0.1,0c0.1,0.1-0.1,0.1-0.1,0.2c0,0,0.1,0,0.1,0c0,0.1,0,0.1-0.2,0.1
			c0.1-0.1,0-0.1,0-0.2l0.1,0c0,0,0-0.1,0-0.1c-0.1,0-0.2,0-0.2,0c-0.1,0,0,0.1-0.1,0.1c0-0.1,0.1-0.1,0.1-0.2c0.1,0.1,0.2,0,0.3,0
			c-0.1,0.1,0,0.1,0,0.1C52.6,16.4,52.5,16.3,52.5,16.2z"/>
		<path class="st3" d="M54.4,16.2c0,0.1-0.1,0.1,0,0.1c-0.1,0-0.1,0-0.1,0.1C54.2,16.4,54.2,16.2,54.4,16.2z"/>
		<path class="st3" d="M52.4,16.7c0.2,0.1-0.1,0.1-0.2,0.2c0,0,0.1,0,0.1,0.1C52,16.9,52.4,16.8,52.4,16.7z"/>
		<path class="st3" d="M50.2,11.5c0.2,0,0.1,0.2,0.1,0.3C50.1,11.8,50.1,11.6,50.2,11.5z"/>
		<path class="st3" d="M50.8,14.9c0.2,0,0.3,0.1,0.3,0.3C50.9,15.1,50.9,15,50.8,14.9z"/>
		<path class="st3" d="M51.3,17.7c0.3,0,0,0.4,0,0.6c-0.2,0,0.1-0.3-0.3-0.2C51.4,18,51.2,18,51.3,17.7z"/>
		<path class="st3" d="M57.2,27.6c0.1,0,0.3,0.1,0.3,0.2c-0.2,0.1-0.3,0-0.6,0C56.8,27.6,57.1,27.8,57.2,27.6z"/>
		<path class="st3" d="M57.3,30.7c0.2,0,0.1,0.2,0.1,0.3C57.1,31,57.4,30.8,57.3,30.7z"/>
		<path class="st3" d="M61.7,30.6c0.3,0,0.1,0.4-0.1,0.3C61.5,30.8,61.7,30.8,61.7,30.6z"/>
		<path class="st3" d="M67.9,25.3c0.2,0,0.3,0.2,0.2,0.4c0,0,0,0,0,0.1C67.9,25.6,68,25.4,67.9,25.3z"/>
		<path class="st3" d="M67.9,26c0.3,0,0,0.4,0.2,0.6C67.9,26.5,67.9,26.1,67.9,26z"/>
		<path class="st3" d="M67.3,27.2c0.3,0,0.3,0.3,0.3,0.5c-0.2,0-0.2-0.3-0.4-0.1C67.1,27.5,67.4,27.3,67.3,27.2z"/>
		<path class="st3" d="M67.7,28.1c-0.2,0.1-0.2,0-0.3,0c0.1-0.1,0-0.3,0.2-0.3c0,0-0.1,0.1-0.1,0.1C67.6,28,67.8,28,67.7,28.1z"/>
		<path class="st3" d="M67.8,28c0.3,0.1-0.3,0.3,0,0.5C67.4,28.4,67.6,28.1,67.8,28z"/>
		<path class="st3" d="M52.6,20.3c0.3,0,0.1,0.2,0,0.2C52.4,20.5,52.8,20.4,52.6,20.3z"/>
		<path class="st3" d="M56.2,24.9c0.3,0,0.4,0.2,0,0.2L56.2,24.9z"/>
		<path class="st3" d="M56.3,25.8c0.1,0.1,0.2,0.2,0.2,0.3C56.2,26.2,56.4,25.9,56.3,25.8z"/>
		<path class="st3" d="M57.4,26.3c0.1-0.2,0.4,0.3,0,0.2C57.3,26.5,57.6,26.4,57.4,26.3z"/>
		<path class="st3" d="M54.9,20.7c0.2-0.1-0.1,0.4,0,0.5C54.6,21.1,54.9,20.9,54.9,20.7z"/>
		<path class="st3" d="M51,23.9c0.2,0.3-0.2,0.7-0.4,0.9C50.4,24.6,51,24.3,51,23.9z"/>
		<path class="st3" d="M55.1,23.7c0.5,0-0.3,0.3,0.2,0.3c0,0.1-0.2,0.1-0.3,0.1C55,24,55.1,23.8,55.1,23.7z"/>
		<path class="st3" d="M52.1,24.1c0.2,0,0.1,0.2,0.1,0.2c-0.1,0-0.3,0-0.4,0C51.8,24.2,52,24.2,52.1,24.1z"/>
		<path class="st3" d="M52.7,24.3c0.2,0,0.4,0.2,0.2,0.2C52.8,24.6,52.7,24.5,52.7,24.3z"/>
		<path class="st3" d="M52.1,24.9c0.2,0.1,0.5,0.4,0.2,0.6c-0.2-0.1,0-0.2-0.3-0.1C52.2,25.2,52.1,25.1,52.1,24.9z"/>
		<path class="st3" d="M52.1,26.2c0.4-0.1,0.5,0.8-0.1,0.7c0-0.1,0.2,0,0.3-0.1C52,26.7,52.3,26.4,52.1,26.2z"/>
		<path class="st3" d="M55.1,24.1c0.1,0,0.2,0,0.3,0c0,0.1-0.6,0.1-0.3,0.3c-0.1,0.2-0.1-0.1-0.3-0.1C55,24.3,55.2,24.3,55.1,24.1z"
			/>
		<path class="st3" d="M51.9,24.4c0.4,0,0,0.3-0.1,0.4c-0.1,0-0.2,0-0.3,0c0.2,0.2-0.2,0.1-0.2,0.3c0,0.1,0.2,0,0.2,0.1
			c0.1,0.1-0.1,0.2-0.3,0.2c0.1-0.2,0.1-0.2,0-0.5l0.3,0c0-0.1,0-0.2,0.1-0.2c-0.2,0-0.3,0.1-0.4,0c-0.2,0,0.1,0.2-0.2,0.2
			c0.1-0.1,0.2-0.2,0.2-0.3c0.1,0.2,0.3,0.1,0.6,0c-0.2,0.1,0,0.1,0,0.2C52,24.8,51.9,24.6,51.9,24.4z"/>
		<path class="st3" d="M55.5,24.4c-0.1,0.1-0.2,0.2-0.1,0.3c-0.1,0-0.2,0-0.2,0.1C55.2,24.8,55.2,24.4,55.5,24.4z"/>
		<path class="st3" d="M51.6,25.4c0.3,0.1-0.1,0.3-0.3,0.3c0.1,0,0.2,0,0.2,0.1C50.9,25.7,51.6,25.5,51.6,25.4z"/>
		<path class="st3" d="M61.9,23.9c0.2,0.3-0.2,0.7-0.4,0.9C61.2,24.6,61.8,24.3,61.9,23.9z"/>
		<path class="st3" d="M66,23.7c0.5,0-0.3,0.3,0.2,0.3c0,0.1-0.2,0.1-0.3,0.1C65.9,24,65.9,23.8,66,23.7z"/>
		<path class="st3" d="M62.9,24.1c0.2,0,0.1,0.2,0.1,0.2c-0.1,0-0.3,0-0.4,0C62.7,24.2,62.9,24.2,62.9,24.1z"/>
		<path class="st3" d="M63.5,24.3c0.2,0,0.4,0.2,0.2,0.2C63.6,24.6,63.5,24.5,63.5,24.3z"/>
		<path class="st3" d="M63,24.8c0.2,0.1,0.5,0.4,0.2,0.6c-0.2-0.1,0-0.2-0.3-0.1C63.1,25.2,63,25,63,24.8z"/>
		<path class="st3" d="M62.9,26.2c0.4-0.1,0.5,0.8-0.1,0.7c0-0.1,0.2,0,0.2-0.1C62.9,26.7,63.2,26.4,62.9,26.2z"/>
		<path class="st3" d="M63.8,28.7c0.2,0,0.1,0.2,0.1,0.3C63.7,29,63.7,28.8,63.8,28.7z"/>
		<path class="st3" d="M66,24.1c0.1,0,0.2,0,0.3,0c0,0.1-0.6,0.1-0.3,0.3c-0.1,0.2-0.1-0.1-0.3-0.1C65.9,24.3,66,24.3,66,24.1z"/>
		<path class="st3" d="M62.8,24.4c0.4,0,0,0.3,0,0.4c-0.1,0-0.2,0-0.3,0c0.2,0.2-0.2,0.1-0.2,0.3c0,0,0.2,0,0.2,0.1
			c0.1,0.1-0.1,0.2-0.3,0.2c0.1-0.3,0.1-0.2,0-0.5l0.3,0c0-0.1,0-0.2,0.1-0.2c-0.2,0-0.3,0.1-0.4,0c-0.2,0,0.1,0.2-0.2,0.2
			c0.1-0.1,0.2-0.2,0.2-0.3c0.1,0.2,0.3,0.1,0.6,0c-0.2,0.1,0,0.1,0,0.2C62.9,24.8,62.8,24.6,62.8,24.4z"/>
		<path class="st3" d="M66.4,24.4c-0.1,0.1-0.2,0.2-0.1,0.3c-0.1,0-0.2,0-0.2,0.1C66,24.8,66.1,24.4,66.4,24.4z"/>
		<path class="st3" d="M62.5,25.4c0.3,0.1-0.1,0.3-0.3,0.3c0.1,0,0.2,0,0.2,0.1C61.8,25.7,62.5,25.5,62.5,25.4z"/>
		<path class="st3" d="M63.7,20.1c0.1,0.1-0.1,0.3-0.2,0.4C63.4,20.4,63.7,20.2,63.7,20.1z"/>
		<path class="st3" d="M69,22.2c0.2,0,0.1,0.2,0.1,0.2c-0.1,0-0.3,0-0.4,0C68.7,22.3,69,22.3,69,22.2z"/>
		<path class="st3" d="M69.6,22.4c0.2,0,0.4,0.2,0.2,0.2C69.7,22.6,69.6,22.5,69.6,22.4z"/>
		<path class="st3" d="M69.1,22.9c0.2,0.1,0.5,0.4,0.2,0.6c-0.2-0.1,0-0.2-0.3-0.1C69.1,23.3,69.1,23.1,69.1,22.9z"/>
		<path class="st3" d="M70.1,21.3c0.4-0.1,0.5,0.8-0.1,0.7c0-0.1,0.2-0.1,0.3-0.1C70,21.8,70.3,21.5,70.1,21.3z"/>
		<path class="st3" d="M69.9,26.8c0.2,0,0.1,0.2,0.1,0.3C69.8,27.1,69.8,26.9,69.9,26.8z"/>
		<path class="st3" d="M64.1,20.3c0.2,0,0,0.1,0,0.2c0,0-0.1,0-0.1,0c0.1,0.1-0.1,0.1-0.1,0.1c0,0,0.1,0,0.1,0c0,0.1,0,0.1-0.1,0.1
			c0.1-0.1,0-0.1,0-0.2l0.1,0c0,0,0-0.1,0-0.1c-0.1,0-0.1,0-0.2,0c-0.1,0,0,0.1-0.1,0.1c0,0,0.1-0.1,0.1-0.1c0.1,0.1,0.1,0,0.3,0
			c-0.1,0,0,0.1,0,0.1C64.2,20.5,64.1,20.4,64.1,20.3z"/>
		<path class="st3" d="M64,20.7c0.1,0.1-0.1,0.1-0.1,0.1c0,0,0.1,0,0.1,0.1C63.7,20.9,64,20.8,64,20.7z"/>
		<path class="st3" d="M58.6,14c0-0.1-0.1-0.3,0.1-0.2c-0.1,0.3,0.4,0.3,0.6,0.2c0.1,0,0.1,0.1,0.3,0.1C59.4,14.2,59,14,58.6,14z"/>
		<path class="st3" d="M59.6,14.7c-0.3,0-0.5,0.2-0.6,0.1C59.1,14.6,59.4,14.8,59.6,14.7c0,0,0.1,0,0.2,0c-0.2,0.3,0.1,0.4,0.1,0.8
			c-0.2,0-0.2-0.2-0.1-0.2c-0.3,0.1-0.3-0.2-0.5-0.3c0.1,0,0.3,0,0.4,0C59.6,14.8,59.6,14.8,59.6,14.7z"/>
		<path class="st3" d="M63.6,16.4c-0.4-0.1-0.3,0.2-0.4,0.3C62.9,16.6,63.5,16.1,63.6,16.4z"/>
		<path class="st3" d="M58.4,18.4C58.4,18.3,58.4,18,58.4,18.4C58.5,18.3,58.5,18.3,58.4,18.4z"/>
		<path class="st3" d="M58.7,18.7c-0.1-0.1-0.1-0.2-0.1-0.3c0.1,0.1,0.2,0,0.3-0.1c0,0.1,0,0.2-0.1,0.2c0,0,0,0-0.1,0
			c0,0,0.1,0,0.2,0c0,0-0.1,0.1,0,0.1c0,0,0,0,0,0C58.9,18.8,58.8,18.6,58.7,18.7z"/>
		<path class="st3" d="M58.3,18.7c0.3,0.2,0.5,0.5,0.6,0.9c0,0,0.1,0,0.2,0c-0.1,0.1-0.1,0.1-0.3,0.1c0,0.1,0.1,0.1,0,0.2
			c0,0,0.1,0.1,0.2,0c0,0.5,0.1,1,0.3,1.5c-0.2-0.1-0.1,0.1-0.3,0.1c0,0,0.1,0,0.1,0.1c0.1,0,0-0.1,0.2-0.1c-0.1,0.1,0,0.2-0.3,0.3
			c-0.2,0,0.2-0.2-0.1-0.1c-0.1-0.9,0-1.4-0.1-2.3c0-0.1-0.1,0-0.2-0.1c0.1,0,0-0.1,0.1-0.1c-0.1-0.1-0.1-0.1-0.2-0.1
			C58.3,18.9,58.4,18.7,58.3,18.7z"/>
		<path class="st3" d="M58.6,15.7c0.1,0,0.1,0.1,0.1,0.1c0,0,0.1,0,0.1-0.1c0.3,0.1,0.1,0.4,0.2,0.6c-0.2-0.1-0.3,0.5,0,0.5
			c0,0.1-0.1,0.1-0.1,0.1C58.9,17,59,17,59,17.1c-0.1,0-0.1,0-0.2,0c0.1,0.1-0.2,0.1-0.3,0.2c0.1,0,0.1,0.1,0.1,0.1
			c-0.1-0.1-0.1,0-0.1,0.1c-0.1-0.1-0.2-0.2-0.3-0.3c0.1,0,0.1,0,0.1,0c0.1-0.1,0.1-0.2,0.1-0.3c0.1,0,0.1,0,0.2,0
			c-0.1-0.1,0-0.3-0.2-0.3c0-0.1,0.1-0.1,0.1-0.2c0.2,0,0,0.1,0,0.1c0,0,0.1,0,0.1,0C58.7,16.4,58.7,16.1,58.6,15.7z"/>
		<path class="st3" d="M57.2,16c0.1,0,0.1-0.2,0.2-0.2c0,0.1-0.1,0.2-0.1,0.3C57.3,16.1,57.2,16,57.2,16z"/>
		<path class="st3" d="M55.6,25.3c-0.2-0.3-0.1-0.4-0.2-0.7c0.1,0,0.2,0.1,0.2,0.1c0.1,0,0.2-0.1,0.2-0.1c-0.2,0.3-0.1,0.5,0.1,0.7
			C55.9,25.3,55.6,25,55.6,25.3z"/>
		<path class="st3" d="M55.8,26c0.2-0.1-0.1,0.2-0.3,0.2c0.1,0,0.1-0.1,0.1-0.2C55.7,25.9,55.8,26.1,55.8,26z"/>
		<path class="st3" d="M62.3,24.3c0.2,0.1,0.2,0.2,0.4,0.4c-0.1,0-0.1,0-0.2,0.1c-0.2,0,0-0.2-0.3-0.1
			C62.3,24.5,62.2,24.5,62.3,24.3z"/>
		<path class="st3" d="M65.4,17.3c0.2,0.1,0.3,0.3-0.2,0.2C65.2,17.4,65.5,17.4,65.4,17.3z"/>
		<path class="st3" d="M51.4,25.8c0.2,0.3-0.2,0.7-0.4,0.9C50.7,26.5,51.3,26.1,51.4,25.8z"/>
		<path class="st3" d="M55.5,25.6c0.5,0-0.3,0.3,0.2,0.3c0,0.1-0.2,0.1-0.3,0.1C55.4,25.8,55.4,25.7,55.5,25.6z"/>
		<path class="st3" d="M52.4,26c0.2,0,0.1,0.2,0.1,0.2c-0.1,0-0.3,0-0.4,0C52.1,26.1,52.4,26.1,52.4,26z"/>
		<path class="st3" d="M53,26.2c0.2,0,0.4,0.2,0.2,0.2C53.1,26.4,53,26.3,53,26.2z"/>
		<path class="st3" d="M52.5,26.7c0.2,0.1,0.5,0.4,0.2,0.6c-0.2-0.1,0-0.2-0.3-0.1C52.5,27.1,52.5,26.9,52.5,26.7z"/>
		<path class="st3" d="M55.4,14.6c0.4-0.1,0.5,0.8-0.1,0.7c0-0.1,0.2,0,0.2-0.1C55.3,15,55.6,14.7,55.4,14.6z"/>
		<path class="st3" d="M56.2,17.1c0.2,0,0.1,0.2,0.1,0.3C56.1,17.4,56.2,17.2,56.2,17.1z"/>
		<path class="st3" d="M55.5,26c0.1,0,0.2,0,0.3,0c0,0.1-0.6,0.1-0.3,0.3c-0.1,0.2-0.1-0.1-0.3-0.1C55.3,26.2,55.5,26.2,55.5,26z"/>
		<path class="st3" d="M52.3,26.3c0.4,0,0,0.3-0.1,0.4c-0.1,0-0.2,0-0.3,0c0.2,0.2-0.2,0.1-0.2,0.3c0,0.1,0.2,0,0.2,0.1
			c0.1,0.1-0.1,0.2-0.3,0.2c0.1-0.2,0.1-0.2,0-0.5l0.3,0c0-0.1,0-0.2,0.1-0.2c-0.2,0-0.3,0.1-0.4,0c-0.2,0,0.1,0.2-0.2,0.2
			c0.1-0.1,0.2-0.2,0.2-0.3c0.1,0.2,0.3,0.1,0.6,0c-0.2,0.1,0,0.1,0,0.2C52.4,26.7,52.3,26.5,52.3,26.3z"/>
		<path class="st3" d="M55.9,26.3c-0.1,0.1-0.2,0.2-0.1,0.3c-0.1,0-0.2,0-0.2,0.1C55.5,26.7,55.6,26.3,55.9,26.3z"/>
		<path class="st3" d="M52,27.2c0.3,0.1-0.1,0.3-0.3,0.3c0.1,0,0.2,0,0.2,0.1C51.3,27.6,52,27.4,52,27.2z"/>
		<path class="st3" d="M62.4,24.2c-0.2-0.3-0.1-0.4-0.2-0.7c0.1,0,0.2,0.1,0.2,0.1c0.1,0,0.2-0.1,0.2-0.1c-0.2,0.3-0.1,0.5,0.1,0.7
			C62.6,24.2,62.3,23.9,62.4,24.2z"/>
		<path class="st3" d="M62.6,24.9c0.2-0.1-0.1,0.2-0.3,0.2c0.1,0,0.1-0.1,0.1-0.2C62.4,24.8,62.5,25,62.6,24.9z"/>
		<path class="st3" d="M57.8,26.1C57.9,26.1,57.9,26.1,57.8,26.1l0.3,0c-0.4,0.1,0,0.6-0.6,0.6c0-0.1,0.1-0.1,0.2-0.1
			C57.8,26.3,57.8,26.2,57.8,26.1z"/>
		<path class="st3" d="M61.6,23.6c0,0.1-0.1,0.1-0.1,0.2c-0.1-0.1-0.2-0.1-0.2-0.2c-0.1,0-0.1,0-0.2,0c0-0.1,0.1-0.1,0-0.2
			c-0.1,0-0.1,0-0.1,0.1c-0.2,0,0-0.1-0.2-0.1c0-0.1,0.2,0,0.3,0c0.1,0,0.1-0.1,0.1-0.2c0.1,0,0.1,0.1,0.2,0
			C61.5,23.4,61.4,23.5,61.6,23.6z"/>
		<path class="st3" d="M56.1,17.8C56.1,17.8,56.1,17.8,56.1,17.8c0.1,0,0.1-0.1,0.2-0.1c0,0.1-0.1,0.1-0.1,0.2
			C56,18,56.1,17.8,56.1,17.8z"/>
		<path class="st3" d="M57,17.9c0.1,0,0.2,0,0.2,0.1c-0.2-0.1,0.1,0.1,0,0.2c0,0,0.2,0,0.2,0c-0.1,0.1,0,0.4-0.2,0.6
			c0.3,0-0.1,0.2,0.2,0.2c0,0-0.1,0-0.2,0.1c0.1,0.1-0.1,0.2,0,0.3c0,0-0.3,0-0.2,0.1c-0.2,0-0.1-0.1,0.1-0.1c0-0.1,0-0.2,0.1-0.2
			c0,0-0.1,0-0.2,0c0-0.1,0.1-0.1,0-0.2c0.4,0,0-0.3,0.3-0.4C57,18.3,57.1,18.1,57,17.9z"/>
		<path class="st3" d="M59.9,18.2c0.1,0,0.1,0.1,0.1,0.1c0,0,0,0,0,0c0.1,0,0.1,0,0.2,0c0,0.1,0.1,0.2,0.2,0.3
			c-0.2,0-0.1,0.5-0.4,0.5c0,0,0,0,0,0.1c-0.1,0-0.2,0.1-0.2,0.2c-0.3,0.1-0.3,0.4-0.6,0.4c0.1-0.1-0.1-0.2-0.1-0.1
			c-0.1-0.4,0.3-1.1-0.2-1.3c-0.1,0.1,0.2,0.1,0.1,0.3c-0.1-0.1-0.3-0.1-0.4-0.3c-0.1,0,0.1,0.1-0.1,0.1c-0.1,0,0-0.1,0-0.2
			c0.3,0.1,0.2-0.2,0.2-0.3c0.1,0,0.1,0.1,0.2,0c0,0.1-0.1,0.1,0,0.2c0.3-0.1,0.1-0.3,0.1-0.4c0,0.2,0.4,0.3,0.6,0.5
			c0,0.1,0,0.2,0.2,0.2c0,0.1-0.1,0-0.1,0.1c0.1,0.1,0.2,0,0.2,0.1c0,0,0.1,0,0.2,0c0.2-0.1-0.1-0.3,0.1-0.2c0,0-0.1,0-0.1-0.1
			c-0.1,0,0,0.1-0.1,0.1c-0.1,0,0-0.1,0.1-0.1C60,18.4,59.8,18.4,59.9,18.2z"/>
		<path class="st3" d="M56.7,18.2c0.1,0,0,0.1,0,0.1c-0.1,0-0.1,0-0.2,0C56.6,18.3,56.7,18.3,56.7,18.2z"/>
		<path class="st3" d="M56.9,19.1c0,0.1,0,0.2-0.1,0.3C56.8,19.4,56.7,19.2,56.9,19.1z"/>
		<path class="st3" d="M58.5,19.4c-0.3,0,0-0.3,0-0.4C58.6,19.2,58.6,19.3,58.5,19.4z"/>
		<path class="st3" d="M60.1,22.4c-0.1,0,0-0.1-0.3-0.1c0.2,0,0.1-0.2,0.3-0.2c-0.1-0.1-0.3-0.2-0.7-0.2c-0.4-0.3-0.1-0.7,0.2-0.9
			c0.6-0.1,1.1,0,1.2,0.2c0.2,0.3-0.5,0.7-0.2,1c-0.1,0.1-0.1,0.4-0.2,0.5c-0.2,0-0.1,0-0.3,0c-0.1-0.1,0-0.3-0.2-0.3
			C60,22.5,60,22.4,60.1,22.4z"/>
	</g>
	<g transform="translate(11.676)">
		<path class="st3" d="M0,33.6c0-0.1,0.1-0.2,0.3-0.2c0,0.2,0.1,0.2,0.1,0.5c-0.1,0-0.1,0-0.2,0C0.2,33.6,0.2,33.6,0,33.6z"/>
		<path class="st3" d="M8.8,33.5c-0.1-0.4,0.3-0.2,0.5-0.2C9.3,33.6,9,33.5,8.8,33.5z"/>
		<path class="st3" d="M58.6,13.1c0.1,0,0.2,0.1,0.3,0.2C58.6,13.4,58.6,13.2,58.6,13.1z"/>
		<path class="st3" d="M59,17.5c0,0,0.1,0.1,0.1,0c0.1,0.1,0.1,0.3,0,0.5C59.1,17.9,59.1,17.8,59,17.5z"/>
		<path class="st3" d="M58.4,17.6c0.1,0,0.2,0.2,0.3,0.2C58.4,17.8,58.4,17.8,58.4,17.6z"/>
		<path class="st3" d="M58.8,18.1C58.8,18.1,58.8,18,58.8,18.1c0.2-0.1,0.2,0.1,0.3,0.1c0,0-0.1,0-0.1,0c-0.2,0-0.1,0-0.3,0
			c0-0.1-0.1-0.2-0.2-0.2c0.1-0.1,0.2-0.1,0.3-0.1C58.9,18,58.6,18,58.8,18.1z"/>
		<path class="st3" d="M59.3,18.2c0.2,0,0.1,0.1,0.1,0.2c0.1,0.1,0.3,0,0,0.1C59.2,18.4,59.3,18.3,59.3,18.2z"/>
		<path class="st3" d="M59.3,19.1c0.1,0,0.1,0.2,0.1,0.3C59.4,19.3,59.3,19.2,59.3,19.1z"/>
		<path class="st3" d="M59,19.7c-0.1,0.1,0,0.1,0,0.1C58.8,19.8,58.8,19.6,59,19.7z"/>
		<path class="st3" d="M58.2,20c0.1,0,0,0.1,0.1,0.2C58,20.2,58.1,20,58.2,20z"/>
		<path class="st3" d="M57.6,15.5l0.1,0c0.1,0,0,0.1,0,0.2C57.7,15.7,57.6,15.6,57.6,15.5z"/>
		<path class="st3" d="M59.1,16.3C59.1,16.3,59.2,16.3,59.1,16.3c0,0.1,0,0.1,0,0.1C59,16.4,59,16.3,59.1,16.3z"/>
		<path class="st3" d="M59.3,16.4c0.1,0,0,0.1,0.1,0.1C59.2,16.5,59.2,16.4,59.3,16.4C59.2,16.4,59.3,16.4,59.3,16.4z"/>
		<path class="st3" d="M55.5,25.4c0.2,0.1,0.2,0.2,0.4,0.4c-0.1,0-0.1,0.1-0.2,0.1c-0.2,0,0-0.2-0.3-0.1
			C55.6,25.6,55.5,25.6,55.5,25.4z"/>
		<path class="st3" d="M56.3,17.6c0.2,0,0,0.1,0.1,0.2c0.2,0,0.1-0.1,0.1-0.2c0.3,0-0.1,0.2,0.2,0.2c0,0.1,0,0.1,0,0.2
			c-0.1,0-0.1-0.1-0.1-0.1c-0.1,0.1-0.1-0.1-0.3,0C56.3,17.8,56.3,17.7,56.3,17.6z"/>
		<path class="st3" d="M58.3,19.5c0.1,0.1,0.1,0,0.2,0c0,0,0.1,0,0,0.1C58.5,19.5,58.2,19.6,58.3,19.5z"/>
		<path class="st3" d="M59.4,11.7c0.2,0.1,0.3,0.3-0.2,0.2C59.1,11.8,59.4,11.8,59.4,11.7z"/>
		<path class="st3" d="M61.3,13c0.3,0,0.2,0.4,0.1,0.5c0.1,0.1,0.3,0.1,0.5,0.1c-0.2,0.1-0.5,0.2-0.7,0.3c-0.2-0.1-0.1-0.5,0.1-0.4
			C61.3,13.3,61.2,13.1,61.3,13z"/>
		<path class="st3" d="M57.2,20.7c0.1,0,0,0.2,0,0.2C57.1,20.9,57.2,20.8,57.2,20.7z"/>
		<path class="st3" d="M56.2,21.4c0,0.1,0.1,0.1,0.2,0.2C56.2,21.6,56.2,21.5,56.2,21.4z"/>
		<path class="st3" d="M59.4,24.3c0.3,0,0.5,0,0.5,0.2c-0.2,0-0.4,0-0.6,0C59.4,24.4,59.5,24.3,59.4,24.3z"/>
		<path class="st3" d="M51.3,9.2c0.5,0-0.3,0.3,0.2,0.3c0,0.1-0.2,0.1-0.3,0.1C51.2,9.5,51.2,9.3,51.3,9.2z"/>
		<path class="st3" d="M49.7,17.6c0.2,0,0.3,0.1,0.3,0.3C49.8,17.8,49.8,17.7,49.7,17.6z"/>
		<path class="st3" d="M50.2,20.4c0.3,0,0,0.4,0,0.6c-0.2,0,0.1-0.3-0.3-0.2C50.3,20.7,50.1,20.7,50.2,20.4z"/>
		<path class="st3" d="M51.3,9.7c0.1,0,0.2,0,0.3,0c0,0.1-0.6,0.1-0.3,0.3c-0.1,0.2-0.1-0.1-0.3-0.1C51.2,9.8,51.3,9.8,51.3,9.7z"/>
		<path class="st3" d="M51.7,9.9c-0.1,0.1-0.2,0.2-0.1,0.3c-0.1,0-0.2,0-0.2,0.1C51.4,10.3,51.4,9.9,51.7,9.9z"/>
		<path class="st3" d="M53.8,15.5c0.1,0,0.2,0.1,0.2,0.2c-0.2,0-0.2,0.1-0.3,0.1c0,0,0-0.1,0-0.1C53.8,15.7,53.8,15.7,53.8,15.5z"/>
		<path class="st3" d="M54.2,21.7c0.3-0.1,0.1,0.2,0.2,0.3C54.1,22.1,54.2,21.9,54.2,21.7z"/>
		<path class="st3" d="M50.9,27.7c0-0.1-0.2,0-0.3,0c-0.1-0.3,0.5-0.5,0.2-0.8c-0.2,0,0,0.3-0.1,0.3c-0.2-0.1,0.1-0.2-0.1-0.4
			c0.3-0.1,0.2,0,0.5-0.1c0.1,0.4,0,0.3,0.1,0.9C50.8,27.4,51,27.8,50.9,27.7c0.3,0.1,0.3,0.3,0,0.4c0.1,0.1,0.2-0.1,0.3,0
			c-0.2,0.2,0.2,0.5-0.2,0.5c0,0.1,0,0.1-0.1,0.1c0.1,0.1,0.4-0.1,0.3,0.1C51,28.6,51.1,28.9,51,29c-0.5-0.2-0.2-0.9-0.4-1.2
			C50.6,27.7,50.8,27.7,50.9,27.7z"/>
		<path class="st3" d="M60.2,16.2c0.2,0.3-0.2,0.7-0.4,0.9C59.5,16.9,60.1,16.6,60.2,16.2z"/>
		<path class="st3" d="M64.3,16c0.5,0-0.3,0.3,0.2,0.3c0,0.1-0.2,0.1-0.3,0.1C64.2,16.3,64.2,16.2,64.3,16z"/>
		<path class="st3" d="M61.2,16.4c0.2,0,0.1,0.2,0.1,0.2c-0.1,0-0.3,0-0.4,0C61,16.6,61.2,16.5,61.2,16.4z"/>
		<path class="st3" d="M61.9,16.7c0.2,0,0.4,0.2,0.2,0.2C61.9,16.9,61.9,16.8,61.9,16.7z"/>
		<path class="st3" d="M61.3,17.2c0.2,0.1,0.5,0.4,0.2,0.6c-0.2-0.1,0-0.2-0.3-0.1C61.4,17.6,61.3,17.4,61.3,17.2z"/>
		<path class="st3" d="M61.2,18.5c0.4-0.1,0.5,0.8-0.1,0.7c0-0.1,0.2,0,0.3-0.1C61.2,19,61.5,18.7,61.2,18.5z"/>
		<path class="st3" d="M62.1,21c0.2,0,0.1,0.2,0.1,0.3C62,21.3,62,21.1,62.1,21z"/>
		<path class="st3" d="M62.7,24.4c0.2,0,0.3,0.1,0.3,0.3C62.8,24.6,62.8,24.5,62.7,24.4z"/>
		<path class="st3" d="M63.2,27.2c0.3,0,0,0.4,0,0.6c-0.2,0,0.1-0.3-0.3-0.2C63.3,27.5,63.1,27.5,63.2,27.2z"/>
		<path class="st3" d="M64.3,16.5c0.1,0,0.2,0,0.3,0c0,0.1-0.6,0.1-0.3,0.3c-0.1,0.2-0.1-0.1-0.3-0.1C64.2,16.6,64.3,16.6,64.3,16.5
			z"/>
		<path class="st3" d="M61.1,16.7c0.4,0,0,0.3,0,0.4c-0.1,0-0.2,0-0.3,0c0.2,0.2-0.2,0.1-0.2,0.3c0,0,0.2,0,0.2,0.1
			c0.1,0.1-0.1,0.2-0.3,0.2c0.1-0.2,0.1-0.2,0-0.5l0.3,0c0-0.1,0-0.2,0.1-0.2c-0.2,0-0.3,0.1-0.4,0c-0.2,0,0.1,0.2-0.2,0.2
			c0.1-0.1,0.2-0.2,0.2-0.3c0.1,0.2,0.3,0.1,0.6,0c-0.2,0.1,0,0.1,0,0.2C61.2,17.1,61.1,16.9,61.1,16.7z"/>
		<path class="st3" d="M64.7,16.7c-0.1,0.1-0.2,0.2-0.1,0.3c-0.1,0-0.2,0-0.2,0.1C64.4,17.1,64.4,16.7,64.7,16.7z"/>
		<path class="st3" d="M60.8,17.7c0.3,0.1-0.1,0.3-0.3,0.3c0.1,0,0.2,0,0.2,0.1C60.1,18,60.8,17.8,60.8,17.7z"/>
		<path class="st3" d="M52.1,15.9c0.1,0.1-0.1,0.3-0.2,0.5C51.7,16.3,52,16.1,52.1,15.9z"/>
		<path class="st3" d="M54.2,15.8c0.3,0-0.1,0.2,0.1,0.1c0,0-0.1,0-0.2,0C54.1,15.9,54.2,15.9,54.2,15.8z"/>
		<path class="st3" d="M52.6,16c0.1,0,0,0.1,0.1,0.1c-0.1,0-0.1,0-0.2,0C52.5,16.1,52.6,16.1,52.6,16z"/>
		<path class="st3" d="M52.9,16.1c0.1,0,0.2,0.1,0.1,0.1C53,16.3,52.9,16.2,52.9,16.1z"/>
		<path class="st3" d="M52.6,16.4c0.1,0.1,0.2,0.2,0.1,0.3c-0.1,0,0-0.1-0.2,0C52.7,16.6,52.7,16.5,52.6,16.4z"/>
		<path class="st3" d="M52.6,17.1c0.2-0.1,0.2,0.4-0.1,0.4c0,0,0.1,0,0.1,0C52.6,17.3,52.8,17.2,52.6,17.1z"/>
		<path class="st3" d="M54.2,16c0.1,0,0.1,0,0.2,0c0,0.1-0.3,0.1-0.2,0.2c0,0.1-0.1,0-0.1,0C54.1,16.1,54.2,16.1,54.2,16z"/>
		<path class="st3" d="M52.5,16.2c0.2,0,0,0.2,0,0.2c0,0-0.1,0-0.1,0c0.1,0.1-0.1,0.1-0.1,0.2c0,0,0.1,0,0.1,0c0,0.1,0,0.1-0.2,0.1
			c0.1-0.1,0-0.1,0-0.2l0.1,0c0,0,0-0.1,0-0.1c-0.1,0-0.2,0-0.2,0c-0.1,0,0,0.1-0.1,0.1c0-0.1,0.1-0.1,0.1-0.2c0.1,0.1,0.2,0,0.3,0
			c-0.1,0.1,0,0.1,0,0.1C52.6,16.4,52.5,16.3,52.5,16.2z"/>
		<path class="st3" d="M54.4,16.2c-0.1,0.1-0.1,0.1,0,0.1c-0.1,0-0.1,0-0.1,0.1C54.2,16.4,54.2,16.2,54.4,16.2z"/>
		<path class="st3" d="M52.4,16.7c0.2,0.1-0.1,0.1-0.2,0.2c0,0,0.1,0,0.1,0.1C52,16.9,52.4,16.8,52.4,16.7z"/>
		<path class="st3" d="M50.2,11.5c0.2,0,0.1,0.2,0.1,0.3C50.1,11.8,50.1,11.6,50.2,11.5z"/>
		<path class="st3" d="M50.8,14.9c0.2,0,0.3,0.1,0.3,0.3C50.9,15.1,50.9,15,50.8,14.9z"/>
		<path class="st3" d="M51.3,17.7c0.3,0,0,0.4,0,0.6c-0.2,0,0.1-0.3-0.3-0.2C51.4,18,51.2,18,51.3,17.7z"/>
		<path class="st3" d="M57.2,27.6c0.1,0,0.3,0.1,0.3,0.2c-0.2,0.1-0.3,0-0.6,0C56.8,27.6,57.1,27.8,57.2,27.6z"/>
		<path class="st3" d="M57.3,30.7c0.2,0,0.1,0.2,0.1,0.3C57.1,31,57.4,30.8,57.3,30.7z"/>
		<path class="st3" d="M61.7,30.6c0.3,0,0.1,0.4-0.1,0.3C61.5,30.8,61.7,30.8,61.7,30.6z"/>
		<path class="st3" d="M67.9,25.3c0.2,0,0.3,0.2,0.2,0.3c0,0,0,0,0,0.1C67.9,25.6,68,25.4,67.9,25.3z"/>
		<path class="st3" d="M67.9,26c0.3,0,0,0.4,0.2,0.6C67.9,26.5,67.9,26.1,67.9,26z"/>
		<path class="st3" d="M67.3,27.2c0.3,0,0.3,0.3,0.3,0.5c-0.2,0-0.2-0.3-0.4-0.1C67.1,27.5,67.4,27.3,67.3,27.2z"/>
		<path class="st3" d="M67.7,28.1c-0.2,0.1-0.2,0-0.3,0c0.1-0.1,0-0.3,0.2-0.3c0,0-0.1,0.1-0.1,0.1C67.6,28,67.8,28,67.7,28.1z"/>
		<path class="st3" d="M67.8,28c0.3,0.1-0.3,0.3,0,0.5C67.5,28.4,67.6,28.1,67.8,28z"/>
		<path class="st3" d="M52.6,20.3c0.3,0,0.1,0.2,0,0.2C52.4,20.5,52.8,20.4,52.6,20.3z"/>
		<path class="st3" d="M56.2,24.9c0.3,0,0.4,0.2,0,0.2L56.2,24.9z"/>
		<path class="st3" d="M56.3,25.8c0.1,0.1,0.2,0.2,0.2,0.3C56.2,26.2,56.4,25.9,56.3,25.8z"/>
		<path class="st3" d="M57.4,26.3c0.1-0.2,0.4,0.3,0,0.2C57.3,26.5,57.6,26.4,57.4,26.3z"/>
		<path class="st3" d="M54.9,20.7c0.2-0.1-0.1,0.4,0,0.5C54.6,21.1,54.9,20.9,54.9,20.7z"/>
		<path class="st3" d="M51,23.9c0.2,0.3-0.2,0.7-0.4,0.9C50.4,24.6,51,24.3,51,23.9z"/>
		<path class="st3" d="M55.1,23.7c0.5,0-0.3,0.3,0.2,0.3c0,0.1-0.2,0.1-0.3,0.1C55,24,55.1,23.8,55.1,23.7z"/>
		<path class="st3" d="M52.1,24.1c0.2,0,0.1,0.2,0.1,0.2c-0.1,0-0.3,0-0.4,0C51.8,24.2,52,24.2,52.1,24.1z"/>
		<path class="st3" d="M52.7,24.3c0.2,0,0.4,0.2,0.2,0.2C52.8,24.6,52.7,24.5,52.7,24.3z"/>
		<path class="st3" d="M52.1,24.9c0.2,0.1,0.5,0.4,0.2,0.6c-0.2-0.1,0-0.2-0.3-0.1C52.2,25.2,52.2,25.1,52.1,24.9z"/>
		<path class="st3" d="M52.1,26.2c0.4-0.1,0.5,0.8-0.1,0.7c0-0.1,0.2,0,0.2-0.1C52,26.7,52.3,26.4,52.1,26.2z"/>
		<path class="st3" d="M55.1,24.2c0.1,0,0.2,0,0.3,0c0,0.1-0.6,0.1-0.3,0.3c-0.1,0.1-0.1-0.1-0.3-0.1C55,24.3,55.2,24.3,55.1,24.2z"
			/>
		<path class="st3" d="M51.9,24.4c0.4,0,0,0.3,0,0.4c-0.1,0-0.2,0-0.3,0c0.2,0.2-0.2,0.1-0.2,0.3c0,0.1,0.2,0,0.2,0.1
			c0.1,0.1-0.1,0.2-0.3,0.2c0.1-0.2,0.1-0.2,0-0.5l0.3,0c0-0.1,0-0.2,0.1-0.2c-0.2,0-0.3,0.1-0.4,0c-0.2,0,0.1,0.2-0.2,0.2
			c0.1-0.1,0.2-0.2,0.2-0.3c0.1,0.2,0.3,0.1,0.6,0c-0.2,0.1,0,0.1,0,0.2C52,24.8,51.9,24.6,51.9,24.4z"/>
		<path class="st3" d="M55.5,24.4c-0.1,0.1-0.2,0.2-0.1,0.3c-0.1,0-0.2,0-0.2,0.1C55.2,24.8,55.2,24.4,55.5,24.4z"/>
		<path class="st3" d="M51.7,25.4c0.3,0.1-0.1,0.3-0.3,0.3c0.1,0,0.2,0,0.2,0.1C50.9,25.7,51.6,25.5,51.7,25.4z"/>
		<path class="st3" d="M61.9,23.9c0.2,0.3-0.2,0.7-0.4,0.9C61.2,24.6,61.8,24.3,61.9,23.9z"/>
		<path class="st3" d="M66,23.7c0.5,0-0.3,0.3,0.2,0.3c0,0.1-0.2,0.1-0.3,0.1C65.9,23.9,65.9,23.8,66,23.7z"/>
		<path class="st3" d="M62.9,24.1c0.2,0,0.1,0.2,0.1,0.2c-0.1,0-0.3,0-0.4,0C62.7,24.2,62.9,24.2,62.9,24.1z"/>
		<path class="st3" d="M63.6,24.3c0.2,0,0.4,0.2,0.2,0.2C63.6,24.6,63.5,24.5,63.6,24.3z"/>
		<path class="st3" d="M63,24.8c0.2,0.1,0.5,0.4,0.2,0.6c-0.2-0.1,0-0.2-0.3-0.1C63.1,25.2,63,25,63,24.8z"/>
		<path class="st3" d="M62.9,26.2c0.4-0.1,0.5,0.8-0.1,0.7c0-0.1,0.2,0,0.2-0.1C62.9,26.7,63.2,26.4,62.9,26.2z"/>
		<path class="st3" d="M63.8,28.7c0.2,0,0.1,0.2,0.1,0.3C63.7,29,63.7,28.8,63.8,28.7z"/>
		<path class="st3" d="M66,24.1c0.1,0,0.2,0,0.3,0c0,0.1-0.6,0.1-0.3,0.3c-0.1,0.2-0.1-0.1-0.3-0.1C65.9,24.3,66,24.3,66,24.1z"/>
		<path class="st3" d="M62.8,24.4c0.4,0,0,0.3-0.1,0.4c-0.1,0-0.2,0-0.3,0c0.2,0.2-0.2,0.1-0.2,0.3c0,0,0.2,0,0.2,0.1
			c0.1,0.1-0.1,0.2-0.3,0.2c0.1-0.3,0.1-0.2,0-0.5l0.3,0c0-0.1,0-0.2,0.1-0.2c-0.2,0-0.3,0.1-0.4,0c-0.2,0,0.1,0.2-0.2,0.2
			c0.1-0.1,0.2-0.2,0.2-0.3c0.1,0.2,0.3,0.1,0.6,0c-0.2,0.1,0,0.1,0,0.2C62.9,24.8,62.8,24.6,62.8,24.4z"/>
		<path class="st3" d="M66.4,24.4c-0.1,0.1-0.2,0.2-0.1,0.3c-0.1,0-0.2,0-0.2,0.1C66,24.8,66.1,24.4,66.4,24.4z"/>
		<path class="st3" d="M62.5,25.4c0.3,0.1-0.1,0.3-0.3,0.3c0.1,0,0.2,0,0.2,0.1C61.8,25.7,62.5,25.5,62.5,25.4z"/>
		<path class="st3" d="M63.7,20.1c0.1,0.1-0.1,0.3-0.2,0.4C63.4,20.4,63.7,20.2,63.7,20.1z"/>
		<path class="st3" d="M69,22.2c0.2,0,0.1,0.2,0.1,0.2c-0.1,0-0.3,0-0.4,0C68.7,22.3,69,22.3,69,22.2z"/>
		<path class="st3" d="M69.6,22.4c0.2,0,0.4,0.2,0.2,0.2C69.7,22.6,69.6,22.5,69.6,22.4z"/>
		<path class="st3" d="M69.1,22.9c0.2,0.1,0.5,0.4,0.2,0.6c-0.2-0.1,0-0.2-0.3-0.1C69.1,23.3,69.1,23.1,69.1,22.9z"/>
		<path class="st3" d="M70.1,21.3c0.4-0.1,0.5,0.8-0.1,0.7c0-0.1,0.2,0,0.2-0.1C70,21.8,70.4,21.5,70.1,21.3z"/>
		<path class="st3" d="M69.9,26.8c0.2,0,0.1,0.2,0.1,0.3C69.8,27.1,69.8,26.9,69.9,26.8z"/>
		<path class="st3" d="M64.1,20.3c0.2,0,0,0.1,0,0.2c0,0-0.1,0-0.1,0c0.1,0.1-0.1,0.1-0.1,0.1c0,0,0.1,0,0.1,0c0,0.1,0,0.1-0.1,0.1
			c0.1-0.1,0-0.1,0-0.2l0.1,0c0,0,0-0.1,0-0.1c-0.1,0-0.1,0-0.2,0c-0.1,0,0,0.1-0.1,0.1c0,0,0.1-0.1,0.1-0.1c0.1,0.1,0.1,0,0.3,0
			c-0.1,0,0,0.1,0,0.1C64.2,20.5,64.1,20.4,64.1,20.3z"/>
		<path class="st3" d="M64,20.7c0.1,0.1-0.1,0.1-0.1,0.1c0,0,0.1,0,0.1,0.1C63.7,20.9,64,20.8,64,20.7z"/>
		<path class="st3" d="M58.6,14c0-0.1-0.1-0.3,0.2-0.2c-0.1,0.3,0.4,0.3,0.6,0.2c0.1,0,0.1,0.1,0.3,0.1C59.4,14.2,59,14,58.6,14z"/>
		<path class="st3" d="M59.6,14.7c-0.3,0-0.5,0.2-0.6,0.1C59.1,14.6,59.4,14.8,59.6,14.7c0,0,0.1,0,0.2,0c-0.2,0.3,0.1,0.4,0.1,0.8
			c-0.2,0-0.2-0.2-0.1-0.2c-0.3,0.1-0.3-0.2-0.5-0.3l0.4,0L59.6,14.7z"/>
		<path class="st3" d="M63.6,16.4c-0.4-0.1-0.3,0.2-0.4,0.3C62.9,16.6,63.5,16.1,63.6,16.4z"/>
		<path class="st3" d="M58.4,18.4c0-0.1,0-0.4,0.1-0.1C58.5,18.3,58.5,18.3,58.4,18.4z"/>
		<path class="st3" d="M58.7,18.7c-0.1-0.1-0.1-0.2-0.1-0.3c0.1,0.1,0.2,0,0.3-0.1c0,0.1,0,0.2-0.1,0.2c0,0,0,0-0.1,0
			c0,0,0.1,0,0.2,0c0,0-0.1,0.1,0,0.1c0,0,0,0,0,0C58.9,18.8,58.8,18.6,58.7,18.7z"/>
		<path class="st3" d="M58.3,18.7c0.3,0.2,0.5,0.5,0.6,0.9c0,0,0.1,0,0.2,0c-0.1,0.1-0.1,0.1-0.3,0.1c0,0.1,0.1,0.1,0,0.2
			c0,0,0.1,0.1,0.2,0c0,0.5,0.1,1,0.3,1.5c-0.2-0.1-0.1,0.1-0.3,0.1c0,0,0.1,0,0.1,0.1c0.1,0,0-0.1,0.2-0.1c-0.1,0.1,0,0.2-0.3,0.3
			c-0.2,0,0.2-0.2-0.1-0.1c-0.1-0.9,0-1.4-0.1-2.3c0-0.1-0.1,0-0.2-0.1c0.1,0,0-0.1,0.1-0.1c-0.1-0.1-0.1-0.1-0.2-0.1
			C58.3,18.9,58.4,18.7,58.3,18.7z"/>
		<path class="st3" d="M58.6,15.7c0.1,0,0.1,0.1,0.1,0.1c0,0,0.1,0,0.1-0.1c0.3,0.1,0.1,0.4,0.2,0.6c-0.2-0.1-0.3,0.5,0,0.5
			c0,0.1-0.1,0.1-0.1,0.1c0.1,0.1,0.2,0.1,0.2,0.1c-0.1,0-0.1,0-0.2,0c0.1,0.1-0.2,0.1-0.3,0.2c0.1,0,0.1,0.1,0.1,0.1
			c-0.1-0.1-0.1,0-0.1,0.1c-0.1-0.1-0.2-0.2-0.3-0.3c0.1,0,0.1,0,0.1,0c0.1-0.1,0.1-0.2,0.1-0.3c0.1,0,0.1,0,0.2,0
			c-0.1-0.1,0-0.3-0.2-0.3c0-0.1,0.1-0.1,0.1-0.2c0.2,0,0,0.1,0,0.1c0,0,0.1,0,0.1,0C58.7,16.4,58.7,16.1,58.6,15.7z"/>
		<path class="st3" d="M57.2,16c0.1,0,0.1-0.2,0.2-0.2c0,0.1-0.1,0.2-0.1,0.3C57.3,16.2,57.2,16.1,57.2,16z"/>
		<path class="st3" d="M55.6,25.3c-0.2-0.3-0.1-0.4-0.2-0.7c0.1,0,0.2,0,0.2,0.1c0.1,0,0.2-0.1,0.3-0.1c-0.2,0.3-0.1,0.5,0.1,0.7
			C55.9,25.3,55.6,25,55.6,25.3z"/>
		<path class="st3" d="M55.8,26c0.2-0.1-0.1,0.2-0.3,0.2c0.1,0,0.1-0.1,0.1-0.2C55.7,25.9,55.8,26.1,55.8,26z"/>
		<path class="st3" d="M62.3,24.3c0.2,0.1,0.2,0.2,0.4,0.4c-0.1,0-0.1,0.1-0.2,0.1c-0.2,0,0-0.2-0.3-0.1
			C62.3,24.5,62.2,24.5,62.3,24.3z"/>
		<path class="st3" d="M65.4,17.3c0.2,0.1,0.3,0.3-0.2,0.2C65.2,17.4,65.5,17.4,65.4,17.3z"/>
		<path class="st3" d="M51.4,25.8c0.2,0.3-0.2,0.7-0.4,0.9C50.7,26.5,51.3,26.1,51.4,25.8z"/>
		<path class="st3" d="M55.5,25.6c0.5,0-0.3,0.3,0.2,0.3c0,0.1-0.2,0.1-0.3,0.1C55.4,25.8,55.4,25.7,55.5,25.6z"/>
		<path class="st3" d="M52.4,26c0.2,0,0.1,0.2,0.1,0.2c-0.1,0-0.3,0-0.4,0C52.1,26.1,52.4,26.1,52.4,26z"/>
		<path class="st3" d="M53,26.2c0.2,0,0.4,0.2,0.2,0.2C53.1,26.4,53,26.3,53,26.2z"/>
		<path class="st3" d="M52.5,26.7c0.2,0.1,0.5,0.4,0.2,0.6c-0.2-0.1,0-0.2-0.3-0.1C52.5,27.1,52.5,26.9,52.5,26.7z"/>
		<path class="st3" d="M55.4,14.6c0.4-0.1,0.5,0.8-0.1,0.7c0-0.1,0.2-0.1,0.3-0.1C55.3,15,55.6,14.7,55.4,14.6z"/>
		<path class="st3" d="M56.2,17.1c0.2,0,0.1,0.2,0.1,0.3C56.1,17.4,56.2,17.2,56.2,17.1z"/>
		<path class="st3" d="M55.5,26c0.1,0,0.2,0,0.3,0c0,0.1-0.6,0.1-0.3,0.3c-0.1,0.1-0.1-0.1-0.3-0.1C55.3,26.2,55.5,26.2,55.5,26z"/>
		<path class="st3" d="M52.3,26.3c0.4,0,0,0.3,0,0.4c-0.1,0-0.2,0-0.3,0c0.2,0.2-0.2,0.1-0.2,0.3c0,0,0.2,0,0.2,0.1
			c0.1,0.1-0.1,0.2-0.3,0.2c0.1-0.2,0.1-0.2,0-0.5l0.3,0c0-0.1,0-0.2,0.1-0.2c-0.2,0-0.3,0.1-0.4,0c-0.2,0,0.1,0.2-0.2,0.2
			c0.1-0.1,0.2-0.2,0.2-0.3c0.1,0.2,0.3,0.1,0.6,0c-0.2,0.1,0,0.1,0,0.2C52.4,26.7,52.3,26.5,52.3,26.3z"/>
		<path class="st3" d="M55.9,26.3c-0.1,0.1-0.2,0.2-0.1,0.3c-0.1,0-0.2,0-0.2,0.1C55.5,26.7,55.6,26.3,55.9,26.3z"/>
		<path class="st3" d="M52,27.2c0.3,0.1-0.1,0.3-0.3,0.3c0.1,0,0.2,0,0.2,0.1C51.3,27.6,52,27.4,52,27.2z"/>
		<path class="st3" d="M62.4,24.2c-0.2-0.3-0.1-0.4-0.2-0.7c0.1,0,0.2,0.1,0.2,0.1c0.1,0,0.2-0.1,0.2-0.1c-0.2,0.3-0.1,0.5,0.1,0.7
			C62.6,24.2,62.3,23.9,62.4,24.2z"/>
		<path class="st3" d="M62.6,24.9c0.2-0.1-0.1,0.2-0.3,0.2c0.1,0,0.1-0.1,0.1-0.2C62.4,24.8,62.5,25,62.6,24.9z"/>
		<path class="st3" d="M57.8,26.1C57.9,26.1,57.9,26.1,57.8,26.1l0.3,0c-0.4,0.1,0,0.6-0.6,0.6c0-0.1,0.1-0.1,0.2-0.1
			C57.8,26.3,57.8,26.2,57.8,26.1z"/>
		<path class="st3" d="M61.6,23.6c0,0.1-0.1,0.1-0.1,0.2c-0.1-0.1-0.2-0.1-0.2-0.2c-0.1,0-0.1,0-0.2,0c0-0.1,0.1-0.1,0-0.2
			c-0.1,0-0.1,0-0.1,0.1c-0.2,0,0-0.1-0.2-0.1c0-0.1,0.2,0,0.3,0c0.1,0,0.1-0.1,0.1-0.2c0.1,0,0.1,0.1,0.2,0
			C61.5,23.4,61.4,23.5,61.6,23.6z"/>
		<path class="st3" d="M56.1,17.8C56.1,17.8,56.1,17.8,56.1,17.8C56.1,17.8,56.1,17.8,56.1,17.8c0.1,0,0.1-0.1,0.2-0.1
			c0,0.1-0.1,0.1-0.1,0.2C56,18,56.1,17.8,56.1,17.8z"/>
		<path class="st3" d="M57,17.9c0.1,0,0.2,0,0.2,0.1c-0.2-0.1,0.1,0.1,0,0.2c0,0,0.2,0,0.2,0c-0.1,0.1,0,0.4-0.2,0.6
			c0.3,0-0.1,0.2,0.2,0.2c0,0-0.1,0-0.2,0.1c0.1,0.1-0.1,0.2,0,0.3c0,0-0.3,0-0.2,0.1c-0.2,0-0.1-0.1,0.1-0.1c0-0.1,0-0.2,0.1-0.2
			c0,0-0.1,0-0.2,0c0-0.1,0.1-0.1,0-0.2c0.4,0,0-0.3,0.3-0.4C57,18.3,57.1,18.1,57,17.9z"/>
		<path class="st3" d="M59.9,18.2c0.1,0,0.1,0.1,0.1,0.1c0,0,0,0,0,0c0.1,0,0.1,0,0.2,0c0,0.1,0.1,0.2,0.2,0.2
			c-0.2,0-0.1,0.5-0.4,0.5c0,0,0,0.1,0,0.1c-0.1,0-0.2,0.1-0.2,0.2c-0.3,0.1-0.3,0.4-0.6,0.4c0.1-0.1-0.1-0.2-0.1-0.2
			c-0.1-0.4,0.3-1.1-0.2-1.3c-0.1,0.1,0.2,0.1,0.1,0.3c-0.1-0.1-0.3-0.1-0.4-0.3c-0.1,0,0.1,0.1-0.1,0.1c-0.1,0,0-0.1,0-0.2
			c0.3,0.1,0.2-0.2,0.2-0.3c0.1,0,0.1,0.1,0.2,0c0,0.1-0.1,0.1,0,0.2c0.3-0.1,0.1-0.3,0.1-0.4c0,0.2,0.4,0.3,0.6,0.5
			c0,0.1,0,0.2,0.2,0.2c0,0.1-0.1,0-0.1,0.1c0.1,0.1,0.2,0,0.2,0.1c0,0,0.1,0,0.2,0c0.2-0.1-0.1-0.3,0.1-0.2c0,0-0.1,0-0.1-0.1
			c-0.1,0,0,0.1-0.1,0.1c-0.1,0,0-0.1,0.1-0.1C60,18.4,59.8,18.4,59.9,18.2z"/>
		<path class="st3" d="M56.7,18.2c0.1,0,0,0.1,0,0.1c-0.1,0-0.1,0-0.2,0C56.6,18.3,56.7,18.3,56.7,18.2z"/>
		<path class="st3" d="M56.9,19.1c0,0.1,0,0.2-0.1,0.3C56.8,19.4,56.7,19.2,56.9,19.1z"/>
		<path class="st3" d="M58.5,19.4c-0.3,0,0-0.3,0-0.4C58.6,19.2,58.6,19.3,58.5,19.4z"/>
		<path class="st3" d="M60.1,22.4c-0.1,0,0-0.1-0.3-0.1c0.2,0,0.1-0.2,0.3-0.2c-0.1-0.1-0.3-0.2-0.7-0.2c-0.4-0.3-0.1-0.7,0.2-0.9
			c0.6-0.1,1.1,0,1.2,0.2c0.2,0.3-0.5,0.7-0.2,1c-0.1,0.1-0.1,0.4-0.2,0.5c-0.2,0-0.1,0-0.3,0c-0.1-0.1,0-0.3-0.2-0.3
			C60,22.5,60,22.4,60.1,22.4z"/>
	</g>
</g>
</svg>
