<?xml version="1.0" encoding="utf-8"?>
<!-- Generator: Adobe Illustrator 24.3.0, SVG Export Plug-In . SVG Version: 6.00 Build 0)  -->
<svg version="1.1" id="Layer_1" xmlns="http://www.w3.org/2000/svg" xmlns:xlink="http://www.w3.org/1999/xlink" x="0px" y="0px"
	 viewBox="0 0 121.2 103.7" style="enable-background:new 0 0 121.2 103.7;" xml:space="preserve">
<style type="text/css">
	.st0{fill:#1341C4;}
	.st1{fill:#072B88;}
	.st2{fill:#001863;}
	.st3{fill-rule:evenodd;clip-rule:evenodd;fill:#5789DB;}
</style>
<g transform="translate(30.034 32.896)">
	<path class="st0" d="M67.4,33.1l-6.6-11l-22-12.7L20.2,8.7L0,29.3l9.1,25l39.3,16l4.1,0.6l11-28.8L67.4,33.1z"/>
	<path class="st1" d="M38.8,9.3l19.3,14.5L44.5,44.1L28.5,29L0,29.3l9.1,25l43.3,16.6l0,0l15-37.8l-6.6-11L38.8,9.3z"/>
	<path class="st2" d="M52.4,70.8l-7.9-26.7l13.6-20.3l9.3,9.2L52.4,70.8z"/>
	<g transform="translate(20.768 32.06)">
		<path class="st3" d="M70.4,33.6c0-0.1-0.1-0.2-0.3-0.2c0,0.2-0.1,0.2-0.1,0.5c0.1,0,0.1,0,0.2,0C70.2,33.6,70.2,33.6,70.4,33.6z"
			/>
		<path class="st3" d="M61.6,33.5c0.1-0.4-0.3-0.2-0.5-0.2C61.1,33.6,61.4,33.5,61.6,33.5z"/>
		<path class="st3" d="M22.5,2.4c0-0.2-0.5-0.5-0.5,0C22.2,2.2,22.2,2.3,22.5,2.4z"/>
		<path class="st3" d="M21.7,2.2c-0.5-0.5-0.5-0.3-1.3-0.4C20.7,2.3,21.2,2.2,21.7,2.2z"/>
		<path class="st3" d="M19.6,1.6c-0.2,0.5-0.7,0.2-1.1,0.2C18.8,2.1,19.5,2.5,19.6,1.6z"/>
		<path class="st3" d="M17.5,0.3c0-0.1-0.2-0.2-0.1-0.2c-0.1-0.3-0.3,0.1-0.3,0.3c0.1,0.1,0.2,0.1,0.3,0.1
			C17.4,0.4,17.4,0.4,17.5,0.3z"/>
		<path class="st3" d="M20.4,2.1c-0.1-0.1-0.6-0.5-0.6,0C20,1.9,20.1,2,20.4,2.1z"/>
		<path class="st3" d="M11.8,13.1c-0.1,0-0.2,0.1-0.3,0.2C11.8,13.4,11.8,13.2,11.8,13.1z"/>
		<path class="st3" d="M11.4,17.5C11.3,17.6,11.3,17.6,11.4,17.5c-0.2,0.1-0.2,0.3-0.1,0.5C11.3,17.9,11.3,17.8,11.4,17.5z"/>
		<path class="st3" d="M12,17.6c-0.1,0-0.2,0.2-0.3,0.2C12,17.8,12,17.8,12,17.6z"/>
		<path class="st3" d="M11.6,18.1C11.6,18.1,11.6,18,11.6,18.1c-0.2-0.1-0.2,0.1-0.3,0.1c0,0.1,0.1,0,0.1,0c0.2,0,0.1,0,0.3,0
			c0-0.1,0.1-0.2,0.2-0.2c-0.1-0.1-0.2-0.1-0.3-0.1C11.5,18,11.8,18,11.6,18.1z"/>
		<path class="st3" d="M11.2,18.2c-0.2,0-0.1,0.1-0.1,0.2c-0.1,0.1-0.3,0,0,0.1C11.2,18.4,11.1,18.3,11.2,18.2z"/>
		<path class="st3" d="M11.1,19.1C11,19,11,19.3,11,19.4C11.1,19.3,11.1,19.2,11.1,19.1z"/>
		<path class="st3" d="M11.4,19.7c0.1,0.1,0,0.1,0,0.1C11.6,19.8,11.6,19.7,11.4,19.7z"/>
		<path class="st3" d="M12.2,20c-0.1,0,0,0.1-0.1,0.2C12.4,20.2,12.3,20,12.2,20z"/>
		<path class="st3" d="M12.8,15.5l-0.1,0c-0.1,0,0,0.1,0,0.2C12.7,15.7,12.8,15.6,12.8,15.5z"/>
		<path class="st3" d="M11.3,16.3C11.3,16.3,11.2,16.3,11.3,16.3c0,0.1,0,0.1,0,0.1C11.4,16.4,11.4,16.3,11.3,16.3z"/>
		<path class="st3" d="M11.1,16.4c-0.1,0,0,0.1-0.1,0.1C11.2,16.5,11.2,16.4,11.1,16.4C11.2,16.4,11.1,16.4,11.1,16.4z"/>
		<path class="st3" d="M14.9,25.4c-0.2,0.1-0.2,0.2-0.4,0.4c0.1,0,0.1,0.1,0.2,0.1c0.2,0,0-0.2,0.3-0.1
			C14.8,25.6,14.9,25.6,14.9,25.4z"/>
		<path class="st3" d="M14.1,17.6c-0.2,0,0,0.1-0.1,0.2c-0.2,0-0.1-0.1-0.1-0.2c-0.3,0,0.1,0.2-0.2,0.2c0,0.1,0,0.1,0,0.2
			c0.1,0,0.1-0.1,0.1-0.1c0.1,0.1,0.1-0.1,0.3,0C14.1,17.8,14.1,17.7,14.1,17.6z"/>
		<path class="st3" d="M12.1,19.5c-0.1,0.1-0.1,0-0.2,0c0,0-0.1,0,0,0.1C11.9,19.5,12.2,19.6,12.1,19.5z"/>
		<path class="st3" d="M11,11.7c-0.2,0.1-0.3,0.3,0.1,0.2C11.3,11.8,11,11.8,11,11.7z"/>
		<path class="st3" d="M9.1,13c-0.3,0-0.2,0.4-0.1,0.5c-0.1,0.1-0.3,0.1-0.5,0.1c0.2,0.1,0.5,0.2,0.7,0.3c0.2-0.1,0.1-0.5-0.1-0.4
			C9.1,13.3,9.2,13.1,9.1,13z"/>
		<path class="st3" d="M13.2,20.7c-0.1,0,0,0.2,0,0.2C13.3,20.9,13.2,20.8,13.2,20.7z"/>
		<path class="st3" d="M14.2,21.4c0,0.1-0.1,0.1-0.2,0.2C14.2,21.6,14.2,21.5,14.2,21.4z"/>
		<path class="st3" d="M11,24.3c-0.3,0-0.5,0-0.5,0.2c0.2,0,0.4,0,0.6,0C11,24.4,10.9,24.3,11,24.3z"/>
		<path class="st3" d="M19.1,9.2c-0.5,0,0.3,0.3-0.2,0.3c0,0.1,0.2,0.1,0.3,0.1C19.2,9.5,19.2,9.3,19.1,9.2z"/>
		<path class="st3" d="M20.7,17.6c-0.2,0-0.3,0.1-0.3,0.3C20.6,17.8,20.6,17.7,20.7,17.6z"/>
		<path class="st3" d="M20.2,20.4c-0.3,0,0,0.4,0,0.6c0.2,0-0.1-0.3,0.3-0.2C20.1,20.7,20.3,20.7,20.2,20.4z"/>
		<path class="st3" d="M19.1,9.7c-0.1,0-0.2,0-0.3,0c0,0.1,0.6,0.1,0.3,0.3c0.1,0.2,0.1-0.1,0.3-0.1C19.2,9.8,19.1,9.8,19.1,9.7z"/>
		<path class="st3" d="M18.7,9.9c0.1,0.1,0.2,0.2,0.1,0.3c0.1,0,0.2,0,0.2,0.1C19.1,10.3,19,9.9,18.7,9.9z"/>
		<path class="st3" d="M16.6,15.5c-0.1,0-0.2,0.1-0.2,0.2c0.2,0,0.2,0.1,0.3,0.1c0,0,0-0.1,0-0.1C16.7,15.7,16.6,15.7,16.6,15.5z"/>
		<path class="st3" d="M16.2,21.7c-0.3-0.1-0.1,0.2-0.2,0.3C16.3,22.1,16.2,21.9,16.2,21.7z"/>
		<path class="st3" d="M19.5,27.6c0-0.1,0.2,0,0.3,0c0.1-0.3-0.5-0.5-0.2-0.8c0.2,0,0,0.2,0.1,0.3c0.2-0.1-0.1-0.2,0.1-0.4
			c-0.3-0.1-0.2,0-0.5-0.1c-0.1,0.4,0,0.4-0.1,0.9C19.6,27.4,19.4,27.8,19.5,27.6c-0.3,0.1-0.3,0.3,0,0.4c-0.1,0.1-0.2-0.1-0.3,0
			c0.2,0.2-0.2,0.5,0.2,0.5c0,0.1,0,0.1,0.1,0.1c-0.1,0.1-0.4-0.1-0.4,0.1c0.3-0.1,0.2,0.1,0.3,0.2c0.5-0.2,0.2-0.9,0.4-1.2
			C19.8,27.7,19.7,27.7,19.5,27.6z"/>
		<path class="st3" d="M10.2,16.2c-0.2,0.3,0.2,0.7,0.4,0.9C10.9,16.9,10.3,16.6,10.2,16.2z"/>
		<path class="st3" d="M6.1,16c-0.5,0,0.3,0.3-0.2,0.3c0,0.1,0.2,0.1,0.3,0.1C6.2,16.3,6.2,16.2,6.1,16z"/>
		<path class="st3" d="M9.2,16.4c-0.2,0-0.1,0.2-0.1,0.2c0.1,0,0.3,0,0.4,0C9.4,16.6,9.2,16.5,9.2,16.4z"/>
		<path class="st3" d="M8.5,16.7c-0.2,0-0.4,0.2-0.2,0.2C8.5,16.9,8.6,16.8,8.5,16.7z"/>
		<path class="st3" d="M9.1,17.2c-0.2,0.1-0.5,0.4-0.2,0.6c0.2-0.1,0-0.2,0.3-0.1C9,17.6,9.1,17.4,9.1,17.2z"/>
		<path class="st3" d="M9.2,18.5c-0.4-0.1-0.5,0.8,0.1,0.7c0-0.1-0.2,0-0.2-0.1C9.2,19,8.9,18.7,9.2,18.5z"/>
		<path class="st3" d="M8.3,21c-0.2,0-0.1,0.2-0.1,0.3C8.4,21.3,8.4,21.1,8.3,21z"/>
		<path class="st3" d="M7.7,24.4c-0.2,0-0.3,0.1-0.3,0.3C7.6,24.6,7.6,24.5,7.7,24.4z"/>
		<path class="st3" d="M7.2,27.2c-0.3,0,0,0.4-0.1,0.6c0.2,0-0.1-0.3,0.3-0.2C7.1,27.5,7.3,27.5,7.2,27.2z"/>
		<path class="st3" d="M6.1,16.5c-0.1,0-0.2,0-0.3,0c0,0.1,0.6,0.1,0.3,0.3c0.1,0.1,0.1-0.1,0.3-0.1C6.2,16.6,6.1,16.6,6.1,16.5z"/>
		<path class="st3" d="M9.3,16.8c-0.4,0,0,0.3,0.1,0.4c0.1,0,0.2,0,0.3,0c-0.2,0.2,0.2,0.1,0.2,0.3c0,0.1-0.2,0-0.2,0.1
			c-0.1,0.1,0.1,0.2,0.3,0.2c-0.1-0.2-0.1-0.2,0-0.5l-0.3,0c0-0.1,0-0.2-0.1-0.2c0.2,0,0.3,0.1,0.4,0c0.2,0-0.1,0.2,0.2,0.2
			c-0.1-0.1-0.2-0.2-0.2-0.3c-0.1,0.2-0.3,0.1-0.6,0c0.2,0.1,0,0.1,0,0.2C9.2,17.1,9.3,16.9,9.3,16.8z"/>
		<path class="st3" d="M5.7,16.7c0.1,0.1,0.2,0.2,0.1,0.3c0.1,0,0.2,0,0.2,0.1C6.1,17.1,6,16.7,5.7,16.7z"/>
		<path class="st3" d="M9.6,17.7c-0.3,0.1,0.1,0.3,0.3,0.3c-0.1,0-0.2,0-0.2,0.1C10.3,18,9.6,17.8,9.6,17.7z"/>
		<path class="st3" d="M18.3,15.9c-0.1,0.1,0.1,0.3,0.2,0.5C18.7,16.3,18.4,16.1,18.3,15.9z"/>
		<path class="st3" d="M16.2,15.8c-0.3,0,0.1,0.1-0.1,0.1c0,0,0.1,0,0.2,0C16.3,15.9,16.2,15.9,16.2,15.8z"/>
		<path class="st3" d="M17.8,16c-0.1,0,0,0.1-0.1,0.1c0.1,0,0.1,0,0.2,0C17.9,16.1,17.8,16.1,17.8,16z"/>
		<path class="st3" d="M17.5,16.1c-0.1,0-0.2,0.1-0.1,0.1C17.4,16.3,17.5,16.2,17.5,16.1z"/>
		<path class="st3" d="M17.8,16.4c-0.1,0.1-0.2,0.2-0.1,0.3c0.1,0,0-0.1,0.2,0C17.7,16.6,17.7,16.5,17.8,16.4z"/>
		<path class="st3" d="M17.8,17.1c-0.2-0.1-0.2,0.4,0.1,0.4c0,0-0.1,0-0.1,0C17.8,17.3,17.7,17.2,17.8,17.1z"/>
		<path class="st3" d="M16.2,16c-0.1,0-0.1,0-0.2,0c0,0.1,0.3,0.1,0.2,0.2c0,0.1,0.1,0,0.1,0C16.3,16.1,16.2,16.1,16.2,16z"/>
		<path class="st3" d="M17.9,16.2c-0.2,0,0,0.2,0,0.2c0,0,0.1,0,0.1,0c-0.1,0.1,0.1,0.1,0.1,0.2c0,0-0.1,0-0.1,0
			c0,0.1,0,0.1,0.2,0.1c-0.1-0.1,0-0.1,0-0.2l-0.1,0c0,0,0-0.1,0-0.1c0.1,0,0.2,0,0.2,0c0.1,0,0,0.1,0.1,0.1c0-0.1-0.1-0.1-0.1-0.2
			c-0.1,0.1-0.2,0-0.3,0c0.1,0.1,0,0.1,0,0.1C17.8,16.4,17.9,16.3,17.9,16.2z"/>
		<path class="st3" d="M16,16.2c0,0.1,0.1,0.1,0,0.1c0.1,0,0.1,0,0.1,0.1C16.2,16.4,16.2,16.2,16,16.2z"/>
		<path class="st3" d="M18,16.7c-0.2,0.1,0.1,0.1,0.2,0.2c0,0-0.1,0-0.1,0.1C18.4,16.9,18,16.8,18,16.7z"/>
		<path class="st3" d="M20.2,11.5c-0.2,0-0.1,0.2-0.1,0.3C20.3,11.8,20.3,11.6,20.2,11.5z"/>
		<path class="st3" d="M19.6,14.9c-0.2,0-0.3,0.1-0.3,0.3C19.5,15.1,19.5,15,19.6,14.9z"/>
		<path class="st3" d="M19.1,17.7c-0.3,0,0,0.4,0,0.6c0.2,0-0.1-0.3,0.3-0.2C19,18,19.2,18,19.1,17.7z"/>
		<path class="st3" d="M13.2,27.6c-0.1,0-0.3,0.1-0.3,0.2c0.2,0.1,0.3,0,0.6,0C13.6,27.6,13.3,27.8,13.2,27.6z"/>
		<path class="st3" d="M13.1,30.7c-0.2,0-0.1,0.2-0.1,0.3C13.3,31,13,30.8,13.1,30.7z"/>
		<path class="st3" d="M8.7,30.6c-0.3,0-0.1,0.4,0.1,0.3C8.9,30.8,8.7,30.8,8.7,30.6z"/>
		<path class="st3" d="M2.5,25.3c-0.2,0-0.3,0.2-0.2,0.4c0,0,0,0,0,0.1C2.5,25.6,2.5,25.4,2.5,25.3z"/>
		<path class="st3" d="M2.5,26c-0.3,0,0,0.4-0.2,0.6C2.5,26.5,2.5,26.1,2.5,26z"/>
		<path class="st3" d="M3.1,27.2c-0.3,0-0.3,0.3-0.3,0.5c0.2,0.1,0.2-0.3,0.4-0.1C3.3,27.5,3,27.3,3.1,27.2z"/>
		<path class="st3" d="M2.7,28.1c0.2,0.1,0.2,0,0.3,0c-0.1-0.1,0-0.3-0.2-0.3c0,0,0.1,0.1,0.1,0.1C2.8,28,2.6,28,2.7,28.1z"/>
		<path class="st3" d="M2.6,28c-0.3,0.1,0.3,0.3,0,0.5C3,28.4,2.8,28.1,2.6,28z"/>
		<path class="st3" d="M17.8,20.3c-0.3,0-0.1,0.2,0,0.2C18,20.5,17.6,20.4,17.8,20.3z"/>
		<path class="st3" d="M14.2,24.9c-0.3,0-0.4,0.2,0,0.2L14.2,24.9z"/>
		<path class="st3" d="M14.1,25.8c-0.1,0.1-0.2,0.2-0.2,0.3C14.2,26.2,14,25.9,14.1,25.8z"/>
		<path class="st3" d="M13,26.3c-0.1-0.2-0.4,0.3,0,0.2C13.1,26.5,12.8,26.4,13,26.3z"/>
		<path class="st3" d="M15.5,20.7c-0.2-0.1,0.1,0.4,0,0.5C15.8,21.1,15.5,20.9,15.5,20.7z"/>
		<path class="st3" d="M19.4,23.9c-0.2,0.3,0.2,0.7,0.4,0.9C20,24.6,19.5,24.3,19.4,23.9z"/>
		<path class="st3" d="M15.3,23.7c-0.5,0,0.3,0.3-0.2,0.3c0,0.1,0.2,0.1,0.3,0.1C15.4,24,15.3,23.8,15.3,23.7z"/>
		<path class="st3" d="M18.3,24.1c-0.2,0-0.1,0.2-0.1,0.2c0.1,0,0.3,0,0.4,0C18.6,24.2,18.4,24.2,18.3,24.1z"/>
		<path class="st3" d="M17.7,24.3c-0.2,0-0.4,0.2-0.2,0.2C17.7,24.6,17.7,24.5,17.7,24.3z"/>
		<path class="st3" d="M18.3,24.9c-0.2,0.1-0.5,0.4-0.2,0.6c0.2-0.1,0-0.2,0.3-0.1C18.2,25.2,18.3,25.1,18.3,24.9z"/>
		<path class="st3" d="M18.3,26.2c-0.4-0.1-0.5,0.8,0.1,0.7c0-0.1-0.2,0-0.3-0.1C18.4,26.7,18.1,26.4,18.3,26.2z"/>
		<path class="st3" d="M15.3,24.2c-0.1,0-0.2,0-0.3,0c0,0.1,0.6,0.1,0.3,0.3c0.1,0.1,0.1-0.1,0.3-0.1C15.4,24.3,15.2,24.3,15.3,24.2
			z"/>
		<path class="st3" d="M18.5,24.4c-0.4,0,0,0.3,0.1,0.4c0.1,0,0.2,0,0.3,0C18.6,25,19,25,19,25.1c0,0.1-0.2,0-0.2,0.1
			c-0.1,0.1,0.1,0.2,0.3,0.2c-0.1-0.2-0.1-0.2,0-0.5l-0.3,0c0-0.1,0-0.2-0.1-0.2c0.2,0,0.3,0.1,0.4,0c0.2,0-0.1,0.2,0.2,0.2
			c-0.1-0.1-0.2-0.2-0.2-0.3c-0.1,0.2-0.3,0.1-0.6,0c0.2,0.1,0,0.1,0,0.2C18.4,24.8,18.5,24.6,18.5,24.4z"/>
		<path class="st3" d="M14.9,24.4c0.1,0.1,0.2,0.2,0.1,0.3c0.1,0,0.2,0,0.2,0.1C15.2,24.8,15.2,24.4,14.9,24.4z"/>
		<path class="st3" d="M18.8,25.4c-0.3,0.1,0.1,0.3,0.3,0.3c-0.1,0-0.2,0-0.2,0.1C19.5,25.7,18.8,25.5,18.8,25.4z"/>
		<path class="st3" d="M8.5,23.9c-0.2,0.3,0.2,0.7,0.4,0.9C9.2,24.6,8.6,24.3,8.5,23.9z"/>
		<path class="st3" d="M4.4,23.7c-0.5,0,0.3,0.3-0.2,0.3c0,0.1,0.2,0.1,0.3,0.1C4.5,24,4.5,23.8,4.4,23.7z"/>
		<path class="st3" d="M7.5,24.1c-0.2,0-0.1,0.2-0.1,0.2c0.1,0,0.3,0,0.4,0C7.7,24.2,7.5,24.2,7.5,24.1z"/>
		<path class="st3" d="M6.9,24.3c-0.2,0-0.4,0.2-0.2,0.2C6.8,24.6,6.9,24.5,6.9,24.3z"/>
		<path class="st3" d="M7.4,24.8c-0.2,0.1-0.5,0.4-0.2,0.6c0.2-0.1,0-0.2,0.3-0.1C7.4,25.2,7.4,25,7.4,24.8z"/>
		<path class="st3" d="M7.5,26.2C7,26.1,7,27,7.6,26.9c0-0.1-0.2,0-0.2-0.1C7.5,26.7,7.2,26.4,7.5,26.2z"/>
		<path class="st3" d="M6.6,28.7c-0.2,0-0.1,0.2-0.1,0.3C6.7,29,6.7,28.8,6.6,28.7z"/>
		<path class="st3" d="M4.4,24.1c-0.1,0-0.2,0-0.3,0c0,0.1,0.6,0.1,0.3,0.3c0.1,0.2,0.1-0.1,0.3-0.1C4.5,24.3,4.4,24.3,4.4,24.1z"/>
		<path class="st3" d="M7.6,24.4c-0.4,0,0,0.3,0,0.4c0.1,0,0.2,0,0.3,0C7.7,25,8.1,25,8.2,25.1c0,0-0.2,0-0.2,0.1
			c-0.1,0.1,0.1,0.2,0.3,0.2c-0.1-0.3-0.1-0.2,0-0.5l-0.3,0c0-0.1,0-0.2-0.1-0.2c0.2,0,0.3,0.1,0.4,0c0.2,0-0.1,0.2,0.2,0.2
			c-0.1-0.1-0.2-0.2-0.2-0.3c-0.1,0.2-0.3,0.1-0.6,0c0.2,0.1,0,0.1,0,0.2C7.5,24.8,7.6,24.6,7.6,24.4z"/>
		<path class="st3" d="M4,24.4c0.1,0.1,0.2,0.2,0.1,0.3c0.1,0,0.2,0,0.2,0.1C4.4,24.8,4.3,24.4,4,24.4z"/>
		<path class="st3" d="M7.9,25.3c-0.3,0.1,0.1,0.3,0.3,0.3c-0.1,0-0.2,0-0.2,0.1C8.6,25.7,7.9,25.5,7.9,25.3z"/>
		<path class="st3" d="M6.7,20.1c-0.1,0.1,0.1,0.3,0.2,0.4C7,20.4,6.7,20.2,6.7,20.1z"/>
		<path class="st3" d="M1.4,22.2c-0.2,0-0.1,0.2-0.1,0.2c0.1,0,0.3,0,0.4,0C1.7,22.3,1.5,22.3,1.4,22.2z"/>
		<path class="st3" d="M0.8,22.4c-0.2,0-0.4,0.2-0.2,0.2C0.7,22.6,0.8,22.5,0.8,22.4z"/>
		<path class="st3" d="M1.3,22.9c-0.2,0.1-0.5,0.4-0.2,0.6c0.2-0.1,0-0.2,0.3-0.1C1.3,23.3,1.3,23.1,1.3,22.9z"/>
		<path class="st3" d="M0.3,21.3c-0.4-0.1-0.5,0.8,0.1,0.7c0-0.1-0.2-0.1-0.3-0.1C0.4,21.8,0.1,21.5,0.3,21.3z"/>
		<path class="st3" d="M0.5,26.8c-0.2,0-0.1,0.2-0.1,0.3C0.6,27.1,0.6,26.9,0.5,26.8z"/>
		<path class="st3" d="M6.3,20.3c-0.2,0,0,0.1,0,0.2c0,0,0.1,0,0.1,0c-0.1,0.1,0.1,0.1,0.1,0.1c0,0-0.1,0-0.1,0c0,0.1,0,0.1,0.1,0.1
			c-0.1-0.1,0-0.1,0-0.2l-0.1,0c0,0,0-0.1,0-0.1c0.1,0,0.1,0,0.2,0c0.1,0,0,0.1,0.1,0.1c0,0-0.1-0.1-0.1-0.1c-0.1,0.1-0.1,0-0.3,0
			c0.1,0,0,0.1,0,0.1C6.2,20.5,6.3,20.4,6.3,20.3z"/>
		<path class="st3" d="M6.4,20.7c-0.1,0.1,0.1,0.1,0.1,0.1c0,0-0.1,0-0.1,0.1C6.7,20.9,6.4,20.8,6.4,20.7z"/>
		<path class="st3" d="M11.8,14c0-0.1,0.1-0.3-0.1-0.2c0.1,0.3-0.4,0.3-0.6,0.2c-0.1,0-0.1,0.1-0.3,0.1C11,14.2,11.4,14,11.8,14z"/>
		<path class="st3" d="M10.8,14.7c0.3,0,0.5,0.2,0.6,0.1C11.3,14.6,11,14.8,10.8,14.7c0,0-0.1,0-0.2,0c0.2,0.3-0.1,0.4-0.1,0.8
			c0.1,0,0.2-0.2,0.1-0.2c0.3,0.1,0.3-0.2,0.5-0.3c-0.1,0-0.3,0-0.4,0C10.8,14.8,10.8,14.8,10.8,14.7z"/>
		<path class="st3" d="M6.8,16.4c0.4-0.1,0.3,0.2,0.4,0.3C7.5,16.6,6.9,16.1,6.8,16.4z"/>
		<path class="st3" d="M12,18.4C12,18.3,12,18,12,18.4C11.9,18.3,11.9,18.3,12,18.4z"/>
		<path class="st3" d="M11.7,18.7c0.1-0.1,0.1-0.2,0.1-0.3c-0.1,0.1-0.2,0-0.3-0.1c0,0.1,0,0.2,0.1,0.2c0,0,0,0,0.1,0
			c0,0-0.1,0-0.2,0c0,0,0.1,0.1,0,0.1c0,0,0,0,0,0C11.5,18.8,11.6,18.6,11.7,18.7z"/>
		<path class="st3" d="M12.1,18.7c-0.3,0.2-0.5,0.5-0.6,0.9c0,0-0.1,0-0.2,0c0.1,0.1,0.1,0.1,0.3,0.1c0,0.1-0.1,0.1,0,0.2
			c0,0-0.1,0.1-0.2,0c0,0.5-0.1,1-0.3,1.5c0.2-0.1,0.1,0.1,0.3,0.1c0,0-0.1,0-0.1,0.1c-0.1,0,0-0.1-0.2-0.1c0.1,0.1,0,0.2,0.3,0.3
			c0.2,0-0.2-0.2,0.1-0.1c0.1-0.9,0-1.4,0.1-2.3c0-0.1,0.1,0,0.2-0.1c-0.1,0,0-0.1-0.1-0.1c0.1-0.1,0.1-0.1,0.2-0.1
			C12.1,18.9,12,18.7,12.1,18.7z"/>
		<path class="st3" d="M11.8,15.7c-0.1,0-0.1,0.1-0.1,0.1c0,0-0.1,0-0.1-0.1c-0.3,0.1-0.1,0.4-0.2,0.6c0.2-0.1,0.3,0.5,0,0.5
			c0,0.1,0.1,0.1,0.1,0.1c-0.1,0.1-0.2,0.1-0.2,0.1c0.1,0,0.1,0,0.2,0c-0.1,0.1,0.2,0.1,0.3,0.2c-0.1,0-0.1,0.1-0.1,0.1
			c0.1-0.1,0.1,0,0.1,0.1c0.1-0.1,0.2-0.2,0.3-0.3c-0.1,0-0.1,0-0.1,0c-0.1-0.1-0.1-0.2-0.1-0.3c-0.1,0-0.1,0-0.2,0
			c0.1-0.1,0-0.3,0.2-0.3c0-0.1-0.1-0.1-0.1-0.2c-0.2,0,0,0.1,0,0.1c0,0-0.1,0-0.1,0C11.7,16.4,11.7,16.1,11.8,15.7z"/>
		<path class="st3" d="M13.2,16c-0.1,0-0.1-0.2-0.2-0.2c0,0.1,0.1,0.2,0.1,0.3C13.1,16.1,13.2,16,13.2,16z"/>
		<path class="st3" d="M14.8,25.3c0.2-0.3,0.1-0.4,0.2-0.7c-0.1,0-0.2,0.1-0.2,0.1c-0.1,0-0.2-0.1-0.2-0.1c0.2,0.3,0.1,0.5-0.1,0.7
			C14.5,25.3,14.8,25,14.8,25.3z"/>
		<path class="st3" d="M14.6,26c-0.2-0.1,0.1,0.2,0.3,0.2c-0.1,0-0.1-0.1-0.1-0.2C14.7,25.9,14.6,26.1,14.6,26z"/>
		<path class="st3" d="M8.1,24.3C8,24.4,8,24.5,7.8,24.7c0.1,0,0.1,0.1,0.2,0.1c0.2,0,0-0.2,0.3-0.1C8.1,24.5,8.2,24.5,8.1,24.3z"/>
		<path class="st3" d="M5,17.3c-0.2,0.1-0.3,0.3,0.2,0.2C5.2,17.4,4.9,17.4,5,17.3z"/>
		<path class="st3" d="M19,25.8c-0.2,0.3,0.2,0.7,0.4,0.9C19.7,26.5,19.1,26.1,19,25.8z"/>
		<path class="st3" d="M15,25.6c-0.5,0,0.3,0.3-0.2,0.3c0,0.1,0.2,0.1,0.3,0.1C15,25.8,15,25.7,15,25.6z"/>
		<path class="st3" d="M18,26c-0.2,0-0.1,0.2-0.1,0.2c0.1,0,0.3,0,0.4,0C18.3,26.1,18,26.1,18,26z"/>
		<path class="st3" d="M17.4,26.2c-0.2,0-0.4,0.2-0.2,0.2C17.3,26.4,17.4,26.3,17.4,26.2z"/>
		<path class="st3" d="M17.9,26.7c-0.2,0.1-0.5,0.4-0.2,0.6c0.2-0.1,0-0.2,0.3-0.1C17.9,27.1,17.9,26.9,17.9,26.7z"/>
		<path class="st3" d="M15,14.6c-0.4-0.1-0.5,0.8,0.1,0.7c0-0.1-0.2,0-0.2-0.1C15.1,15,14.8,14.7,15,14.6z"/>
		<path class="st3" d="M14.2,17.1c-0.2,0-0.1,0.2-0.1,0.3C14.3,17.4,14.2,17.2,14.2,17.1z"/>
		<path class="st3" d="M14.9,26c-0.1,0-0.2,0-0.3,0c0,0.1,0.6,0.1,0.3,0.3c0.1,0.1,0.1-0.1,0.3-0.1C15.1,26.2,14.9,26.2,14.9,26z"/>
		<path class="st3" d="M18.1,26.3c-0.4,0,0,0.3,0.1,0.4c0.1,0,0.2,0,0.3,0c-0.2,0.2,0.2,0.1,0.2,0.3c0,0.1-0.2,0-0.2,0.1
			c-0.1,0.1,0.1,0.2,0.3,0.2c-0.1-0.2-0.1-0.2,0-0.5l-0.3,0c0-0.1,0-0.2-0.1-0.2c0.2,0,0.3,0.1,0.4,0c0.2,0-0.1,0.2,0.2,0.2
			c-0.1-0.1-0.2-0.2-0.2-0.3c-0.1,0.2-0.3,0.1-0.6,0c0.2,0.1,0,0.1,0,0.2C18,26.7,18.1,26.5,18.1,26.3z"/>
		<path class="st3" d="M14.6,26.3c0.1,0.1,0.2,0.2,0.1,0.3c0.1,0,0.2,0,0.2,0.1C14.9,26.7,14.8,26.3,14.6,26.3z"/>
		<path class="st3" d="M18.4,27.2c-0.3,0.1,0.1,0.3,0.3,0.3c-0.1,0-0.2,0-0.2,0.1C19.1,27.6,18.4,27.4,18.4,27.2z"/>
		<path class="st3" d="M8.1,24.2c0.2-0.3,0.1-0.4,0.2-0.7c-0.1,0-0.2,0.1-0.2,0.1c-0.1,0-0.2-0.1-0.2-0.1c0.2,0.3,0.1,0.5-0.1,0.7
			C7.8,24.2,8.1,23.9,8.1,24.2z"/>
		<path class="st3" d="M7.8,24.9c-0.2-0.1,0.1,0.2,0.3,0.2c-0.1,0-0.1-0.1-0.1-0.2C8,24.8,7.9,25,7.8,24.9z"/>
		<path class="st3" d="M12.6,26.1C12.5,26.1,12.5,26.1,12.6,26.1l-0.3,0c0.4,0.1,0,0.6,0.6,0.6c0-0.1-0.1-0.1-0.2-0.1
			C12.6,26.3,12.6,26.2,12.6,26.1z"/>
		<path class="st3" d="M8.8,23.6c0,0.1,0.1,0.1,0.1,0.2c0.1-0.1,0.2-0.1,0.2-0.2c0.1,0,0.1,0,0.2,0c0-0.1-0.1-0.1,0-0.2
			c0.1,0,0.1,0,0.1,0.1c0.2,0,0-0.1,0.2-0.1c0-0.1-0.2,0-0.3,0c-0.1,0-0.1-0.1-0.1-0.2c-0.1,0-0.1,0.1-0.2,0
			C8.9,23.4,9,23.5,8.8,23.6z"/>
		<path class="st3" d="M14.4,17.8C14.3,17.8,14.3,17.8,14.4,17.8c-0.1,0-0.1-0.1-0.2-0.1c0,0.1,0.1,0.1,0.1,0.2
			C14.5,18,14.3,17.8,14.4,17.8z"/>
		<path class="st3" d="M13.4,18c-0.1,0-0.2,0-0.2,0.1c0.2-0.1-0.1,0.1,0,0.2c0,0-0.2,0-0.2,0c0.1,0.1,0,0.4,0.2,0.6
			c-0.3,0,0.1,0.2-0.2,0.2c0,0,0.1,0,0.2,0.1c-0.1,0.1,0.1,0.2,0,0.3c0,0,0.3,0,0.2,0.1c0.2,0,0.1-0.1-0.1-0.1c0-0.1,0-0.2-0.1-0.2
			c0,0,0.1,0,0.2,0c0-0.1-0.1-0.1,0-0.2c-0.4,0,0-0.3-0.3-0.4C13.4,18.3,13.3,18.1,13.4,18z"/>
		<path class="st3" d="M10.6,18.2c-0.1,0-0.1,0.1-0.1,0.1c0,0,0,0,0,0c-0.1,0-0.1,0-0.2,0c0,0.1-0.1,0.2-0.2,0.3
			c0.2,0,0.1,0.5,0.4,0.5c0,0,0,0,0,0.1c0.1,0,0.2,0.1,0.2,0.2c0.3,0.1,0.3,0.4,0.6,0.4c-0.1-0.1,0.1-0.2,0.1-0.1
			c0.1-0.4-0.3-1.1,0.2-1.3c0.1,0.1-0.2,0.1-0.1,0.3c0.1-0.1,0.3-0.1,0.4-0.3c0.1,0-0.1,0.1,0.1,0.1c0.1,0,0-0.1,0-0.2
			c-0.3,0.1-0.2-0.2-0.2-0.3c-0.1,0-0.1,0.1-0.2,0c0,0.1,0.1,0.1,0,0.2c-0.3-0.1-0.1-0.3-0.1-0.4c0,0.2-0.4,0.3-0.6,0.5
			c0,0.1,0,0.2-0.2,0.2c0,0.1,0.1,0,0.1,0.1c-0.1,0.1-0.2,0-0.2,0.1c0,0-0.1,0-0.2,0c-0.2-0.1,0.1-0.3-0.1-0.2c0,0,0.1,0,0.1-0.1
			c0.1,0,0,0.1,0.1,0.1c0.1,0,0-0.1-0.1-0.1C10.4,18.4,10.6,18.4,10.6,18.2z"/>
		<path class="st3" d="M13.7,18.2c-0.1,0,0,0.1,0,0.1c0.1,0,0.1,0,0.2,0C13.8,18.3,13.7,18.3,13.7,18.2z"/>
		<path class="st3" d="M13.5,19.1c0,0.1,0,0.2,0.1,0.3C13.6,19.4,13.7,19.2,13.5,19.1z"/>
		<path class="st3" d="M11.9,19.4c0.3,0,0-0.3,0-0.4C11.8,19.2,11.8,19.3,11.9,19.4z"/>
		<path class="st3" d="M10.3,22.4c0.1,0,0-0.1,0.3-0.1c-0.2,0-0.1-0.2-0.3-0.2c0.1-0.1,0.3-0.2,0.7-0.2c0.4-0.3,0.1-0.7-0.2-0.9
			C10,21,9.6,21,9.5,21.3c-0.2,0.3,0.5,0.7,0.2,1c0.1,0.1,0.1,0.4,0.2,0.5c0.2,0,0.1,0,0.3,0c0.1-0.1,0-0.3,0.2-0.3
			C10.4,22.5,10.4,22.4,10.3,22.4z"/>
	</g>
	<g transform="translate(9.091)">
		<path class="st3" d="M70.4,33.6c0-0.1-0.1-0.2-0.3-0.2c0,0.2-0.1,0.2-0.1,0.5l0.2,0C70.2,33.6,70.2,33.6,70.4,33.6z"/>
		<path class="st3" d="M61.6,33.5c0.1-0.4-0.3-0.2-0.5-0.2C61.1,33.6,61.4,33.5,61.6,33.5z"/>
		<path class="st3" d="M22.5,2.4c0-0.2-0.5-0.5-0.5,0C22.2,2.2,22.2,2.3,22.5,2.4z"/>
		<path class="st3" d="M21.7,2.2c-0.5-0.5-0.5-0.3-1.3-0.4C20.7,2.3,21.2,2.2,21.7,2.2z"/>
		<path class="st3" d="M19.6,1.6c-0.2,0.5-0.7,0.2-1.1,0.2C18.8,2.1,19.5,2.5,19.6,1.6z"/>
		<path class="st3" d="M17.5,0.3c0-0.1-0.2-0.2-0.1-0.2c-0.1-0.3-0.3,0.1-0.3,0.3c0.1,0.1,0.2,0.1,0.3,0.1
			C17.4,0.4,17.4,0.4,17.5,0.3z"/>
		<path class="st3" d="M20.4,2.1c-0.1-0.1-0.6-0.5-0.6,0C20,1.9,20.1,2,20.4,2.1z"/>
		<path class="st3" d="M11.8,13.1c-0.1,0-0.2,0.1-0.3,0.2C11.8,13.4,11.8,13.2,11.8,13.1z"/>
		<path class="st3" d="M11.4,17.5C11.3,17.6,11.3,17.6,11.4,17.5c-0.2,0.1-0.2,0.3-0.1,0.5C11.3,17.9,11.3,17.8,11.4,17.5z"/>
		<path class="st3" d="M12,17.6c-0.1,0-0.2,0.2-0.3,0.2C12,17.8,12,17.8,12,17.6z"/>
		<path class="st3" d="M11.6,18.1C11.6,18.1,11.6,18,11.6,18.1c-0.2-0.1-0.2,0.1-0.3,0.1c0,0,0.1,0,0.1,0c0.2,0,0.1,0,0.3,0
			c0-0.1,0.1-0.2,0.2-0.2c-0.1-0.1-0.2-0.1-0.3-0.1C11.5,18,11.8,18,11.6,18.1z"/>
		<path class="st3" d="M11.2,18.2c-0.2,0-0.1,0.1-0.1,0.2c-0.1,0.1-0.3,0,0,0.1C11.2,18.4,11.1,18.3,11.2,18.2z"/>
		<path class="st3" d="M11.1,19.1C11,19,11,19.3,11,19.4C11.1,19.3,11.1,19.2,11.1,19.1z"/>
		<path class="st3" d="M11.4,19.7c0.1,0.1,0,0.1,0,0.1C11.6,19.8,11.6,19.6,11.4,19.7z"/>
		<path class="st3" d="M12.2,20c-0.1,0,0,0.1-0.1,0.2C12.4,20.2,12.3,20,12.2,20z"/>
		<path class="st3" d="M12.8,15.5l-0.1,0c-0.1,0,0,0.1,0,0.2C12.7,15.7,12.8,15.6,12.8,15.5z"/>
		<path class="st3" d="M11.3,16.3C11.3,16.3,11.2,16.3,11.3,16.3c0,0.1,0,0.1,0,0.1C11.4,16.4,11.4,16.3,11.3,16.3z"/>
		<path class="st3" d="M11.1,16.4c-0.1,0,0,0.1-0.1,0.1C11.2,16.5,11.2,16.4,11.1,16.4C11.2,16.4,11.1,16.4,11.1,16.4z"/>
		<path class="st3" d="M14.9,25.4c-0.2,0.1-0.2,0.2-0.4,0.4c0.1,0,0.1,0.1,0.2,0.1c0.2,0,0-0.2,0.3-0.1
			C14.8,25.6,14.9,25.6,14.9,25.4z"/>
		<path class="st3" d="M14.1,17.6c-0.2,0,0,0.1-0.1,0.2c-0.2,0-0.1-0.1-0.1-0.2c-0.3,0,0.1,0.2-0.2,0.2c0,0.1,0,0.1,0,0.2
			c0.1,0,0.1-0.1,0.1-0.1c0.1,0.1,0.1-0.1,0.3,0C14.1,17.8,14.1,17.7,14.1,17.6z"/>
		<path class="st3" d="M12.1,19.5c-0.1,0.1-0.1,0-0.2,0c0,0-0.1,0,0,0.1C11.9,19.5,12.2,19.6,12.1,19.5z"/>
		<path class="st3" d="M11,11.7c-0.2,0.1-0.3,0.3,0.2,0.2C11.3,11.8,11,11.8,11,11.7z"/>
		<path class="st3" d="M9.1,13c-0.3,0-0.2,0.4-0.1,0.5c-0.1,0.1-0.3,0.1-0.5,0.1c0.2,0.1,0.5,0.2,0.7,0.3c0.2-0.1,0.1-0.5-0.1-0.4
			C9.1,13.3,9.2,13.1,9.1,13z"/>
		<path class="st3" d="M13.2,20.7c-0.1,0,0,0.2,0,0.2C13.3,20.9,13.2,20.8,13.2,20.7z"/>
		<path class="st3" d="M14.2,21.4c0,0.1-0.1,0.1-0.2,0.2C14.2,21.6,14.2,21.5,14.2,21.4z"/>
		<path class="st3" d="M11,24.3c-0.3,0-0.5,0-0.5,0.2c0.2,0,0.4,0,0.6,0C11,24.4,10.9,24.3,11,24.3z"/>
		<path class="st3" d="M19.1,9.2c-0.5,0,0.3,0.3-0.2,0.3c0,0.1,0.2,0.1,0.3,0.1C19.2,9.5,19.2,9.3,19.1,9.2z"/>
		<path class="st3" d="M20.7,17.6c-0.2,0-0.3,0.1-0.3,0.3C20.6,17.8,20.6,17.7,20.7,17.6z"/>
		<path class="st3" d="M20.2,20.4c-0.3,0,0,0.4,0,0.6c0.2,0-0.1-0.3,0.3-0.2C20.1,20.7,20.3,20.7,20.2,20.4z"/>
		<path class="st3" d="M19.1,9.7c-0.1,0-0.2,0-0.3,0c0,0.1,0.6,0.1,0.3,0.3c0.1,0.2,0.1-0.1,0.3-0.1C19.2,9.8,19.1,9.8,19.1,9.7z"/>
		<path class="st3" d="M18.7,9.9c0.1,0.1,0.2,0.2,0.1,0.3c0.1,0,0.2,0,0.2,0.1C19.1,10.3,19,9.9,18.7,9.9z"/>
		<path class="st3" d="M16.6,15.5c-0.1,0-0.2,0.1-0.2,0.2c0.2,0,0.2,0.1,0.3,0.1c0,0,0-0.1,0-0.1C16.7,15.7,16.6,15.7,16.6,15.5z"/>
		<path class="st3" d="M16.2,21.7c-0.3-0.1-0.1,0.2-0.2,0.3C16.3,22.1,16.2,21.9,16.2,21.7z"/>
		<path class="st3" d="M19.5,27.7c0-0.1,0.2,0,0.3,0c0.1-0.3-0.5-0.5-0.2-0.8c0.2,0,0,0.2,0.1,0.3c0.2-0.1-0.1-0.2,0.1-0.4
			c-0.3-0.1-0.2,0-0.5-0.1c-0.1,0.4,0,0.4-0.1,0.9C19.6,27.4,19.4,27.8,19.5,27.7c-0.3,0.1-0.3,0.3,0,0.4c-0.1,0.1-0.2-0.1-0.3,0
			c0.2,0.2-0.2,0.5,0.2,0.5c0,0.1,0,0.1,0.1,0.1c-0.1,0.1-0.4-0.1-0.3,0.1c0.3-0.1,0.2,0.1,0.3,0.2c0.5-0.2,0.2-0.9,0.4-1.2
			C19.8,27.7,19.7,27.7,19.5,27.7z"/>
		<path class="st3" d="M10.2,16.2c-0.2,0.3,0.2,0.7,0.4,0.9C10.9,16.9,10.3,16.6,10.2,16.2z"/>
		<path class="st3" d="M6.1,16c-0.5,0,0.3,0.3-0.2,0.3c0,0.1,0.2,0.1,0.3,0.1C6.2,16.3,6.2,16.2,6.1,16z"/>
		<path class="st3" d="M9.2,16.4c-0.2,0-0.1,0.2-0.1,0.2c0.1,0,0.3,0,0.4,0C9.4,16.6,9.2,16.5,9.2,16.4z"/>
		<path class="st3" d="M8.5,16.7c-0.2,0-0.4,0.2-0.2,0.2C8.5,16.9,8.6,16.8,8.5,16.7z"/>
		<path class="st3" d="M9.1,17.2c-0.2,0.1-0.5,0.4-0.2,0.6c0.2-0.1,0-0.2,0.3-0.1C9,17.6,9.1,17.4,9.1,17.2z"/>
		<path class="st3" d="M9.2,18.5c-0.4-0.1-0.5,0.8,0.1,0.7c0-0.1-0.2,0-0.3-0.1C9.2,19,8.9,18.7,9.2,18.5z"/>
		<path class="st3" d="M8.3,21c-0.2,0-0.1,0.2-0.1,0.3C8.4,21.3,8.4,21.1,8.3,21z"/>
		<path class="st3" d="M7.7,24.4c-0.2,0-0.3,0.1-0.3,0.3C7.6,24.6,7.6,24.5,7.7,24.4z"/>
		<path class="st3" d="M7.2,27.2c-0.3,0,0,0.4,0,0.6c0.2,0-0.1-0.3,0.3-0.2C7.1,27.5,7.3,27.5,7.2,27.2z"/>
		<path class="st3" d="M6.1,16.5c-0.1,0-0.2,0-0.3,0c0,0.1,0.6,0.1,0.3,0.3c0.1,0.1,0.1-0.1,0.3-0.1C6.2,16.6,6.1,16.6,6.1,16.5z"/>
		<path class="st3" d="M9.3,16.7c-0.4,0,0,0.3,0,0.4c0.1,0,0.2,0,0.3,0c-0.2,0.2,0.2,0.1,0.2,0.3c0,0-0.2,0-0.2,0.1
			c-0.1,0.1,0.1,0.2,0.3,0.2c-0.1-0.2-0.1-0.2,0-0.5l-0.3,0c0-0.1,0-0.2-0.1-0.2c0.2,0,0.3,0.1,0.4,0c0.2,0-0.1,0.2,0.2,0.2
			c-0.1-0.1-0.2-0.2-0.2-0.3c-0.1,0.2-0.3,0.1-0.6,0c0.2,0.1,0,0.1,0,0.2C9.2,17.1,9.3,16.9,9.3,16.7z"/>
		<path class="st3" d="M5.7,16.7c0.1,0.1,0.2,0.2,0.1,0.3c0.1,0,0.2,0,0.2,0.1C6.1,17.1,6,16.7,5.7,16.7z"/>
		<path class="st3" d="M9.6,17.7c-0.3,0.1,0.1,0.3,0.3,0.3c-0.1,0-0.2,0-0.2,0.1C10.3,18,9.6,17.8,9.6,17.7z"/>
		<path class="st3" d="M18.3,15.9c-0.1,0.1,0.1,0.4,0.2,0.5C18.7,16.3,18.4,16.1,18.3,15.9z"/>
		<path class="st3" d="M16.2,15.8c-0.3,0,0.1,0.2-0.1,0.1c0,0,0.1,0,0.2,0C16.3,15.9,16.2,15.9,16.2,15.8z"/>
		<path class="st3" d="M17.8,16c-0.1,0,0,0.1-0.1,0.1c0.1,0,0.1,0,0.2,0C17.9,16.1,17.8,16.1,17.8,16z"/>
		<path class="st3" d="M17.5,16.1c-0.1,0-0.2,0.1-0.1,0.1C17.4,16.3,17.5,16.2,17.5,16.1z"/>
		<path class="st3" d="M17.8,16.4c-0.1,0.1-0.2,0.2-0.1,0.3c0.1,0,0-0.1,0.2,0C17.7,16.6,17.7,16.5,17.8,16.4z"/>
		<path class="st3" d="M17.8,17.1c-0.2-0.1-0.2,0.4,0.1,0.4c0,0-0.1,0-0.1,0C17.8,17.3,17.7,17.2,17.8,17.1z"/>
		<path class="st3" d="M16.2,16c-0.1,0-0.1,0-0.2,0c0,0.1,0.3,0.1,0.2,0.2c0,0.1,0.1,0,0.1,0C16.3,16.1,16.2,16.1,16.2,16z"/>
		<path class="st3" d="M17.9,16.2c-0.2,0,0,0.2,0,0.2c0,0,0.1,0,0.1,0c-0.1,0.1,0.1,0.1,0.1,0.2c0,0-0.1,0-0.1,0
			c0,0.1,0,0.1,0.2,0.1c-0.1-0.1,0-0.1,0-0.2l-0.1,0c0,0,0-0.1,0-0.1c0.1,0,0.2,0,0.2,0c0.1,0,0,0.1,0.1,0.1c0-0.1-0.1-0.1-0.1-0.2
			c-0.1,0.1-0.2,0-0.3,0c0.1,0.1,0,0.1,0,0.1C17.8,16.4,17.9,16.3,17.9,16.2z"/>
		<path class="st3" d="M16,16.2c0.1,0.1,0.1,0.1,0,0.1c0.1,0,0.1,0,0.1,0.1C16.2,16.4,16.2,16.2,16,16.2z"/>
		<path class="st3" d="M18,16.7c-0.2,0.1,0.1,0.1,0.2,0.2c0,0-0.1,0-0.1,0.1C18.4,16.9,18,16.8,18,16.7z"/>
		<path class="st3" d="M20.2,11.5c-0.2,0-0.1,0.2-0.1,0.3C20.3,11.8,20.3,11.6,20.2,11.5z"/>
		<path class="st3" d="M19.6,14.9c-0.2,0-0.3,0.1-0.3,0.3C19.5,15.1,19.5,15,19.6,14.9z"/>
		<path class="st3" d="M19.1,17.7c-0.3,0,0,0.4-0.1,0.6c0.2,0-0.1-0.3,0.3-0.2C19,18,19.2,18,19.1,17.7z"/>
		<path class="st3" d="M13.2,27.6c-0.1,0-0.3,0.1-0.3,0.2c0.2,0.1,0.3,0,0.6,0C13.6,27.6,13.3,27.8,13.2,27.6z"/>
		<path class="st3" d="M13.1,30.7c-0.2,0-0.1,0.2-0.1,0.3C13.3,31,13,30.8,13.1,30.7z"/>
		<path class="st3" d="M8.7,30.6c-0.3,0-0.1,0.4,0.1,0.3C8.9,30.8,8.7,30.8,8.7,30.6z"/>
		<path class="st3" d="M2.5,25.3c-0.2,0-0.3,0.2-0.2,0.3c0,0,0,0,0,0.1C2.5,25.6,2.5,25.4,2.5,25.3z"/>
		<path class="st3" d="M2.5,26c-0.3,0,0,0.4-0.2,0.6C2.5,26.5,2.5,26.1,2.5,26z"/>
		<path class="st3" d="M3.1,27.2c-0.3,0-0.3,0.3-0.3,0.5c0.2,0,0.2-0.3,0.4-0.1C3.3,27.5,3,27.3,3.1,27.2z"/>
		<path class="st3" d="M2.7,28.1c0.2,0.1,0.2,0,0.3,0c-0.1-0.1,0-0.3-0.2-0.3c0,0,0.1,0.1,0.1,0.1C2.8,28,2.6,28,2.7,28.1z"/>
		<path class="st3" d="M2.6,28c-0.3,0.1,0.3,0.3,0,0.5C3,28.4,2.8,28.1,2.6,28z"/>
		<path class="st3" d="M17.8,20.3c-0.3,0-0.1,0.2,0,0.2C18,20.5,17.6,20.4,17.8,20.3z"/>
		<path class="st3" d="M14.2,24.9c-0.3,0-0.4,0.2,0,0.2L14.2,24.9z"/>
		<path class="st3" d="M14.1,25.8c-0.1,0.1-0.2,0.2-0.2,0.3C14.2,26.2,14,25.9,14.1,25.8z"/>
		<path class="st3" d="M13,26.3c-0.1-0.2-0.4,0.3,0,0.2C13.1,26.5,12.8,26.4,13,26.3z"/>
		<path class="st3" d="M15.5,20.7c-0.2-0.1,0.1,0.4,0,0.5C15.8,21.1,15.5,20.9,15.5,20.7z"/>
		<path class="st3" d="M19.4,23.9c-0.2,0.3,0.2,0.7,0.4,0.9C20,24.6,19.5,24.3,19.4,23.9z"/>
		<path class="st3" d="M15.3,23.7c-0.5,0,0.3,0.3-0.2,0.3c0,0.1,0.2,0.1,0.3,0.1C15.4,24,15.3,23.8,15.3,23.7z"/>
		<path class="st3" d="M18.3,24.1c-0.2,0-0.1,0.2-0.1,0.2c0.1,0,0.3,0,0.4,0C18.6,24.2,18.4,24.2,18.3,24.1z"/>
		<path class="st3" d="M17.7,24.3c-0.2,0-0.4,0.2-0.2,0.2C17.7,24.6,17.7,24.5,17.7,24.3z"/>
		<path class="st3" d="M18.3,24.9c-0.2,0.1-0.5,0.4-0.2,0.6c0.2-0.1,0-0.2,0.3-0.1C18.2,25.2,18.3,25.1,18.3,24.9z"/>
		<path class="st3" d="M18.3,26.2c-0.4-0.1-0.5,0.8,0.1,0.7c0-0.1-0.2,0-0.2-0.1C18.4,26.7,18.1,26.4,18.3,26.2z"/>
		<path class="st3" d="M15.3,24.2c-0.1,0-0.2,0-0.3,0c0,0.1,0.6,0.1,0.3,0.3c0.1,0.2,0.1-0.1,0.3-0.1C15.4,24.3,15.2,24.3,15.3,24.2
			z"/>
		<path class="st3" d="M18.5,24.4c-0.4,0,0,0.3,0,0.4c0.1,0,0.2,0,0.3,0C18.6,25,19,25,19,25.1c0,0-0.2,0-0.2,0.1
			c-0.1,0.1,0.1,0.2,0.3,0.2c-0.1-0.3-0.1-0.2,0-0.5l-0.3,0c0-0.1,0-0.2-0.1-0.2c0.2,0,0.3,0.1,0.4,0c0.2,0-0.1,0.2,0.2,0.2
			c-0.1-0.1-0.2-0.2-0.2-0.3c-0.1,0.2-0.3,0.1-0.6,0c0.2,0.1,0,0.1,0,0.2C18.4,24.8,18.5,24.6,18.5,24.4z"/>
		<path class="st3" d="M14.9,24.4c0.1,0.1,0.2,0.2,0.1,0.3c0.1,0,0.2,0,0.2,0.1C15.2,24.8,15.2,24.4,14.9,24.4z"/>
		<path class="st3" d="M18.8,25.4c-0.3,0.1,0.1,0.3,0.3,0.3c-0.1,0-0.2,0-0.2,0.1C19.5,25.7,18.8,25.5,18.8,25.4z"/>
		<path class="st3" d="M8.5,23.9c-0.2,0.3,0.2,0.7,0.4,0.9C9.2,24.6,8.6,24.3,8.5,23.9z"/>
		<path class="st3" d="M4.4,23.7c-0.5,0,0.3,0.3-0.2,0.3c0,0.1,0.2,0.1,0.3,0.1C4.5,23.9,4.5,23.8,4.4,23.7z"/>
		<path class="st3" d="M7.5,24.1c-0.2,0-0.1,0.2-0.1,0.2c0.1,0,0.3,0,0.4,0C7.7,24.2,7.5,24.2,7.5,24.1z"/>
		<path class="st3" d="M6.9,24.3c-0.2,0-0.4,0.2-0.2,0.2C6.8,24.6,6.9,24.5,6.9,24.3z"/>
		<path class="st3" d="M7.4,24.8c-0.2,0.1-0.5,0.4-0.2,0.6c0.2-0.1,0-0.2,0.3-0.1C7.4,25.2,7.4,25,7.4,24.8z"/>
		<path class="st3" d="M7.5,26.2C7,26.1,7,27,7.6,26.9c0-0.1-0.2,0-0.2-0.1C7.5,26.7,7.2,26.4,7.5,26.2z"/>
		<path class="st3" d="M6.6,28.7c-0.2,0-0.1,0.2-0.1,0.3C6.7,29,6.7,28.8,6.6,28.7z"/>
		<path class="st3" d="M4.4,24.1c-0.1,0-0.2,0-0.3,0c0,0.1,0.6,0.1,0.3,0.3c0.1,0.2,0.1-0.1,0.3-0.1C4.5,24.3,4.4,24.3,4.4,24.1z"/>
		<path class="st3" d="M7.6,24.4c-0.4,0,0,0.3,0.1,0.4c0.1,0,0.2,0,0.3,0C7.7,25,8.1,25,8.2,25.1c0,0-0.2,0-0.2,0.1
			c-0.1,0.1,0.1,0.2,0.3,0.2c-0.1-0.3-0.1-0.2,0-0.5l-0.3,0c0-0.1,0-0.2-0.1-0.2c0.2,0,0.3,0.1,0.4,0c0.2,0-0.1,0.2,0.2,0.2
			c-0.1-0.1-0.2-0.2-0.2-0.3c-0.1,0.2-0.3,0.1-0.6,0c0.2,0.1,0,0.1,0,0.2C7.5,24.8,7.6,24.6,7.6,24.4z"/>
		<path class="st3" d="M4,24.4c0.1,0.1,0.2,0.2,0.1,0.3c0.1,0,0.2,0,0.2,0.1C4.4,24.8,4.3,24.4,4,24.4z"/>
		<path class="st3" d="M7.9,25.4c-0.3,0.1,0.1,0.3,0.3,0.3c-0.1,0-0.2,0-0.2,0.1C8.6,25.7,7.9,25.5,7.9,25.4z"/>
		<path class="st3" d="M6.7,20.1c-0.1,0.1,0.1,0.3,0.2,0.4C7,20.4,6.7,20.2,6.7,20.1z"/>
		<path class="st3" d="M1.4,22.2c-0.2,0-0.1,0.2-0.1,0.2c0.1,0,0.3,0,0.4,0C1.7,22.3,1.5,22.3,1.4,22.2z"/>
		<path class="st3" d="M0.8,22.4c-0.2,0-0.4,0.2-0.2,0.2C0.7,22.6,0.8,22.5,0.8,22.4z"/>
		<path class="st3" d="M1.3,22.9c-0.2,0.1-0.5,0.4-0.2,0.6c0.2-0.1,0-0.2,0.3-0.1C1.3,23.3,1.3,23.1,1.3,22.9z"/>
		<path class="st3" d="M0.3,21.3c-0.4-0.1-0.5,0.8,0.1,0.7c0-0.1-0.2,0-0.2-0.1C0.4,21.8,0.1,21.5,0.3,21.3z"/>
		<path class="st3" d="M0.5,26.8c-0.2,0-0.1,0.2-0.1,0.3C0.6,27.1,0.6,26.9,0.5,26.8z"/>
		<path class="st3" d="M6.3,20.3c-0.2,0,0,0.1,0,0.2c0,0,0.1,0,0.1,0c-0.1,0.1,0.1,0.1,0.1,0.1c0,0-0.1,0-0.1,0c0,0.1,0,0.1,0.1,0.1
			c-0.1-0.1,0-0.1,0-0.2l-0.1,0c0,0,0-0.1,0-0.1c0.1,0,0.1,0,0.2,0c0.1,0,0,0.1,0.1,0.1c0,0-0.1-0.1-0.1-0.1c-0.1,0.1-0.1,0-0.3,0
			c0.1,0,0,0.1,0,0.1C6.2,20.5,6.3,20.4,6.3,20.3z"/>
		<path class="st3" d="M6.4,20.7c-0.1,0.1,0.1,0.1,0.1,0.1c0,0-0.1,0-0.1,0.1C6.7,20.9,6.4,20.8,6.4,20.7z"/>
		<path class="st3" d="M11.8,14c0-0.1,0.1-0.3-0.2-0.2c0.1,0.3-0.4,0.3-0.6,0.2c-0.1,0-0.1,0.1-0.3,0.1C11,14.2,11.4,14,11.8,14z"/>
		<path class="st3" d="M10.8,14.7c0.3,0,0.5,0.2,0.6,0.1C11.3,14.6,11,14.8,10.8,14.7c0,0-0.1,0-0.2,0c0.2,0.3-0.1,0.4-0.1,0.8
			c0.2,0,0.2-0.2,0.1-0.2c0.3,0.1,0.3-0.2,0.5-0.3l-0.4,0C10.8,14.8,10.8,14.8,10.8,14.7z"/>
		<path class="st3" d="M6.8,16.4c0.4-0.1,0.3,0.2,0.4,0.3C7.5,16.6,6.9,16.1,6.8,16.4z"/>
		<path class="st3" d="M12,18.4C12,18.3,12,18,12,18.4C11.9,18.3,11.9,18.3,12,18.4z"/>
		<path class="st3" d="M11.7,18.7c0.1-0.1,0.1-0.2,0.1-0.3c-0.1,0.1-0.2,0-0.3-0.1c0,0.1,0,0.2,0.1,0.2c0,0,0,0,0.1,0
			c0,0-0.1,0-0.2,0c0,0,0.1,0.1,0,0.1c0,0,0,0,0,0C11.5,18.8,11.6,18.6,11.7,18.7z"/>
		<path class="st3" d="M12.1,18.7c-0.3,0.2-0.5,0.5-0.6,0.9c0,0-0.1,0-0.2,0c0.1,0.1,0.1,0.1,0.3,0.1c0,0.1-0.1,0.1,0,0.2
			c0,0-0.1,0.1-0.2,0c0,0.5-0.1,1-0.3,1.5c0.2-0.1,0.1,0.1,0.3,0.1c0,0-0.1,0-0.1,0.1c-0.1,0,0-0.1-0.2-0.1c0.1,0.1,0,0.2,0.3,0.3
			c0.2,0-0.2-0.2,0.1-0.1c0.1-0.9,0-1.4,0.1-2.3c0-0.1,0.1,0,0.2-0.1c-0.1,0,0-0.1-0.1-0.1c0.1-0.1,0.1-0.1,0.2-0.1
			C12.1,18.9,12,18.7,12.1,18.7z"/>
		<path class="st3" d="M11.8,15.7c-0.1,0-0.1,0.1-0.1,0.1c0,0-0.1,0-0.1-0.1c-0.3,0.1-0.1,0.4-0.2,0.6c0.2-0.1,0.3,0.4,0,0.5
			c0,0.1,0.1,0.1,0.1,0.1c-0.1,0.1-0.2,0.1-0.2,0.1c0.1,0,0.1,0,0.2,0c-0.1,0.1,0.2,0.1,0.3,0.2c-0.1,0-0.1,0.1-0.1,0.1
			c0.1-0.1,0.1,0,0.1,0.1c0.1-0.1,0.2-0.2,0.3-0.3c-0.1,0-0.1,0-0.1,0c-0.1-0.1-0.1-0.2-0.1-0.3c-0.1,0-0.1,0-0.2,0
			c0.1-0.1,0-0.3,0.2-0.3c0,0-0.1-0.1-0.1-0.2c-0.2,0,0,0.1,0,0.1c0,0-0.1,0-0.1,0C11.7,16.4,11.7,16.1,11.8,15.7z"/>
		<path class="st3" d="M13.2,16c-0.1,0-0.1-0.2-0.2-0.2c0,0.1,0.1,0.2,0.1,0.3C13.1,16.2,13.2,16.1,13.2,16z"/>
		<path class="st3" d="M14.8,25.3c0.2-0.3,0.1-0.4,0.2-0.7c-0.1,0-0.2,0-0.2,0.1c-0.1,0-0.2-0.1-0.3-0.1c0.2,0.3,0.1,0.5-0.1,0.7
			C14.5,25.3,14.8,25,14.8,25.3z"/>
		<path class="st3" d="M14.6,26c-0.2-0.1,0.1,0.2,0.3,0.2c-0.1,0-0.1-0.1-0.1-0.2C14.7,25.9,14.6,26.1,14.6,26z"/>
		<path class="st3" d="M8.1,24.3C8,24.4,8,24.5,7.8,24.7c0.1,0,0.1,0.1,0.2,0.1c0.2,0,0-0.2,0.3-0.1C8.1,24.5,8.2,24.5,8.1,24.3z"/>
		<path class="st3" d="M5,17.3c-0.2,0.1-0.3,0.3,0.2,0.2C5.2,17.4,4.9,17.4,5,17.3z"/>
		<path class="st3" d="M19,25.8c-0.2,0.3,0.2,0.7,0.4,0.9C19.7,26.5,19.1,26.1,19,25.8z"/>
		<path class="st3" d="M15,25.6c-0.5,0,0.3,0.3-0.2,0.3c0,0.1,0.2,0.1,0.3,0.1C15,25.8,15,25.7,15,25.6z"/>
		<path class="st3" d="M18,26c-0.2,0-0.1,0.2-0.1,0.2c0.1,0,0.3,0,0.4,0C18.3,26.1,18,26.1,18,26z"/>
		<path class="st3" d="M17.4,26.2c-0.2,0-0.4,0.2-0.2,0.2C17.3,26.4,17.4,26.3,17.4,26.2z"/>
		<path class="st3" d="M17.9,26.7c-0.2,0.1-0.5,0.4-0.2,0.6c0.2-0.1,0-0.2,0.3-0.1C17.9,27.1,17.9,26.9,17.9,26.7z"/>
		<path class="st3" d="M15,14.6c-0.4-0.1-0.5,0.8,0.1,0.7c0-0.1-0.2-0.1-0.3-0.1C15.1,15,14.8,14.7,15,14.6z"/>
		<path class="st3" d="M14.2,17.1c-0.2,0-0.1,0.2-0.1,0.3C14.3,17.4,14.2,17.2,14.2,17.1z"/>
		<path class="st3" d="M14.9,26c-0.1,0-0.2,0-0.3,0c0,0.1,0.6,0.1,0.3,0.3c0.1,0.1,0.1-0.1,0.3-0.1C15.1,26.2,14.9,26.2,14.9,26z"/>
		<path class="st3" d="M18.1,26.3c-0.4,0,0,0.3,0,0.4c0.1,0,0.2,0,0.3,0c-0.2,0.2,0.2,0.1,0.2,0.3c0,0-0.2,0-0.2,0.1
			c-0.1,0.1,0.1,0.2,0.3,0.2c-0.1-0.2-0.1-0.2,0-0.5l-0.3,0c0-0.1,0-0.2-0.1-0.2c0.2,0,0.3,0.1,0.4,0c0.2,0-0.1,0.2,0.2,0.2
			c-0.1-0.1-0.2-0.2-0.2-0.3c-0.1,0.2-0.3,0.1-0.6,0c0.2,0.1,0,0.1,0,0.2C18,26.7,18.1,26.5,18.1,26.3z"/>
		<path class="st3" d="M14.6,26.3c0.1,0.1,0.2,0.2,0.1,0.3c0.1,0,0.2,0,0.2,0.1C14.9,26.7,14.8,26.3,14.6,26.3z"/>
		<path class="st3" d="M18.4,27.2c-0.3,0.1,0.1,0.3,0.3,0.3c-0.1,0-0.2,0-0.2,0.1C19.1,27.6,18.4,27.4,18.4,27.2z"/>
		<path class="st3" d="M8,24.2c0.2-0.3,0.1-0.4,0.2-0.7c-0.1,0-0.2,0.1-0.2,0.1c-0.1,0-0.2-0.1-0.2-0.1c0.2,0.3,0.1,0.5-0.1,0.7
			C7.8,24.2,8.1,23.9,8,24.2z"/>
		<path class="st3" d="M7.8,24.9c-0.2-0.1,0.1,0.2,0.3,0.2c-0.1,0-0.1-0.1-0.1-0.2C8,24.8,7.9,25,7.8,24.9z"/>
		<path class="st3" d="M12.6,26.1C12.5,26.1,12.5,26.1,12.6,26.1l-0.3,0c0.4,0.1,0,0.6,0.6,0.6c0-0.1-0.1-0.1-0.2-0.1
			C12.6,26.3,12.7,26.2,12.6,26.1z"/>
		<path class="st3" d="M8.8,23.6c0,0.1,0.1,0.1,0.1,0.2c0.1-0.1,0.2-0.1,0.2-0.2c0.1,0,0.1,0,0.2,0c0-0.1-0.1-0.1,0-0.2
			c0.1,0,0.1,0,0.1,0.1c0.2,0,0-0.1,0.2-0.1c0-0.1-0.2,0-0.3,0c-0.1,0-0.1-0.1-0.1-0.2c-0.1,0-0.1,0.1-0.2,0
			C8.9,23.4,9,23.5,8.8,23.6z"/>
		<path class="st3" d="M14.4,17.8C14.3,17.8,14.3,17.8,14.4,17.8C14.3,17.8,14.3,17.8,14.4,17.8c-0.1,0-0.1-0.1-0.2-0.1
			c0,0.1,0.1,0.1,0.1,0.2C14.5,18,14.3,17.8,14.4,17.8z"/>
		<path class="st3" d="M13.4,17.9c-0.1,0-0.2,0-0.2,0.1c0.2-0.1-0.1,0.1,0,0.2c0,0-0.2,0-0.2,0c0.1,0.1,0,0.4,0.2,0.6
			c-0.3,0,0.1,0.2-0.2,0.2c0,0,0.1,0,0.2,0.1c-0.1,0.1,0.1,0.2,0,0.3c0,0,0.3,0,0.2,0.1c0.2,0,0.1-0.1-0.1-0.1c0-0.1,0-0.2-0.1-0.2
			c0,0,0.1,0,0.2,0c0-0.1-0.1-0.1,0-0.2c-0.4,0,0-0.3-0.3-0.4C13.4,18.3,13.3,18.1,13.4,17.9z"/>
		<path class="st3" d="M10.6,18.2c-0.1,0-0.1,0.1-0.1,0.1c0,0,0,0,0,0c-0.1,0-0.1,0-0.2,0c0,0.1-0.1,0.2-0.2,0.3
			c0.2,0,0.1,0.5,0.4,0.5c0,0,0,0.1,0,0.1c0.1,0,0.2,0.1,0.2,0.2c0.3,0.1,0.3,0.4,0.6,0.4c-0.1-0.1,0.1-0.2,0.1-0.2
			c0.1-0.4-0.3-1.1,0.2-1.3c0.1,0.1-0.2,0.1-0.1,0.3c0.1-0.1,0.3-0.1,0.4-0.3c0.1,0-0.1,0.1,0.1,0.1c0.1,0,0-0.1,0-0.2
			c-0.3,0.1-0.2-0.2-0.2-0.3c-0.1,0-0.1,0.1-0.2,0c0,0.1,0.1,0.1,0,0.2c-0.3-0.1-0.1-0.3-0.1-0.4c0,0.2-0.4,0.3-0.6,0.5
			c0,0.1,0,0.2-0.2,0.2c0,0.1,0.1,0,0.1,0.1c-0.1,0.1-0.2,0-0.2,0.1c0,0-0.1,0-0.2,0c-0.2-0.1,0.1-0.3-0.1-0.2c0-0.1,0.1,0,0.1-0.1
			c0.1,0,0,0.1,0.1,0.1c0.1,0,0-0.1-0.1-0.1C10.4,18.4,10.6,18.4,10.6,18.2z"/>
		<path class="st3" d="M13.7,18.2c-0.1,0,0,0.1,0,0.1c0.1,0,0.1,0,0.2,0C13.8,18.3,13.7,18.3,13.7,18.2z"/>
		<path class="st3" d="M13.5,19.1c0,0.1,0,0.2,0.1,0.3C13.6,19.4,13.7,19.2,13.5,19.1z"/>
		<path class="st3" d="M11.9,19.4c0.3,0,0-0.3,0-0.4C11.8,19.2,11.8,19.3,11.9,19.4z"/>
		<path class="st3" d="M10.3,22.4c0.1,0,0-0.1,0.3-0.1c-0.2,0-0.1-0.2-0.3-0.2c0.1-0.1,0.3-0.2,0.7-0.2c0.4-0.3,0.1-0.7-0.2-0.9
			C10,21,9.6,21,9.5,21.3c-0.2,0.3,0.5,0.7,0.2,1c0.1,0.1,0.1,0.4,0.2,0.5c0.2,0,0.1,0,0.3,0c0.1-0.1,0-0.3,0.2-0.3
			C10.4,22.5,10.4,22.4,10.3,22.4z"/>
	</g>
</g>
<path class="st2" d="M58.6,61.9l1.1,34.1l-20.5-8.8l-9.1-25L58.6,61.9z"/>
</svg>
